{"scene":0,"asset":{"generator":"ImageToStl.com","version":"2.0"},"scenes":[{"name":"Scene","nodes":[0]}],"nodes":[{"name":"Node0","children":[1,2]},{"name":"Node1","mesh":0},{"name":"Node2","mesh":1}],"materials":[{"name":"Material.001","pbrMetallicRoughness":{"baseColorFactor":[1.0,0.837104,0.013312,1.0],"metallicFactor":0.5,"roughnessFactor":0.4375},"emissiveFactor":[0.0,0.0,0.0],"doubleSided":true},{"name":"Material.002","pbrMetallicRoughness":{"baseColorFactor":[0.017387,0.017387,0.017387,1.0],"metallicFactor":0.5,"roughnessFactor":0.4375},"emissiveFactor":[0.0,0.0,0.0],"doubleSided":true}],"meshes":[{"name":"Mesh0","primitives":[{"indices":3,"material":0,"attributes":{"POSITION":0,"NORMAL":1,"TEXCOORD_0":2}}]},{"name":"Mesh0","primitives":[{"indices":7,"material":1,"attributes":{"POSITION":4,"NORMAL":5,"TEXCOORD_0":6}}]}],"accessors":[{"bufferView":0,"componentType":5126,"count":995,"type":"VEC3","min":[-0.25826567,-0.113551326,-0.004504107],"max":[-0.19801341,0.02781225,0.13984776]},{"bufferView":1,"componentType":5126,"count":995,"type":"VEC3"},{"bufferView":2,"componentType":5126,"count":995,"type":"VEC2"},{"bufferView":3,"componentType":5123,"count":11628,"type":"SCALAR"},{"bufferView":4,"componentType":5126,"count":6660,"type":"VEC3","min":[-0.20613946,-0.05616858,0.020100838],"max":[-0.19380811,0.00966236,0.06428858]},{"bufferView":5,"componentType":5126,"count":6660,"type":"VEC3"},{"bufferView":6,"componentType":5126,"count":6660,"type":"VEC2"},{"bufferView":7,"componentType":5123,"count":102312,"type":"SCALAR"}],"bufferViews":[{"target":34962,"buffer":0,"byteLength":11940,"byteOffset":0},{"target":34962,"buffer":0,"byteLength":11940,"byteOffset":11940},{"target":34962,"buffer":0,"byteLength":7960,"byteOffset":23880},{"target":34963,"buffer":0,"byteLength":23256,"byteOffset":31840},{"target":34962,"buffer":0,"byteLength":79920,"byteOffset":55096},{"target":34962,"buffer":0,"byteLength":79920,"byteOffset":135016},{"target":34962,"buffer":0,"byteLength":53280,"byteOffset":214936},{"target":34963,"buffer":0,"byteLength":204624,"byteOffset":268216}],"buffers":[{"byteLength":472840,"uri":"data:application/octet-stream;base64,"}]}