<svg xmlns="http://www.w3.org/2000/svg" xmlns:xlink="http://www.w3.org/1999/xlink" width="2000" zoomAndPan="magnify" viewBox="0 0 1500 1499.999933" height="2000" preserveAspectRatio="xMidYMid meet" version="1.0"><defs><g/><clipPath id="63ff8225cd"><path d="M 481.074219 167.722656 L 1024.824219 167.722656 L 1024.824219 711.472656 L 481.074219 711.472656 Z M 481.074219 167.722656 " clip-rule="nonzero"/></clipPath><clipPath id="11b273eb33"><rect x="0" width="601" y="0" height="99"/></clipPath><clipPath id="b137588ea5"><rect x="0" width="1109" y="0" height="304"/></clipPath></defs><rect x="-150" width="1800" fill="#ffffff" y="-149.999993" height="1799.99992" fill-opacity="1"/><rect x="-150" width="1800" fill="#142427" y="-149.999993" height="1799.99992" fill-opacity="1"/><g clip-path="url(#63ff8225cd)"><path fill="#f7f7f7" d="M 1016.53125 425.613281 L 1014.785156 424.4375 L 1013.28125 423.667969 C 992.476562 414.199219 929.710938 432.796875 927.117188 433.582031 C 925.761719 390.457031 908.875 351.355469 881.757812 321.5625 C 942.128906 288.015625 949.589844 266.984375 949.5625 266.984375 C 951.464844 261.292969 950.871094 257.03125 949.238281 253.710938 L 947.925781 251.558594 L 947.144531 250.378906 L 945.316406 247.667969 C 941.011719 243.347656 935.050781 242.066406 929.492188 243.183594 L 927.472656 243.582031 L 925.824219 244.109375 C 905.144531 251.867188 875.328125 305.753906 872.085938 311.683594 C 842.679688 284.074219 803.761719 266.585938 760.730469 264.550781 C 779.550781 198.457031 770.019531 178.371094 770.019531 178.371094 C 767.292969 173.03125 763.882812 170.4375 760.363281 169.230469 L 757.902344 168.652344 L 756.527344 168.375 L 753.3125 167.722656 C 747.207031 167.722656 742.089844 171.027344 738.949219 175.746094 L 737.78125 177.484375 L 737.003906 178.988281 C 728.054688 198.78125 744.359375 256.410156 746.707031 264.429688 C 703.542969 265.820312 664.433594 282.792969 634.644531 309.972656 C 601.273438 250.128906 580.335938 242.699219 580.335938 242.699219 C 574.640625 240.835938 570.382812 241.414062 567.0625 243.050781 L 564.941406 244.363281 L 563.773438 245.144531 L 561.015625 246.972656 C 556.710938 251.277344 555.441406 257.21875 556.546875 262.78125 L 556.945312 264.832031 L 557.476562 266.453125 C 565.054688 286.671875 616.757812 315.632812 624.574219 319.910156 C 597.023438 349.429688 579.683594 388.421875 577.824219 431.511719 C 511.820312 412.738281 491.734375 422.28125 491.734375 422.28125 C 486.382812 424.996094 483.800781 428.414062 482.589844 431.925781 L 482.003906 434.375 L 481.738281 435.761719 L 481.074219 438.945312 C 481.074219 445.050781 484.375 450.167969 489.109375 453.308594 L 490.851562 454.492188 L 492.351562 455.253906 C 512.128906 464.25 569.65625 447.9375 577.765625 445.582031 C 579.359375 488.699219 596.464844 527.75 623.75 557.402344 C 563.523438 590.921875 556.058594 611.921875 556.058594 611.921875 C 554.214844 617.628906 554.765625 621.875 556.445312 625.210938 L 557.722656 627.351562 L 558.539062 628.511719 L 560.308594 631.238281 C 564.617188 635.5625 570.570312 636.84375 576.144531 635.722656 L 578.210938 635.324219 L 579.832031 634.792969 C 600.417969 627.066406 630.175781 573.402344 633.539062 567.238281 C 663.078125 594.667969 702.023438 611.921875 745.082031 613.722656 C 726.03125 680.347656 735.660156 700.550781 735.660156 700.550781 C 738.375 705.886719 741.78125 708.484375 745.304688 709.679688 L 747.738281 710.253906 L 749.121094 710.550781 L 752.324219 711.199219 C 758.429688 711.199219 763.546875 707.894531 766.667969 703.175781 L 767.851562 701.4375 L 768.632812 699.917969 C 778.054688 679.140625 759.59375 616.671875 758.722656 613.765625 C 801.796875 612.214844 840.816406 595.183594 870.503906 567.980469 C 904.167969 628.734375 925.300781 636.222656 925.300781 636.222656 C 931.007812 638.082031 935.238281 637.496094 938.558594 635.871094 L 940.714844 634.542969 L 941.90625 633.765625 L 944.605469 631.949219 C 948.910156 627.640625 950.207031 621.6875 949.074219 616.140625 L 948.6875 614.078125 L 948.144531 612.453125 C 940.035156 590.820312 881.34375 559.128906 880.121094 558.464844 C 907.648438 529.046875 925.023438 490.175781 926.980469 447.175781 C 993.699219 466.269531 1013.917969 456.640625 1013.882812 456.640625 C 1019.269531 453.929688 1021.835938 450.503906 1023.058594 446.996094 L 1023.632812 444.546875 L 1023.898438 443.160156 L 1024.535156 439.945312 C 1024.535156 433.859375 1021.261719 428.742188 1016.53125 425.613281 Z M 593.695312 448.472656 L 603.957031 448.472656 C 605.84375 483.835938 620 515.863281 642.328125 540.429688 L 635.675781 547.097656 C 611.378906 520.832031 595.890625 486.519531 593.695312 448.472656 Z M 890.738281 423.464844 C 887.089844 423.464844 884.144531 426.398438 884.144531 430.035156 L 884.144531 432.707031 L 787.746094 432.707031 C 787.039062 428.652344 785.550781 424.90625 783.585938 421.46875 L 851.613281 353.445312 L 852.941406 354.742188 C 855.511719 357.320312 859.726562 357.320312 862.261719 354.742188 L 863.132812 353.445312 C 878.761719 373.292969 889.191406 397.386719 892.316406 423.773438 Z M 752.808594 459.5625 C 741.722656 459.5625 732.726562 450.570312 732.726562 439.476562 C 732.726562 437.058594 733.332031 434.847656 734.082031 432.707031 L 733.523438 432.707031 L 733.683594 431.898438 L 734.167969 432.402344 C 737.035156 424.804688 744.226562 419.359375 752.808594 419.359375 C 755.464844 419.359375 757.96875 419.949219 760.300781 420.878906 L 760.300781 420.527344 L 761.453125 421.292969 L 761.359375 421.425781 C 768.148438 424.640625 772.9375 431.4375 772.9375 439.476562 C 772.9375 450.566406 763.910156 459.5625 752.808594 459.5625 Z M 838.179688 339.964844 L 840.5 342.265625 L 773.046875 409.714844 C 769.269531 407.046875 764.976562 405.113281 760.300781 404.050781 L 760.300781 308.777344 L 762.855469 308.777344 C 766.496094 308.777344 769.453125 305.8125 769.453125 302.1875 L 769.121094 300.621094 C 795.53125 303.734375 819.613281 314.128906 839.496094 329.777344 L 838.183594 330.648438 C 835.601562 333.210938 835.601562 337.398438 838.179688 339.964844 Z M 741.984375 308.777344 L 744.539062 308.777344 L 744.539062 404.050781 C 740.363281 404.996094 736.472656 406.648438 732.976562 408.917969 L 665.347656 341.261719 L 666.664062 339.964844 C 669.242188 337.382812 669.242188 333.210938 666.664062 330.644531 L 665.363281 329.789062 C 685.214844 314.15625 709.308594 303.734375 735.691406 300.621094 L 735.382812 302.183594 C 735.382812 305.8125 738.3125 308.777344 741.984375 308.777344 Z M 641.707031 353.445312 L 642.5625 354.742188 C 645.113281 357.320312 649.320312 357.320312 651.871094 354.742188 L 654.199219 352.414062 L 721.960938 420.183594 C 719.601562 423.945312 717.910156 428.164062 717.09375 432.707031 L 620.679688 432.707031 L 620.679688 430.035156 C 620.679688 426.398438 617.746094 423.464844 614.105469 423.464844 L 612.539062 423.773438 C 615.652344 397.386719 626.046875 373.292969 641.707031 353.445312 Z M 614.105469 457.542969 C 617.746094 457.542969 620.679688 454.574219 620.679688 450.945312 L 620.679688 448.472656 L 717.835938 448.472656 C 718.921875 452.558594 720.636719 456.375 723.023438 459.738281 L 654.199219 528.574219 L 651.871094 526.265625 C 649.320312 523.679688 645.117188 523.699219 642.5625 526.265625 L 641.707031 527.546875 C 626.046875 507.695312 615.652344 483.613281 612.539062 457.234375 Z M 666.664062 541.050781 L 665.347656 539.726562 L 734.777344 470.296875 C 737.800781 472.007812 741.03125 473.394531 744.539062 474.171875 L 744.539062 572.226562 L 741.984375 572.226562 C 738.3125 572.226562 735.382812 575.171875 735.382812 578.816406 L 735.691406 580.394531 C 709.308594 577.269531 685.210938 566.859375 665.363281 551.226562 L 666.664062 550.371094 C 669.242188 547.777344 669.242188 543.601562 666.664062 541.050781 Z M 762.855469 572.226562 L 760.300781 572.226562 L 760.300781 474.160156 C 764.300781 473.277344 767.988281 471.683594 771.378906 469.589844 L 840.5 538.722656 L 838.179688 541.023438 C 835.601562 543.601562 835.601562 547.777344 838.152344 550.34375 L 839.464844 551.226562 C 819.613281 566.859375 795.53125 577.273438 769.136719 580.394531 L 769.449219 578.816406 C 769.449219 575.175781 766.496094 572.226562 762.855469 572.226562 Z M 863.132812 527.574219 L 862.261719 526.246094 C 859.699219 523.679688 855.511719 523.679688 852.941406 526.246094 L 851.613281 527.574219 L 782.628906 458.5625 C 784.589844 455.492188 786.039062 452.070312 787.007812 448.472656 L 884.144531 448.472656 L 884.144531 450.945312 C 884.144531 454.574219 887.089844 457.542969 890.738281 457.542969 L 892.316406 457.230469 C 889.191406 483.613281 878.761719 507.726562 863.132812 527.574219 Z M 900.867188 432.707031 C 899.066406 397.769531 885.292969 366.082031 863.457031 341.617188 L 871.433594 333.621094 C 895.046875 360.226562 909.777344 394.703125 911.277344 432.707031 Z M 852.367188 330.410156 C 827.753906 308.050781 795.679688 293.898438 760.300781 292.050781 L 760.300781 280.300781 C 798.90625 282.203125 833.800781 297.761719 860.402344 322.359375 Z M 744.539062 292.050781 C 709.632812 293.871094 678.003906 307.65625 653.539062 329.464844 L 645.484375 321.414062 C 671.953125 297.363281 706.417969 282.175781 744.539062 280.300781 Z M 634.363281 332.578125 L 642.328125 340.554688 C 619.972656 365.179688 605.785156 397.269531 603.957031 432.707031 L 593.546875 432.707031 C 595.066406 394.207031 610.210938 359.328125 634.363281 332.578125 Z M 653.539062 551.535156 C 678.003906 573.34375 709.632812 587.121094 744.539062 588.953125 L 744.539062 597.917969 C 707.109375 596.085938 673.207031 581.425781 646.933594 558.128906 Z M 760.300781 588.953125 C 795.679688 587.09375 827.753906 572.933594 852.367188 550.578125 L 858.964844 557.183594 C 832.542969 581.015625 798.230469 596.058594 760.300781 597.917969 Z M 870.121094 546.054688 L 863.457031 539.382812 C 885.269531 514.953125 899.023438 483.332031 900.867188 448.472656 L 911.164062 448.472656 C 908.964844 486.015625 893.851562 519.933594 870.121094 546.054688 Z M 870.121094 546.054688 " fill-opacity="1" fill-rule="nonzero"/></g><path stroke-linecap="butt" transform="matrix(0.75, 0, 0, 0.75, 202.834528, 584.377538)" fill="none" stroke-linejoin="miter" d="M 0.00187949 15.501826 L 185.038354 15.501826 " stroke="#f7f7f7" stroke-width="31" stroke-opacity="1" stroke-miterlimit="4"/><path stroke-linecap="butt" transform="matrix(0.75, 0, 0, 0.75, 1166.405789, 584.377538)" fill="none" stroke-linejoin="miter" d="M 0.000614822 15.501826 L 180.307922 15.501826 " stroke="#f7f7f7" stroke-width="31" stroke-opacity="1" stroke-miterlimit="4"/><g transform="matrix(1, 0, 0, 1, 480, 1242)"><g clip-path="url(#11b273eb33)"><g fill="#f7f7f7" fill-opacity="1"><g transform="translate(6.104381, 73.971826)"><g><path d="M 21.679688 0 L 21.679688 -26.542969 L 35.097656 -26.542969 C 62.027344 -26.542969 62.125 -69.417969 35.097656 -69.417969 L 7.777344 -69.417969 L 7.777344 0 Z M 21.679688 -40.054688 L 21.679688 -55.613281 L 33.929688 -55.613281 C 43.265625 -55.613281 43.265625 -40.054688 33.929688 -40.054688 Z M 21.679688 -40.054688 "/></g></g></g><g fill="#f7f7f7" fill-opacity="1"><g transform="translate(122.869657, 73.971826)"><g><path d="M 42.390625 0 L 58.140625 0 L 42 -28.679688 C 62.417969 -34.613281 59.988281 -69.515625 35.195312 -69.515625 L 7.777344 -69.515625 L 7.777344 0 L 21.679688 0 L 21.679688 -26.542969 L 28.390625 -26.542969 Z M 21.679688 -40.054688 L 21.679688 -55.613281 L 33.929688 -55.613281 C 43.363281 -55.613281 43.363281 -40.054688 33.929688 -40.054688 Z M 21.679688 -40.054688 "/></g></g></g><g fill="#f7f7f7" fill-opacity="1"><g transform="translate(240.607125, 73.971826)"><g><path d="M 28.875 0.972656 C 46.179688 0.972656 52.792969 -15.070312 52.792969 -34.804688 C 52.792969 -54.542969 46.179688 -70.488281 28.875 -70.488281 C 11.765625 -70.488281 5.054688 -54.542969 5.054688 -34.804688 C 5.054688 -15.070312 11.765625 0.972656 28.875 0.972656 Z M 28.875 -12.152344 C 21.195312 -12.152344 18.570312 -22.265625 18.570312 -34.804688 C 18.570312 -47.25 21.195312 -57.457031 28.875 -57.457031 C 36.75 -57.457031 39.375 -47.25 39.375 -34.804688 C 39.375 -22.265625 36.75 -12.152344 28.875 -12.152344 Z M 28.875 -12.152344 "/></g></g></g><g fill="#f7f7f7" fill-opacity="1"><g transform="translate(356.789013, 73.971826)"><g><path d="M 0.582031 0 L 17.5 0 L 30.917969 -23.820312 L 44.238281 0 L 60.667969 0 L 38.792969 -37.042969 L 57.75 -69.613281 L 41.320312 -69.613281 L 30.917969 -50.265625 L 20.417969 -69.613281 L 3.597656 -69.613281 L 22.457031 -37.042969 Z M 0.582031 0 "/></g></g></g><g fill="#f7f7f7" fill-opacity="1"><g transform="translate(476.276524, 73.971826)"><g><path d="M 24.792969 0 L 38.597656 0 L 38.597656 -31.304688 L 62.902344 -69.515625 L 45.890625 -69.515625 L 31.695312 -45.597656 L 17.5 -69.515625 L 0.582031 -69.515625 L 24.792969 -31.304688 Z M 24.792969 0 "/></g></g></g></g></g><g transform="matrix(1, 0, 0, 1, 217, 820)"><g clip-path="url(#b137588ea5)"><g fill="#f7f7f7" fill-opacity="1"><g transform="translate(15.561926, 225.571961)"><g><path d="M 112.796875 -23.625 L 53.75 -23.625 L 46.359375 -3.25 L 46.359375 -3.546875 C 45.765625 -1.179688 43.695312 0 40.15625 0 L 5.015625 0 C 2.460938 0 0.695312 -0.734375 -0.28125 -2.203125 C -1.269531 -3.679688 -1.375 -5.3125 -0.59375 -7.09375 L 77.65625 -207.890625 C 78.644531 -210.054688 80.566406 -211.140625 83.421875 -211.140625 C 86.273438 -211.140625 88.191406 -210.054688 89.171875 -207.890625 L 167.4375 -7.09375 C 168.21875 -5.3125 168.066406 -3.679688 166.984375 -2.203125 C 165.898438 -0.734375 164.28125 0 162.125 0 L 126.390625 0 C 125.203125 0 124.066406 -0.34375 122.984375 -1.03125 C 121.898438 -1.71875 121.164062 -2.554688 120.78125 -3.546875 L 120.78125 -3.25 Z M 65.5625 -59.359375 L 100.984375 -59.359375 L 90.65625 -90.0625 C 89.28125 -94.988281 88 -99.710938 86.8125 -104.234375 C 85.632812 -108.765625 84.550781 -113.585938 83.5625 -118.703125 C 82.582031 -113.191406 81.5 -108.171875 80.3125 -103.640625 C 79.132812 -99.117188 77.757812 -94.59375 76.1875 -90.0625 Z M 65.5625 -59.359375 "/></g></g></g><g fill="#f7f7f7" fill-opacity="1"><g transform="translate(234.063962, 225.571961)"><g><path d="M 63.484375 -164.484375 L 63.484375 -124.90625 L 139.078125 -124.90625 C 140.859375 -124.90625 142.285156 -124.363281 143.359375 -123.28125 C 144.441406 -122.195312 144.984375 -120.96875 144.984375 -119.59375 L 144.984375 -87.703125 C 144.984375 -86.523438 144.441406 -85.394531 143.359375 -84.3125 C 142.285156 -83.226562 140.859375 -82.6875 139.078125 -82.6875 L 63.484375 -82.6875 L 63.484375 -43.109375 L 155.328125 -43.109375 C 157.296875 -43.109375 158.867188 -42.566406 160.046875 -41.484375 C 161.234375 -40.398438 161.828125 -39.171875 161.828125 -37.796875 L 161.828125 -5.015625 C 161.828125 -3.835938 161.234375 -2.707031 160.046875 -1.625 C 158.867188 -0.539062 157.296875 0 155.328125 0 L 24.515625 0 C 22.546875 0 21.019531 -0.539062 19.9375 -1.625 C 18.851562 -2.707031 18.3125 -3.835938 18.3125 -5.015625 L 18.3125 -201.390625 C 18.3125 -202.765625 18.851562 -203.992188 19.9375 -205.078125 C 21.019531 -206.160156 22.546875 -206.703125 24.515625 -206.703125 L 152.96875 -206.703125 C 154.738281 -206.703125 156.210938 -206.160156 157.390625 -205.078125 C 158.578125 -203.992188 159.171875 -202.765625 159.171875 -201.390625 L 159.171875 -169.796875 C 159.171875 -168.421875 158.578125 -167.191406 157.390625 -166.109375 C 156.210938 -165.023438 154.738281 -164.484375 152.96875 -164.484375 Z M 63.484375 -164.484375 "/></g></g></g><g fill="#f7f7f7" fill-opacity="1"><g transform="translate(457.88076, 225.571961)"><g><path d="M 199.328125 -121.953125 C 201.097656 -121.953125 202.523438 -121.410156 203.609375 -120.328125 C 204.691406 -119.242188 205.234375 -118.113281 205.234375 -116.9375 L 205.234375 -4.421875 C 205.234375 -3.046875 204.691406 -1.816406 203.609375 -0.734375 C 202.523438 0.347656 201.097656 0.890625 199.328125 0.890625 L 170.6875 0.890625 C 169.101562 0.890625 167.625 0.398438 166.25 -0.578125 C 164.875 -1.566406 164.1875 -2.753906 164.1875 -4.140625 C 163.988281 -7.085938 163.835938 -8.804688 163.734375 -9.296875 C 163.640625 -9.796875 163.59375 -11.617188 163.59375 -14.765625 C 156.894531 -8.660156 149.363281 -4.179688 141 -1.328125 C 132.632812 1.523438 123.234375 2.953125 112.796875 2.953125 C 94.097656 2.953125 77.171875 -1.226562 62.015625 -9.59375 C 46.859375 -17.957031 34.847656 -30.0625 25.984375 -45.90625 C 17.128906 -61.757812 12.703125 -80.910156 12.703125 -103.359375 C 12.703125 -118.710938 15.40625 -132.882812 20.8125 -145.875 C 26.226562 -158.863281 33.757812 -170.132812 43.40625 -179.6875 C 53.050781 -189.238281 64.171875 -196.617188 76.765625 -201.828125 C 89.367188 -207.046875 102.859375 -209.65625 117.234375 -209.65625 C 131.410156 -209.65625 144.992188 -206.847656 157.984375 -201.234375 C 170.972656 -195.628906 182 -188.300781 191.0625 -179.25 C 191.84375 -178.257812 192.179688 -176.925781 192.078125 -175.25 C 191.984375 -173.582031 191.445312 -172.253906 190.46875 -171.265625 L 167.4375 -148.53125 C 166.25 -147.550781 164.867188 -147.109375 163.296875 -147.203125 C 161.722656 -147.304688 160.441406 -147.847656 159.453125 -148.828125 C 153.941406 -154.335938 147.546875 -158.664062 140.265625 -161.8125 C 132.984375 -164.96875 125.304688 -166.546875 117.234375 -166.546875 C 106.398438 -166.546875 96.503906 -164.035156 87.546875 -159.015625 C 78.597656 -153.992188 71.460938 -146.804688 66.140625 -137.453125 C 60.828125 -128.109375 58.171875 -116.742188 58.171875 -103.359375 C 58.171875 -88.585938 60.828125 -76.578125 66.140625 -67.328125 C 71.460938 -58.078125 78.597656 -51.234375 87.546875 -46.796875 C 96.503906 -42.367188 106.398438 -40.15625 117.234375 -40.15625 C 125.503906 -40.15625 133.328125 -41.878906 140.703125 -45.328125 C 148.085938 -48.773438 154.535156 -53.453125 160.046875 -59.359375 L 160.046875 -81.5 L 131.109375 -81.5 C 126.773438 -81.5 124.609375 -83.171875 124.609375 -86.515625 L 124.609375 -116.9375 C 124.609375 -118.113281 125.195312 -119.242188 126.375 -120.328125 C 127.5625 -121.410156 129.140625 -121.953125 131.109375 -121.953125 Z M 199.328125 -121.953125 "/></g></g></g><g fill="#f7f7f7" fill-opacity="1"><g transform="translate(736.320924, 225.571961)"><g><path d="M 72.640625 -166.546875 L 72.640625 -40.15625 L 89.46875 -40.15625 C 91.238281 -40.15625 92.710938 -39.613281 93.890625 -38.53125 C 95.078125 -37.445312 95.671875 -36.316406 95.671875 -35.140625 L 95.671875 -5.015625 C 95.671875 -3.835938 95.078125 -2.707031 93.890625 -1.625 C 92.710938 -0.539062 91.238281 0 89.46875 0 L 10.328125 0 C 8.554688 0 7.082031 -0.539062 5.90625 -1.625 C 4.726562 -2.707031 4.140625 -3.835938 4.140625 -5.015625 L 4.140625 -35.140625 C 4.140625 -36.316406 4.726562 -37.445312 5.90625 -38.53125 C 7.082031 -39.613281 8.554688 -40.15625 10.328125 -40.15625 L 27.46875 -40.15625 L 27.46875 -166.546875 L 11.515625 -166.546875 C 9.742188 -166.546875 8.265625 -167.085938 7.078125 -168.171875 C 5.898438 -169.253906 5.3125 -170.382812 5.3125 -171.5625 L 5.3125 -201.390625 C 5.3125 -202.765625 5.898438 -203.992188 7.078125 -205.078125 C 8.265625 -206.160156 9.742188 -206.703125 11.515625 -206.703125 L 88.296875 -206.703125 C 90.265625 -206.703125 91.789062 -206.160156 92.875 -205.078125 C 93.957031 -203.992188 94.5 -202.765625 94.5 -201.390625 L 94.5 -171.5625 C 94.5 -170.382812 93.957031 -169.253906 92.875 -168.171875 C 91.789062 -167.085938 90.265625 -166.546875 88.296875 -166.546875 Z M 72.640625 -166.546875 "/></g></g></g><g fill="#f7f7f7" fill-opacity="1"><g transform="translate(889.865548, 225.571961)"><g><path d="M 78.546875 2.953125 C 66.140625 2.554688 54.816406 -0.0507812 44.578125 -4.875 C 34.347656 -9.695312 26.226562 -16.679688 20.21875 -25.828125 C 14.21875 -34.984375 11.117188 -46.160156 10.921875 -59.359375 C 10.921875 -60.734375 11.507812 -61.960938 12.6875 -63.046875 C 13.875 -64.128906 15.351562 -64.671875 17.125 -64.671875 L 49.90625 -64.671875 C 51.476562 -64.671875 52.90625 -64.128906 54.1875 -63.046875 C 55.46875 -61.960938 56.109375 -60.734375 56.109375 -59.359375 C 56.503906 -53.054688 58.914062 -48.28125 63.34375 -45.03125 C 67.769531 -41.78125 72.835938 -40.15625 78.546875 -40.15625 C 84.648438 -40.15625 89.914062 -41.976562 94.34375 -45.625 C 98.769531 -49.269531 100.984375 -54.140625 100.984375 -60.234375 C 100.984375 -66.929688 98.523438 -72.195312 93.609375 -76.03125 C 88.691406 -79.875 83.671875 -81.992188 78.546875 -82.390625 C 77.765625 -82.390625 74.171875 -82.679688 67.765625 -83.265625 C 61.367188 -83.859375 54.234375 -85.925781 46.359375 -89.46875 C 35.140625 -94.789062 26.425781 -102.125 20.21875 -111.46875 C 14.019531 -120.820312 10.921875 -131.800781 10.921875 -144.40625 C 10.921875 -157.988281 14.171875 -169.648438 20.671875 -179.390625 C 27.171875 -189.140625 35.585938 -196.617188 45.921875 -201.828125 C 56.253906 -207.046875 67.128906 -209.65625 78.546875 -209.65625 C 90.953125 -209.65625 102.171875 -207.046875 112.203125 -201.828125 C 122.242188 -196.617188 130.265625 -189.382812 136.265625 -180.125 C 142.273438 -170.875 145.378906 -160.144531 145.578125 -147.9375 C 145.578125 -146.957031 144.984375 -145.875 143.796875 -144.6875 C 142.617188 -143.507812 141.046875 -142.921875 139.078125 -142.921875 L 106.890625 -142.921875 C 105.316406 -142.921875 103.84375 -143.507812 102.46875 -144.6875 C 101.09375 -145.875 100.40625 -146.957031 100.40625 -147.9375 C 100.207031 -154.238281 97.941406 -158.914062 93.609375 -161.96875 C 89.273438 -165.019531 84.253906 -166.546875 78.546875 -166.546875 C 72.441406 -166.546875 67.175781 -164.722656 62.75 -161.078125 C 58.320312 -157.441406 56.109375 -151.882812 56.109375 -144.40625 C 56.109375 -137.90625 58.421875 -132.976562 63.046875 -129.625 C 67.671875 -126.28125 72.835938 -124.609375 78.546875 -124.609375 C 79.335938 -124.609375 82.976562 -124.3125 89.46875 -123.71875 C 95.96875 -123.132812 102.957031 -121.070312 110.4375 -117.53125 C 122.050781 -112.21875 130.910156 -104.539062 137.015625 -94.5 C 143.117188 -84.457031 146.171875 -73.035156 146.171875 -60.234375 C 146.171875 -46.847656 142.972656 -35.429688 136.578125 -25.984375 C 130.179688 -16.535156 121.8125 -9.347656 111.46875 -4.421875 C 101.132812 0.492188 90.160156 2.953125 78.546875 2.953125 Z M 78.546875 2.953125 "/></g></g></g></g></g></svg>