<svg xmlns="http://www.w3.org/2000/svg" xmlns:xlink="http://www.w3.org/1999/xlink" width="2000" zoomAndPan="magnify" viewBox="0 0 1500 1499.999933" height="2000" preserveAspectRatio="xMidYMid meet" version="1.0"><defs><g/><clipPath id="21f24045d3"><path d="M 0 959.648438 L 1500 959.648438 L 1500 1306.503906 L 0 1306.503906 Z M 0 959.648438 " clip-rule="nonzero"/></clipPath><clipPath id="0265c22682"><path d="M 0 0.648438 L 1500 0.648438 L 1500 347.503906 L 0 347.503906 Z M 0 0.648438 " clip-rule="nonzero"/></clipPath><clipPath id="d1a80a5d40"><rect x="0" width="1500" y="0" height="348"/></clipPath><clipPath id="37ea727bf8"><rect x="0" width="1201" y="0" height="297"/></clipPath><clipPath id="3944364bbb"><path d="M 125 190.335938 L 1375 190.335938 L 1375 897.585938 L 125 897.585938 Z M 125 190.335938 " clip-rule="nonzero"/></clipPath></defs><rect x="-150" width="1800" fill="#ffffff" y="-149.999993" height="1799.99992" fill-opacity="1"/><rect x="-150" width="1800" fill="#f8fbfd" y="-149.999993" height="1799.99992" fill-opacity="1"/><g clip-path="url(#21f24045d3)"><g transform="matrix(1, 0, 0, 1, 0, 959)"><g clip-path="url(#d1a80a5d40)"><g clip-path="url(#0265c22682)"><path fill="#f78796" d="M 0 0.648438 L 1499.882812 0.648438 L 1499.882812 347.503906 L 0 347.503906 Z M 0 0.648438 " fill-opacity="1" fill-rule="nonzero"/></g></g></g></g><g transform="matrix(1, 0, 0, 1, 120, 991)"><g clip-path="url(#37ea727bf8)"><g fill="#000000" fill-opacity="1"><g transform="translate(8.390626, 236.996121)"><g><path d="M 331.375 0 L 247.5 0 L 228.9375 -32.3125 L 104.5 -32.3125 L 85.9375 0 L 2.0625 0 L 128.28125 -197.171875 L 205.140625 -197.171875 Z M 201.015625 -81.125 L 166.78125 -140.9375 L 132.40625 -81.125 Z M 201.015625 -81.125 "/></g></g></g><g fill="#000000" fill-opacity="1"><g transform="translate(318.14104, 236.996121)"><g><path d="M 259.59375 0 L 22 0 L 22 -197.3125 L 248.734375 -197.3125 L 248.734375 -148.5 L 104.765625 -148.5 L 104.765625 -117.5625 L 226.453125 -117.5625 L 226.453125 -79.609375 L 104.765625 -79.609375 L 104.765625 -48.8125 L 259.59375 -48.8125 Z M 259.59375 0 "/></g></g></g><g fill="#000000" fill-opacity="1"><g transform="translate(565.059799, 236.996121)"><g><path d="M 149.1875 4.265625 C 100.414062 4.265625 64.53125 -5.769531 41.53125 -25.84375 C 21.175781 -43.632812 11 -67.835938 11 -98.453125 C 11 -129.160156 21.175781 -153.40625 41.53125 -171.1875 C 64.53125 -191.257812 100.414062 -201.296875 149.1875 -201.296875 C 176.957031 -201.296875 200.054688 -198.175781 218.484375 -191.9375 C 236.910156 -185.707031 251.367188 -177.207031 261.859375 -166.4375 C 272.359375 -155.664062 279.53125 -143.269531 283.375 -129.25 L 194.828125 -129.25 C 185.578125 -141.988281 170.363281 -148.359375 149.1875 -148.359375 C 129.195312 -148.359375 114.484375 -142.628906 105.046875 -131.171875 C 97.523438 -121.910156 93.765625 -111.003906 93.765625 -98.453125 C 93.765625 -85.890625 97.523438 -75.023438 105.046875 -65.859375 C 114.484375 -54.398438 129.195312 -48.671875 149.1875 -48.671875 C 165.320312 -48.671875 177.441406 -50.066406 185.546875 -52.859375 C 193.660156 -55.660156 199.597656 -59.304688 203.359375 -63.796875 L 171.046875 -63.796875 L 171.046875 -98.453125 L 283.375 -98.453125 L 283.375 0.140625 L 249 0.140625 L 242 -18.96875 C 220.09375 -3.476562 189.15625 4.265625 149.1875 4.265625 Z M 149.1875 4.265625 "/></g></g></g><g fill="#000000" fill-opacity="1"><g transform="translate(841.263367, 236.996121)"><g><path d="M 104.765625 0 L 22 0 L 22 -197.3125 L 104.765625 -197.3125 Z M 104.765625 0 "/></g></g></g><g fill="#000000" fill-opacity="1"><g transform="translate(944.370668, 236.996121)"><g><path d="M 130.34375 4.265625 C 103.664062 4.265625 82.171875 1.398438 65.859375 -4.328125 C 49.546875 -10.054688 37.125 -17.9375 28.59375 -27.96875 C 20.070312 -38.007812 14.34375 -49.585938 11.40625 -62.703125 L 99.265625 -62.703125 C 105.773438 -53.347656 116.132812 -48.671875 130.34375 -48.671875 C 144.550781 -48.671875 154.910156 -53.347656 161.421875 -62.703125 C 161.972656 -63.617188 162.25 -64.441406 162.25 -65.171875 C 162.25 -67.648438 158.96875 -69.503906 152.40625 -70.734375 C 145.851562 -71.972656 136.070312 -72.914062 123.0625 -73.5625 C 106.65625 -74.289062 89.421875 -76.03125 71.359375 -78.78125 C 31.117188 -85.019531 11 -101.203125 11 -127.328125 C 11 -129.523438 11.132812 -131.859375 11.40625 -134.328125 C 14.34375 -147.441406 20.070312 -159.015625 28.59375 -169.046875 C 37.125 -179.085938 49.546875 -186.972656 65.859375 -192.703125 C 82.171875 -198.429688 103.664062 -201.296875 130.34375 -201.296875 C 157.019531 -201.296875 178.515625 -198.429688 194.828125 -192.703125 C 211.148438 -186.972656 223.570312 -179.085938 232.09375 -169.046875 C 240.613281 -159.015625 246.34375 -147.441406 249.28125 -134.328125 L 161.421875 -134.328125 C 154.910156 -143.679688 144.550781 -148.359375 130.34375 -148.359375 C 116.132812 -148.359375 105.773438 -143.679688 99.265625 -134.328125 C 98.804688 -133.597656 98.578125 -132.910156 98.578125 -132.265625 C 98.578125 -130.066406 101.71875 -128.441406 108 -127.390625 C 114.28125 -126.335938 123.539062 -125.441406 135.78125 -124.703125 C 148.019531 -123.972656 161.054688 -122.78125 174.890625 -121.125 C 188.734375 -119.476562 201.679688 -116.613281 213.734375 -112.53125 C 225.785156 -108.457031 235.207031 -102.429688 242 -94.453125 C 247.3125 -88.316406 249.96875 -80.523438 249.96875 -71.078125 C 249.96875 -68.421875 249.738281 -65.628906 249.28125 -62.703125 C 246.34375 -49.585938 240.613281 -38.007812 232.09375 -27.96875 C 223.570312 -17.9375 211.148438 -10.054688 194.828125 -4.328125 C 178.515625 1.398438 157.019531 4.265625 130.34375 4.265625 Z M 130.34375 4.265625 "/></g></g></g></g></g><g clip-path="url(#3944364bbb)"><path fill="#000000" d="M 750 897.585938 C 750 703.117188 1029.167969 545.011719 1374.179688 543.960938 C 1029.167969 542.90625 750 384.800781 750 190.335938 C 750 384.800781 470.832031 542.90625 125.820312 543.960938 C 470.832031 545.011719 750 703.117188 750 897.585938 Z M 750 897.585938 " fill-opacity="1" fill-rule="nonzero"/></g><path fill="#000000" d="M 1452.132812 592.972656 C 1450.632812 592.972656 1449.136719 592.898438 1447.644531 592.75 C 1446.148438 592.605469 1444.667969 592.382812 1443.195312 592.089844 C 1441.722656 591.796875 1440.269531 591.433594 1438.832031 590.996094 C 1437.394531 590.5625 1435.984375 590.054688 1434.597656 589.480469 C 1433.210938 588.90625 1431.855469 588.265625 1430.53125 587.558594 C 1429.207031 586.851562 1427.921875 586.078125 1426.675781 585.246094 C 1425.425781 584.410156 1424.222656 583.515625 1423.0625 582.5625 C 1421.902344 581.613281 1420.792969 580.605469 1419.730469 579.542969 C 1418.667969 578.480469 1417.664062 577.371094 1416.710938 576.207031 C 1415.757812 575.046875 1414.867188 573.84375 1414.03125 572.59375 C 1413.199219 571.347656 1412.425781 570.058594 1411.71875 568.734375 C 1411.011719 567.410156 1410.371094 566.054688 1409.796875 564.667969 C 1409.222656 563.28125 1408.71875 561.867188 1408.28125 560.429688 C 1407.847656 558.996094 1407.480469 557.539062 1407.1875 556.066406 C 1406.894531 554.59375 1406.675781 553.109375 1406.527344 551.617188 C 1406.382812 550.121094 1406.308594 548.625 1406.308594 547.121094 C 1406.308594 545.621094 1406.382812 544.121094 1406.527344 542.628906 C 1406.675781 541.132812 1406.894531 539.648438 1407.1875 538.175781 C 1407.480469 536.703125 1407.847656 535.25 1408.28125 533.8125 C 1408.71875 532.375 1409.222656 530.964844 1409.796875 529.574219 C 1410.371094 528.1875 1411.011719 526.832031 1411.71875 525.507812 C 1412.425781 524.183594 1413.199219 522.898438 1414.03125 521.648438 C 1414.867188 520.398438 1415.757812 519.195312 1416.710938 518.035156 C 1417.664062 516.875 1418.667969 515.761719 1419.730469 514.699219 C 1420.792969 513.640625 1421.902344 512.632812 1423.0625 511.679688 C 1424.222656 510.726562 1425.425781 509.832031 1426.675781 509 C 1427.921875 508.164062 1429.207031 507.394531 1430.53125 506.683594 C 1431.855469 505.976562 1433.210938 505.335938 1434.597656 504.761719 C 1435.984375 504.1875 1437.394531 503.683594 1438.832031 503.246094 C 1440.269531 502.808594 1441.722656 502.445312 1443.195312 502.152344 C 1444.667969 501.859375 1446.148438 501.640625 1447.644531 501.492188 C 1449.136719 501.34375 1450.632812 501.273438 1452.132812 501.273438 C 1453.636719 501.273438 1455.132812 501.34375 1456.625 501.492188 C 1458.121094 501.640625 1459.601562 501.859375 1461.074219 502.152344 C 1462.546875 502.445312 1464 502.808594 1465.4375 503.246094 C 1466.875 503.683594 1468.285156 504.1875 1469.671875 504.761719 C 1471.058594 505.335938 1472.414062 505.976562 1473.738281 506.683594 C 1475.058594 507.394531 1476.347656 508.164062 1477.59375 509 C 1478.839844 509.832031 1480.046875 510.726562 1481.207031 511.679688 C 1482.367188 512.632812 1483.476562 513.640625 1484.539062 514.699219 C 1485.597656 515.761719 1486.605469 516.875 1487.558594 518.035156 C 1488.511719 519.195312 1489.402344 520.398438 1490.238281 521.648438 C 1491.070312 522.898438 1491.839844 524.183594 1492.550781 525.507812 C 1493.257812 526.832031 1493.898438 528.1875 1494.472656 529.574219 C 1495.046875 530.964844 1495.550781 532.375 1495.988281 533.8125 C 1496.421875 535.25 1496.785156 536.703125 1497.078125 538.175781 C 1497.371094 539.648438 1497.59375 541.132812 1497.738281 542.628906 C 1497.886719 544.121094 1497.960938 545.621094 1497.960938 547.121094 C 1497.960938 548.625 1497.886719 550.121094 1497.738281 551.617188 C 1497.59375 553.109375 1497.371094 554.59375 1497.078125 556.066406 C 1496.785156 557.539062 1496.421875 558.996094 1495.988281 560.429688 C 1495.550781 561.867188 1495.046875 563.28125 1494.472656 564.667969 C 1493.898438 566.054688 1493.257812 567.410156 1492.550781 568.734375 C 1491.839844 570.058594 1491.070312 571.347656 1490.238281 572.59375 C 1489.402344 573.84375 1488.511719 575.046875 1487.558594 576.207031 C 1486.605469 577.371094 1485.597656 578.480469 1484.539062 579.542969 C 1483.476562 580.605469 1482.367188 581.613281 1481.207031 582.5625 C 1480.046875 583.515625 1478.839844 584.410156 1477.59375 585.246094 C 1476.347656 586.078125 1475.058594 586.851562 1473.738281 587.558594 C 1472.414062 588.265625 1471.058594 588.90625 1469.671875 589.480469 C 1468.285156 590.054688 1466.875 590.5625 1465.4375 590.996094 C 1464 591.433594 1462.546875 591.796875 1461.074219 592.089844 C 1459.601562 592.382812 1458.121094 592.605469 1456.625 592.75 C 1455.132812 592.898438 1453.636719 592.972656 1452.132812 592.972656 Z M 1452.132812 592.972656 " fill-opacity="1" fill-rule="nonzero"/><path fill="#000000" d="M 47.867188 592.972656 C 46.363281 592.972656 44.867188 592.898438 43.375 592.75 C 41.878906 592.605469 40.398438 592.382812 38.925781 592.089844 C 37.453125 591.796875 36 591.433594 34.5625 590.996094 C 33.128906 590.5625 31.714844 590.054688 30.328125 589.480469 C 28.941406 588.90625 27.585938 588.265625 26.261719 587.558594 C 24.941406 586.851562 23.65625 586.078125 22.40625 585.246094 C 21.160156 584.410156 19.953125 583.515625 18.792969 582.5625 C 17.632812 581.613281 16.523438 580.605469 15.460938 579.542969 C 14.402344 578.480469 13.394531 577.371094 12.441406 576.207031 C 11.488281 575.046875 10.597656 573.84375 9.761719 572.59375 C 8.929688 571.347656 8.160156 570.058594 7.453125 568.734375 C 6.742188 567.410156 6.101562 566.054688 5.527344 564.667969 C 4.953125 563.28125 4.449219 561.867188 4.011719 560.429688 C 3.578125 558.996094 3.214844 557.539062 2.921875 556.066406 C 2.628906 554.59375 2.40625 553.109375 2.261719 551.617188 C 2.113281 550.121094 2.039062 548.625 2.039062 547.121094 C 2.039062 545.621094 2.113281 544.121094 2.261719 542.628906 C 2.40625 541.132812 2.628906 539.648438 2.921875 538.175781 C 3.214844 536.703125 3.578125 535.25 4.011719 533.8125 C 4.449219 532.375 4.953125 530.964844 5.527344 529.574219 C 6.101562 528.1875 6.742188 526.832031 7.453125 525.507812 C 8.160156 524.183594 8.929688 522.898438 9.761719 521.648438 C 10.597656 520.398438 11.488281 519.195312 12.441406 518.035156 C 13.394531 516.875 14.402344 515.761719 15.460938 514.699219 C 16.523438 513.640625 17.632812 512.632812 18.792969 511.679688 C 19.953125 510.726562 21.160156 509.832031 22.40625 509 C 23.65625 508.164062 24.941406 507.394531 26.265625 506.683594 C 27.585938 505.976562 28.941406 505.335938 30.328125 504.761719 C 31.714844 504.1875 33.128906 503.683594 34.5625 503.246094 C 36 502.808594 37.453125 502.445312 38.925781 502.152344 C 40.398438 501.859375 41.878906 501.640625 43.375 501.492188 C 44.867188 501.34375 46.363281 501.273438 47.867188 501.273438 C 49.367188 501.273438 50.863281 501.34375 52.355469 501.492188 C 53.851562 501.640625 55.335938 501.859375 56.804688 502.152344 C 58.277344 502.445312 59.730469 502.808594 61.167969 503.246094 C 62.605469 503.683594 64.015625 504.1875 65.402344 504.761719 C 66.789062 505.335938 68.144531 505.976562 69.46875 506.683594 C 70.792969 507.394531 72.078125 508.164062 73.324219 509 C 74.574219 509.832031 75.777344 510.726562 76.9375 511.679688 C 78.097656 512.632812 79.207031 513.640625 80.269531 514.699219 C 81.332031 515.761719 82.335938 516.875 83.289062 518.035156 C 84.242188 519.195312 85.132812 520.398438 85.96875 521.648438 C 86.800781 522.898438 87.574219 524.183594 88.28125 525.507812 C 88.988281 526.832031 89.628906 528.1875 90.203125 529.574219 C 90.777344 530.964844 91.28125 532.375 91.71875 533.8125 C 92.152344 535.25 92.519531 536.703125 92.8125 538.175781 C 93.105469 539.648438 93.324219 541.132812 93.472656 542.628906 C 93.617188 544.121094 93.691406 545.621094 93.691406 547.121094 C 93.691406 548.625 93.617188 550.121094 93.472656 551.617188 C 93.324219 553.109375 93.105469 554.59375 92.8125 556.066406 C 92.519531 557.539062 92.152344 558.996094 91.71875 560.429688 C 91.28125 561.867188 90.777344 563.28125 90.203125 564.667969 C 89.628906 566.054688 88.988281 567.410156 88.28125 568.734375 C 87.574219 570.058594 86.800781 571.347656 85.96875 572.59375 C 85.132812 573.84375 84.242188 575.046875 83.289062 576.207031 C 82.335938 577.371094 81.332031 578.480469 80.269531 579.542969 C 79.207031 580.605469 78.097656 581.613281 76.9375 582.5625 C 75.777344 583.515625 74.574219 584.410156 73.324219 585.246094 C 72.078125 586.078125 70.792969 586.851562 69.46875 587.558594 C 68.144531 588.265625 66.789062 588.90625 65.402344 589.480469 C 64.015625 590.054688 62.605469 590.5625 61.167969 590.996094 C 59.730469 591.433594 58.277344 591.796875 56.804688 592.089844 C 55.335938 592.382812 53.851562 592.605469 52.355469 592.75 C 50.863281 592.898438 49.367188 592.972656 47.867188 592.972656 Z M 47.867188 592.972656 " fill-opacity="1" fill-rule="nonzero"/></svg>