<?xml version="1.0" encoding="UTF-8"?>
<svg version="1.1" xmlns="http://www.w3.org/2000/svg" width="100" height="100">
<path d="M0 0 C1.12599609 -0.03738281 2.25199219 -0.07476563 3.41210938 -0.11328125 C16.48589784 -0.24860511 26.81684601 4.84567571 36.5625 13.375 C39.63825925 16.48807349 42.14539126 19.73090578 44.5625 23.375 C45.16449219 24.22578125 45.76648438 25.0765625 46.38671875 25.953125 C50.91989561 33.68805615 51.15435841 41.12472497 51.25 49.9375 C51.26933594 51.0730835 51.28867188 52.20866699 51.30859375 53.37866211 C51.13736924 65.70771842 46.70690137 75.26312114 38.5625 84.375 C38.01722656 85.00148438 37.47195312 85.62796875 36.91015625 86.2734375 C29.30862105 94.46520956 18.97800935 100.28342098 7.734375 100.84375 C5.59399636 100.87785566 3.45311395 100.88748265 1.3125 100.875 C0.19875 100.87000488 -0.915 100.86500977 -2.0625 100.85986328 C-10.26502054 100.68536717 -16.3876916 99.79863805 -23.4375 95.375 C-24.23671875 94.91738281 -25.0359375 94.45976563 -25.859375 93.98828125 C-37.04266212 87.13945608 -46.29174557 76.3124689 -49.4375 63.375 C-49.79930124 59.16432987 -49.85342183 54.97452557 -49.875 50.75 C-49.90787109 49.63753906 -49.94074219 48.52507813 -49.97460938 47.37890625 C-50.0576659 34.40698672 -44.90741134 24.03367083 -36.4375 14.375 C-25.78499004 4.00561323 -14.5302965 0.17749391 0 0 Z " fill="#232121" transform="translate(49.4375,-0.37499999999999994)"/>
<path d="M0 0 C11.057697 7.34730697 18.73956504 17.63235354 22.15234375 30.52734375 C24.59874158 44.94289459 21.67928578 57.84226079 13.4921875 69.859375 C6.3086856 79.2971139 6.3086856 79.2971139 0.625 80.3125 C0.625 79.6525 0.625 78.9925 0.625 78.3125 C1.285 78.3125 1.945 78.3125 2.625 78.3125 C1.8 77.52875 0.975 76.745 0.125 75.9375 C-2.375 73.3125 -2.375 73.3125 -2.375 71.3125 C-3.86 71.8075 -3.86 71.8075 -5.375 72.3125 C-5.705 73.4675 -6.035 74.6225 -6.375 75.8125 C-6.705 76.9675 -7.035 78.1225 -7.375 79.3125 C-8.86 79.8075 -8.86 79.8075 -10.375 80.3125 C-10.705 78.6625 -11.035 77.0125 -11.375 75.3125 C-12.035 75.3125 -12.695 75.3125 -13.375 75.3125 C-13.375 76.6325 -13.375 77.9525 -13.375 79.3125 C-14.365 79.3125 -15.355 79.3125 -16.375 79.3125 C-16.375 78.6525 -16.375 77.9925 -16.375 77.3125 C-17.035 77.3125 -17.695 77.3125 -18.375 77.3125 C-17.715 78.9625 -17.055 80.6125 -16.375 82.3125 C-14.395 81.8175 -14.395 81.8175 -12.375 81.3125 C-12.045 82.3025 -11.715 83.2925 -11.375 84.3125 C-10.385 84.3125 -9.395 84.3125 -8.375 84.3125 C-8.045 83.6525 -7.715 82.9925 -7.375 82.3125 C-6.715 82.9725 -6.055 83.6325 -5.375 84.3125 C-11.51391871 87.88884255 -15.82900631 88.86086455 -22.875 88.5625 C-23.69742188 88.54445313 -24.51984375 88.52640625 -25.3671875 88.5078125 C-27.37030804 88.4612283 -29.37281821 88.38950699 -31.375 88.3125 C-31.375 87.6525 -31.375 86.9925 -31.375 86.3125 C-32.138125 86.51875 -32.90125 86.725 -33.6875 86.9375 C-36.375 87.3125 -36.375 87.3125 -39.375 85.3125 C-38.6325 85.415625 -37.89 85.51875 -37.125 85.625 C-34.12427133 85.5870414 -34.12427133 85.5870414 -32.0625 82.8125 C-31.505625 81.9875 -30.94875 81.1625 -30.375 80.3125 C-30.375 81.9625 -30.375 83.6125 -30.375 85.3125 C-28.065 85.3125 -25.755 85.3125 -23.375 85.3125 C-23.045 84.6525 -22.715 83.9925 -22.375 83.3125 C-24.355 83.8075 -24.355 83.8075 -26.375 84.3125 C-26.705 82.9925 -27.035 81.6725 -27.375 80.3125 C-26.385 79.9825 -25.395 79.6525 -24.375 79.3125 C-23.385 79.8075 -23.385 79.8075 -22.375 80.3125 C-22.705 79.6525 -23.035 78.9925 -23.375 78.3125 C-25.355 78.3125 -27.335 78.3125 -29.375 78.3125 C-29.375 77.6525 -29.375 76.9925 -29.375 76.3125 C-30.035 76.3125 -30.695 76.3125 -31.375 76.3125 C-31.705 76.9725 -32.035 77.6325 -32.375 78.3125 C-32.375 77.3225 -32.375 76.3325 -32.375 75.3125 C-31.63636719 75.28671875 -30.89773437 75.2609375 -30.13671875 75.234375 C-19.09200361 74.6168814 -8.83444879 71.76604942 -0.375 64.3125 C5.65858912 57.07747409 9.19636819 49.38795654 9.0625 39.9375 C9.05492676 39.18799072 9.04735352 38.43848145 9.03955078 37.66625977 C8.86514497 31.80456946 7.87688305 27.27643363 4.625 22.3125 C3.98884766 21.27222656 3.98884766 21.27222656 3.33984375 20.2109375 C-1.42535128 13.12287581 -8.11583778 8.47514793 -16.375 6.3125 C-26.62760115 5.16218488 -36.79068948 5.00839696 -45.375 11.3125 C-46.014375 11.7353125 -46.65375 12.158125 -47.3125 12.59375 C-53.36034119 17.07749433 -58.15327734 24.84489183 -59.375 32.3125 C-59.49420787 34.76873666 -59.55022906 37.22840292 -59.5625 39.6875 C-59.58376953 41.61722656 -59.58376953 41.61722656 -59.60546875 43.5859375 C-59.27117921 48.99122945 -57.77538941 53.06952143 -54.8125 57.5625 C-53.56964783 59.46550213 -52.39175139 61.27899723 -51.375 63.3125 C-58.125 67.3125 -58.125 67.3125 -60.375 67.3125 C-60.375 68.3025 -60.375 69.2925 -60.375 70.3125 C-58.89 69.8175 -58.89 69.8175 -57.375 69.3125 C-57.375 70.6325 -57.375 71.9525 -57.375 73.3125 C-56.385 73.6425 -55.395 73.9725 -54.375 74.3125 C-54.375 75.6325 -54.375 76.9525 -54.375 78.3125 C-61.71210719 75.35103723 -66.8860807 66.96563741 -70.4375 60.1875 C-74.74282168 48.57525913 -74.91990809 32.47700479 -69.74682617 21.15136719 C-62.91074783 8.07474809 -53.35020563 0.05026136 -39.375 -4.6875 C-38.26125 -5.1 -37.1475 -5.5125 -36 -5.9375 C-23.75261203 -8.47144234 -10.90906768 -6.08129705 0 0 Z M-33.375 78.3125 C-32.375 82.3125 -32.375 82.3125 -32.375 82.3125 Z " fill="#262424" transform="translate(75.375,8.6875)"/>
<path d="M0 0 C1.12599609 -0.03738281 2.25199219 -0.07476563 3.41210938 -0.11328125 C16.48589784 -0.24860511 26.81684601 4.84567571 36.5625 13.375 C39.63825925 16.48807349 42.14539126 19.73090578 44.5625 23.375 C45.16449219 24.22578125 45.76648438 25.0765625 46.38671875 25.953125 C50.91989561 33.68805615 51.15435841 41.12472497 51.25 49.9375 C51.26933594 51.0730835 51.28867188 52.20866699 51.30859375 53.37866211 C51.13736924 65.70771842 46.70690137 75.26312114 38.5625 84.375 C38.01722656 85.00148438 37.47195312 85.62796875 36.91015625 86.2734375 C29.30862105 94.46520956 18.97800935 100.28342098 7.734375 100.84375 C5.59399636 100.87785566 3.45311395 100.88748265 1.3125 100.875 C0.19875 100.87000488 -0.915 100.86500977 -2.0625 100.85986328 C-10.26502054 100.68536717 -16.3876916 99.79863805 -23.4375 95.375 C-24.23671875 94.91738281 -25.0359375 94.45976563 -25.859375 93.98828125 C-37.04266212 87.13945608 -46.29174557 76.3124689 -49.4375 63.375 C-49.79930124 59.16432987 -49.85342183 54.97452557 -49.875 50.75 C-49.90787109 49.63753906 -49.94074219 48.52507813 -49.97460938 47.37890625 C-50.0576659 34.40698672 -44.90741134 24.03367083 -36.4375 14.375 C-25.78499004 4.00561323 -14.5302965 0.17749391 0 0 Z M-36.95703125 19.30078125 C-43.7862644 29.03459964 -47.32692696 37.85747334 -47.0625 49.8125 C-47.04630615 50.91416504 -47.0301123 52.01583008 -47.01342773 53.15087891 C-46.59084476 66.61559132 -42.0114899 75.81813709 -32.4375 85.375 C-30.29714234 86.66987071 -30.29714234 86.66987071 -28.4375 87.375 C-28.4375 86.055 -28.4375 84.735 -28.4375 83.375 C-29.9225 82.88 -29.9225 82.88 -31.4375 82.375 C-32.125 80.3125 -32.125 80.3125 -32.4375 78.375 C-33.4275 78.87 -33.4275 78.87 -34.4375 79.375 C-34.4375 78.385 -34.4375 77.395 -34.4375 76.375 C-33.32375 75.9728125 -33.32375 75.9728125 -32.1875 75.5625 C-29.57113446 74.43270579 -27.63562889 73.16606798 -25.4375 71.375 C-26.035625 70.653125 -26.63375 69.93125 -27.25 69.1875 C-33.98754132 60.52494687 -34.21748645 52.0531243 -33.4375 41.375 C-31.09416255 31.3589062 -25.22699317 24.0535001 -16.68359375 18.6015625 C-8.06022679 13.89245428 2.96477731 13.90590708 12.4921875 16.02734375 C14.72877488 16.95461218 16.57083613 18.00115839 18.5625 19.375 C19.72652344 20.12136719 19.72652344 20.12136719 20.9140625 20.8828125 C26.57199112 24.84520551 29.79506268 29.08435934 32.5625 35.375 C33.10583984 36.49841797 33.10583984 36.49841797 33.66015625 37.64453125 C36.43973934 46.05547748 35.68390371 56.25510104 31.8125 64.125 C26.38030567 73.72736371 19.28392539 78.73444002 9.0625 82.75 C3.92407216 83.6675764 -1.23144048 84.05015556 -6.4375 84.375 C-6.1075 85.365 -5.7775 86.355 -5.4375 87.375 C-5.4375 86.715 -5.4375 86.055 -5.4375 85.375 C-4.7775 85.375 -4.1175 85.375 -3.4375 85.375 C-3.4375 86.035 -3.4375 86.695 -3.4375 87.375 C-1.4575 87.375 0.5225 87.375 2.5625 87.375 C2.8925 88.035 3.2225 88.695 3.5625 89.375 C2.2425 89.045 0.9225 88.715 -0.4375 88.375 C-0.9325 90.355 -0.9325 90.355 -1.4375 92.375 C-0.4475 92.705 0.5425 93.035 1.5625 93.375 C2.2225 93.045 2.8825 92.715 3.5625 92.375 C3.2325 93.035 2.9025 93.695 2.5625 94.375 C0.2525 94.375 -2.0575 94.375 -4.4375 94.375 C-4.4375 92.725 -4.4375 91.075 -4.4375 89.375 C-5.18 90.179375 -5.9225 90.98375 -6.6875 91.8125 C-9.19054829 94.14488591 -10.1555955 95.01034394 -13.4375 95.375 C-9.33526415 96.39040112 -9.33526415 96.39040112 -5.4375 95.375 C-5.4375 96.035 -5.4375 96.695 -5.4375 97.375 C-2.60310863 97.48401505 0.22700203 97.56277904 3.0625 97.625 C3.85398438 97.65851563 4.64546875 97.69203125 5.4609375 97.7265625 C11.55922294 97.82653439 15.2942737 96.44410431 20.5625 93.375 C19.0775 92.385 19.0775 92.385 17.5625 91.375 C17.5625 92.035 17.5625 92.695 17.5625 93.375 C16.5725 93.375 15.5825 93.375 14.5625 93.375 C14.2325 92.385 13.9025 91.395 13.5625 90.375 C11.5825 90.87 11.5825 90.87 9.5625 91.375 C8.9025 89.725 8.2425 88.075 7.5625 86.375 C8.2225 86.375 8.8825 86.375 9.5625 86.375 C9.5625 87.035 9.5625 87.695 9.5625 88.375 C10.5525 88.375 11.5425 88.375 12.5625 88.375 C12.5625 87.055 12.5625 85.735 12.5625 84.375 C13.2225 84.375 13.8825 84.375 14.5625 84.375 C14.8925 86.025 15.2225 87.675 15.5625 89.375 C16.5525 89.045 17.5425 88.715 18.5625 88.375 C18.8925 87.22 19.2225 86.065 19.5625 84.875 C19.8925 83.72 20.2225 82.565 20.5625 81.375 C21.5525 81.045 22.5425 80.715 23.5625 80.375 C23.8925 81.365 24.2225 82.355 24.5625 83.375 C25.85605827 84.74695574 27.18548702 86.08682656 28.5625 87.375 C27.9025 87.375 27.2425 87.375 26.5625 87.375 C26.5625 88.035 26.5625 88.695 26.5625 89.375 C34.46248912 86.8158486 39.70063845 79.53165606 43.4375 72.375 C44.17798256 70.7223659 44.88765191 69.05550407 45.5625 67.375 C45.88089844 66.60800781 46.19929688 65.84101562 46.52734375 65.05078125 C50.70587943 53.40094675 49.51331094 40.57256944 44.5625 29.375 C37.3327994 16.61565217 27.29927295 8.11232647 13.1875 4 C-4.61442435 -0.48055943 -25.1373953 4.3211398 -36.95703125 19.30078125 Z M-18.4375 21.375 C-19.15164062 21.8596875 -19.86578125 22.344375 -20.6015625 22.84375 C-26.89633561 27.65323956 -31.47581349 34.40265717 -32.75097656 42.32177734 C-33.76031941 52.88437269 -32.03121172 62.03293245 -25.5 70.5625 C-18.86134544 77.43924977 -11.23400838 81.59114734 -1.70776367 82.15649414 C8.34793041 82.2901491 16.23520009 80.06935339 23.9296875 73.2890625 C31.58895032 65.29312879 34.25754017 57.85014228 34.16967773 46.82641602 C33.73258586 37.44289052 30.02138242 30.34939197 23.25 23.875 C21.72141409 22.66423888 20.1597532 21.49361503 18.5625 20.375 C17.92054687 19.92125 17.27859375 19.4675 16.6171875 19 C6.38772273 13.22336107 -9.17065567 14.62294986 -18.4375 21.375 Z M-7.4375 87.375 C-6.4375 91.375 -6.4375 91.375 -6.4375 91.375 Z " fill="#C4C4C4" transform="translate(49.4375,-0.37499999999999994)"/>
<path d="M0 0 C1.9609375 1.109375 1.9609375 1.109375 3.875 2.4375 C4.65101562 2.95828125 5.42703125 3.4790625 6.2265625 4.015625 C13.36508249 9.1776818 19.12372334 15.54844424 20.875 24.4375 C21.99869673 35.5620976 21.22337173 43.86140192 14.875 53.4375 C13.823125 55.0771875 13.823125 55.0771875 12.75 56.75 C2.70264375 66.14209389 -7.76280507 68.83244172 -21.125 68.4375 C-19.64 68.9325 -19.64 68.9325 -18.125 69.4375 C-18.125 70.0975 -18.125 70.7575 -18.125 71.4375 C-15.155 70.9425 -15.155 70.9425 -12.125 70.4375 C-11.795 71.4275 -11.465 72.4175 -11.125 73.4375 C-12.445 73.4375 -13.765 73.4375 -15.125 73.4375 C-15.125 74.4275 -15.125 75.4175 -15.125 76.4375 C-13.805 76.4375 -12.485 76.4375 -11.125 76.4375 C-11.62 77.9225 -11.62 77.9225 -12.125 79.4375 C-14.4681213 79.18188677 -16.80343403 78.84479228 -19.125 78.4375 C-19.62 77.4475 -19.62 77.4475 -20.125 76.4375 C-21.445 77.4275 -22.765 78.4175 -24.125 79.4375 C-22.805 79.4375 -21.485 79.4375 -20.125 79.4375 C-20.125 80.0975 -20.125 80.7575 -20.125 81.4375 C-15.835 81.4375 -11.545 81.4375 -7.125 81.4375 C-7.125 81.7675 -7.125 82.0975 -7.125 82.4375 C-19.55388301 83.10832427 -30.95643925 81.63581366 -41.3125 74.23046875 C-44.40356797 71.17270971 -45.82492778 67.52863635 -47.125 63.4375 C-47.785 63.4375 -48.445 63.4375 -49.125 63.4375 C-49.125 62.4475 -49.125 61.4575 -49.125 60.4375 C-47.375 59.05078125 -47.375 59.05078125 -45.125 57.75 C-44.3825 57.31300781 -43.64 56.87601563 -42.875 56.42578125 C-42.00875 55.93658203 -42.00875 55.93658203 -41.125 55.4375 C-41.723125 54.715625 -42.32125 53.99375 -42.9375 53.25 C-49.67504132 44.58744687 -49.90498645 36.1156243 -49.125 25.4375 C-46.66065632 14.904191 -40.33948741 7.82648829 -31.58984375 1.8828125 C-22.98240946 -3.16433597 -9.33015027 -3.86819397 0 0 Z M-33.125 5.4375 C-33.83914062 5.9221875 -34.55328125 6.406875 -35.2890625 6.90625 C-41.58383561 11.71573956 -46.16331349 18.46515717 -47.43847656 26.38427734 C-48.44781941 36.94687269 -46.71871172 46.09543245 -40.1875 54.625 C-33.54884544 61.50174977 -25.92150838 65.65364734 -16.39526367 66.21899414 C-6.33956959 66.3526491 1.54770009 64.13185339 9.2421875 57.3515625 C16.90145032 49.35562879 19.57004017 41.91264228 19.48217773 30.88891602 C19.04508586 21.50539052 15.33388242 14.41189197 8.5625 7.9375 C7.03391409 6.72673888 5.4722532 5.55611503 3.875 4.4375 C3.23304687 3.98375 2.59109375 3.53 1.9296875 3.0625 C-8.29977727 -2.71413893 -23.85815567 -1.31455014 -33.125 5.4375 Z M-22.125 71.4375 C-21.125 75.4375 -21.125 75.4375 -21.125 75.4375 Z " fill="#2F2D2D" transform="translate(64.125,15.5625)"/>
<path d="M0 0 C2.27024968 -0.08097324 4.54132075 -0.13917704 6.8125 -0.1875 C8.07707031 -0.22230469 9.34164062 -0.25710937 10.64453125 -0.29296875 C14 0 14 0 15.94921875 1.32421875 C17 3 17 3 17 6 C18.485 6.495 18.485 6.495 20 7 C20 8.65 20 10.3 20 12 C18.68 12.33 17.36 12.66 16 13 C16 13.66 16 14.32 16 15 C20.95 15 25.9 15 31 15 C30 20 30 20 27.91015625 21.80078125 C18.96620959 26.54880232 9.95130943 27.87059706 0 26 C-4.77858542 24.49437174 -9.14680689 22.20773437 -13 19 C-13.33 17.68 -13.66 16.36 -14 15 C-8.72 15 -3.44 15 2 15 C2 14.34 2 13.68 2 13 C0.68 12.67 -0.64 12.34 -2 12 C-1.0625 3.96428571 -1.0625 3.96428571 0 0 Z " fill="#211F1F" transform="translate(41,55)"/>
<path d="M0 0 C5.94 0 11.88 0 18 0 C18 0.66 18 1.32 18 2 C16.68 2.33 15.36 2.66 14 3 C14.6287597 7.82797627 16.00657418 12.16656023 17.75 16.6875 C18.01659424 17.38866943 18.28318848 18.08983887 18.55786133 18.81225586 C20.49516633 23.84533162 22.60728162 28.7743697 24.91015625 33.65234375 C25.90065914 35.78600768 26.77086989 37.93435541 27.625 40.125 C28.07875 41.07375 28.5325 42.0225 29 43 C29.99 43.33 30.98 43.66 32 44 C32 44.99 32 45.98 32 47 C26.72 47 21.44 47 16 47 C16 46.34 16 45.68 16 45 C17.485 44.505 17.485 44.505 19 44 C19.35516811 38.31731018 18.07461186 34.27942714 16 29 C15.48383125 27.58625221 14.97207458 26.17088538 14.46484375 24.75390625 C14.21283203 24.06232422 13.96082031 23.37074219 13.70117188 22.65820312 C13.1827997 21.2356626 12.66995985 19.81109629 12.16210938 18.38476562 C10.97763593 14.47401041 10.97763593 14.47401041 8 12 C7.80664062 12.67546875 7.61328125 13.3509375 7.4140625 14.046875 C7.15367188 14.93890625 6.89328125 15.8309375 6.625 16.75 C6.36976562 17.63171875 6.11453125 18.5134375 5.8515625 19.421875 C5.06534225 21.80217485 4.34611012 23.88468409 3 26 C-0.125 26.75 -0.125 26.75 -3 27 C-2.25634742 20.84368622 0.16625083 15.83620406 2.72265625 10.2421875 C4.24436928 6.96052484 4.24436928 6.96052484 4 3 C2.68 2.01 1.36 1.02 0 0 Z " fill="#ECECEC" transform="translate(41,23)"/>
<path d="M0 0 C1.9609375 1.109375 1.9609375 1.109375 3.875 2.4375 C4.65101562 2.95828125 5.42703125 3.4790625 6.2265625 4.015625 C13.36508249 9.1776818 19.12372334 15.54844424 20.875 24.4375 C21.99869673 35.5620976 21.22337173 43.86140192 14.875 53.4375 C13.823125 55.0771875 13.823125 55.0771875 12.75 56.75 C4.37837676 64.57564781 -5.68730335 69.05271696 -17.15625 68.81640625 C-25.57492655 67.74191727 -34.11203439 63.43704381 -40.125 57.4375 C-42.3411923 54.5534819 -44.25961673 51.55637331 -46.125 48.4375 C-46.785 47.4475 -47.445 46.4575 -48.125 45.4375 C-50.80150279 35.54307355 -50.19316445 24.37013984 -45.125 15.4375 C-36.21846877 0.18506527 -16.66020483 -6.90716677 0 0 Z M-33.125 5.4375 C-33.83914062 5.9221875 -34.55328125 6.406875 -35.2890625 6.90625 C-41.58383561 11.71573956 -46.16331349 18.46515717 -47.43847656 26.38427734 C-48.44781941 36.94687269 -46.71871172 46.09543245 -40.1875 54.625 C-33.54884544 61.50174977 -25.92150838 65.65364734 -16.39526367 66.21899414 C-6.33956959 66.3526491 1.54770009 64.13185339 9.2421875 57.3515625 C16.90145032 49.35562879 19.57004017 41.91264228 19.48217773 30.88891602 C19.04508586 21.50539052 15.33388242 14.41189197 8.5625 7.9375 C7.03391409 6.72673888 5.4722532 5.55611503 3.875 4.4375 C3.23304687 3.98375 2.59109375 3.53 1.9296875 3.0625 C-8.29977727 -2.71413893 -23.85815567 -1.31455014 -33.125 5.4375 Z " fill="#DAD9D9" transform="translate(64.125,15.5625)"/>
<path d="M0 0 C0.7425 0.804375 1.485 1.60875 2.25 2.4375 C5.22010717 5.26294092 5.22010717 5.26294092 9 6 C9.66 5.67 10.32 5.34 11 5 C10.84759391 7.66710654 10.50635081 9.4505871 8.66796875 11.4453125 C4.49375 15 4.49375 15 2 15 C2 14.34 2 13.68 2 13 C2.66 13 3.32 13 4 13 C3.175 12.21625 2.35 11.4325 1.5 10.625 C-1 8 -1 8 -1 6 C-1.99 6.33 -2.98 6.66 -4 7 C-4.495 8.7325 -4.495 8.7325 -5 10.5 C-5.495 12.2325 -5.495 12.2325 -6 14 C-6.99 14.33 -7.98 14.66 -9 15 C-9.33 13.35 -9.66 11.7 -10 10 C-10.66 10 -11.32 10 -12 10 C-12 11.32 -12 12.64 -12 14 C-12.99 14 -13.98 14 -15 14 C-15 13.34 -15 12.68 -15 12 C-15.66 12 -16.32 12 -17 12 C-16.34 13.65 -15.68 15.3 -15 17 C-13.68 16.67 -12.36 16.34 -11 16 C-10.67 16.99 -10.34 17.98 -10 19 C-9.01 19 -8.02 19 -7 19 C-6.67 18.34 -6.34 17.68 -6 17 C-5.34 17.66 -4.68 18.32 -4 19 C-10.13891871 22.57634255 -14.45400631 23.54836455 -21.5 23.25 C-22.73363281 23.22292969 -22.73363281 23.22292969 -23.9921875 23.1953125 C-25.99530804 23.1487283 -27.99781821 23.07700699 -30 23 C-30 22.34 -30 21.68 -30 21 C-30.763125 21.20625 -31.52625 21.4125 -32.3125 21.625 C-35 22 -35 22 -38 20 C-37.2575 20.103125 -36.515 20.20625 -35.75 20.3125 C-32.74927133 20.2745414 -32.74927133 20.2745414 -30.6875 17.5 C-30.130625 16.675 -29.57375 15.85 -29 15 C-29 16.65 -29 18.3 -29 20 C-26.69 20 -24.38 20 -22 20 C-21.67 19.34 -21.34 18.68 -21 18 C-22.32 18.33 -23.64 18.66 -25 19 C-25.33 17.68 -25.66 16.36 -26 15 C-25.01 14.67 -24.02 14.34 -23 14 C-22.34 14.33 -21.68 14.66 -21 15 C-21.33 14.34 -21.66 13.68 -22 13 C-23.98 13 -25.96 13 -28 13 C-28 12.34 -28 11.68 -28 11 C-28.66 11 -29.32 11 -30 11 C-30.33 11.66 -30.66 12.32 -31 13 C-31 12.01 -31 11.02 -31 10 C-29.89205078 9.96132812 -29.89205078 9.96132812 -28.76171875 9.921875 C-17.79869392 9.30894858 -8.99418647 6.28819914 0 0 Z M-32 13 C-31 17 -31 17 -31 17 Z " fill="#282626" transform="translate(74,74)"/>
<path d="M0 0 C0.66 0.33 1.32 0.66 2 1 C1.175 1.763125 0.35 2.52625 -0.5 3.3125 C-3.34055197 5.75434142 -3.34055197 5.75434142 -3 9 C-4.05743238 10.91551276 -5.28140587 12.67094562 -6.515625 14.4765625 C-11.24230563 22.51191956 -12.69012112 28.9559679 -12.5625 38.3125 C-12.55371826 39.42028809 -12.54493652 40.52807617 -12.53588867 41.66943359 C-12.24574299 53.27697264 -9.00164523 60.7978377 -2 70 C-2 70.66 -2 71.32 -2 72 C-0.38599308 73.59671399 1.2913834 75.12996047 3 76.625 C3.928125 77.44226563 4.85625 78.25953125 5.8125 79.1015625 C6.534375 79.72804688 7.25625 80.35453125 8 81 C2.55739022 81 -0.91231922 76.0331333 -4.64453125 72.3984375 C-13.54944538 62.85913635 -16.22109786 52.16148856 -16.375 39.5625 C-16.41238281 38.43650391 -16.44976563 37.31050781 -16.48828125 36.15039062 C-16.59979945 25.37649338 -13.43568058 16.46638476 -6.875 7.9375 C-6.21242188 7.05964844 -5.54984375 6.18179687 -4.8671875 5.27734375 C-3.32388221 3.39502788 -1.76485705 1.67168136 0 0 Z " fill="#C6C6C6" transform="translate(16,11)"/>
<path d="M0 0 C0.66 1.32 1.32 2.64 2 4 C2.66 4 3.32 4 4 4 C4.33 3.34 4.66 2.68 5 2 C5.66 2 6.32 2 7 2 C7.33 2.99 7.66 3.98 8 5 C9.32 5 10.64 5 12 5 C10.21470545 11.76532673 7.50062149 16.65460165 3 22 C2.34 21.34 1.68 20.68 1 20 C0.1028125 20.3403125 0.1028125 20.3403125 -0.8125 20.6875 C-1.534375 20.790625 -2.25625 20.89375 -3 21 C-5.8125 18.875 -5.8125 18.875 -8 16 C-8.11096925 11.56122987 -5.72867328 9.29045895 -3 6 C-1.95548562 4.02288349 -0.94301862 2.02749004 0 0 Z " fill="#2E2C2C" transform="translate(83,60)"/>
<path d="M0 0 C2.49042004 1.6154076 4.39764995 3.23054809 6.3125 5.5 C6.3125 6.16 6.3125 6.82 6.3125 7.5 C6.6425 7.83 6.9725 8.16 7.3125 8.5 C7.38455511 10.18608966 7.39636068 11.87500659 7.375 13.5625 C7.36597656 14.48160156 7.35695313 15.40070313 7.34765625 16.34765625 C7.33605469 17.05792969 7.32445313 17.76820312 7.3125 18.5 C5.3325 19.49 5.3325 19.49 3.3125 20.5 C-2.93991962 16.772596 -5.29064936 13.33325742 -7.6875 6.5 C-8.3475 6.5 -9.0075 6.5 -9.6875 6.5 C-9.6875 5.51 -9.6875 4.52 -9.6875 3.5 C-3.46931818 -0.64545455 -3.46931818 -0.64545455 0 0 Z " fill="#2A2828" transform="translate(24.6875,72.5)"/>
<path d="M0 0 C3.43339124 3.57833651 3.37573268 6.47276769 3.3125 11.3125 C3.30863281 12.58738281 3.30476563 13.86226562 3.30078125 15.17578125 C2.99381373 19.078654 2.38471138 22.33810546 1 26 C-2.125 27.4375 -2.125 27.4375 -5 28 C-5 26.68 -5 25.36 -5 24 C-5.66 24 -6.32 24 -7 24 C-7.99 26.475 -7.99 26.475 -9 29 C-11 26 -11 26 -10.6875 24.125 C-10.460625 23.42375 -10.23375 22.7225 -10 22 C-9.02473608 18.00707163 -8.89604427 14.29161703 -8.9375 10.1875 C-8.94652344 9.02605469 -8.95554687 7.86460938 -8.96484375 6.66796875 C-8.97644531 5.78753906 -8.98804687 4.90710937 -9 4 C-8.67 4 -8.34 4 -8 4 C-7.67 6.64 -7.34 9.28 -7 12 C-4.58380177 12.25030977 -4.58380177 12.25030977 -2 12 C0.13586678 8.79619983 0.23132175 7.98060033 0.125 4.3125 C0.09792969 3.10013672 0.09792969 3.10013672 0.0703125 1.86328125 C0.04710938 1.24839844 0.02390625 0.63351563 0 0 Z " fill="#232222" transform="translate(95,38)"/>
<path d="M0 0 C1.46373047 0.02707031 1.46373047 0.02707031 2.95703125 0.0546875 C3.69308594 0.07789063 4.42914063 0.10109375 5.1875 0.125 C5.5175 1.445 5.8475 2.765 6.1875 4.125 C1.5675 4.455 -3.0525 4.785 -7.8125 5.125 C-9.10493536 9.2446377 -10.07502625 12.79331683 -9.8125 17.125 C-8.8225 17.455 -7.8325 17.785 -6.8125 18.125 C-6.8125 18.785 -6.8125 19.445 -6.8125 20.125 C-12.0925 20.125 -17.3725 20.125 -22.8125 20.125 C-22.8125 19.135 -22.8125 18.145 -22.8125 17.125 C-22.19375 16.88523437 -21.575 16.64546875 -20.9375 16.3984375 C-18.28798821 14.8106786 -17.87629196 13.60894089 -16.8125 10.75 C-14.91589696 6.15239807 -13.15315843 3.25093742 -8.546875 1.03515625 C-5.52543912 0.02944974 -3.17337086 -0.07646677 0 0 Z " fill="#DEDEDE" transform="translate(49.8125,49.875)"/>
<path d="M0 0 C0.33 0.66 0.66 1.32 1 2 C3.31 1.34 5.62 0.68 8 0 C8.33 0.99 8.66 1.98 9 3 C9.66 3 10.32 3 11 3 C11 2.34 11 1.68 11 1 C11.66 1 12.32 1 13 1 C12.690625 2.0725 12.38125 3.145 12.0625 4.25 C10.66570282 9.75793783 10.35811202 15.34559961 10 21 C9.67 21 9.34 21 9 21 C8.67 19.02 8.34 17.04 8 15 C7.34 15 6.68 15 6 15 C5.67 16.65 5.34 18.3 5 20 C3.68 20 2.36 20 1 20 C-1.62689407 13.76112658 -3.28159173 8.76467572 -1 2.0625 C-0.505 1.0415625 -0.505 1.0415625 0 0 Z " fill="#3F3D3D" transform="translate(5,32)"/>
<path d="M0 0 C2.63084251 0.51333512 4.05574027 0.33558658 6.5625 -0.5 C7.6875 6.125 7.6875 6.125 6.5625 9.5 C6.418125 10.16 6.27375 10.82 6.125 11.5 C5.5625 13.5 5.5625 13.5 3.5625 16.5 C1.9125 16.17 0.2625 15.84 -1.4375 15.5 C-1.7675 14.51 -2.0975 13.52 -2.4375 12.5 C-2.41429688 13.25925781 -2.39109375 14.01851562 -2.3671875 14.80078125 C-2.34914063 15.79464844 -2.33109375 16.78851563 -2.3125 17.8125 C-2.28929688 18.79863281 -2.26609375 19.78476562 -2.2421875 20.80078125 C-2.4375 23.5 -2.4375 23.5 -4.4375 26.5 C-5.36303743 23.36149936 -5.55414647 20.56319222 -5.53515625 17.296875 C-5.53193359 16.3171875 -5.52871094 15.3375 -5.52539062 14.328125 C-5.51701172 13.31234375 -5.50863281 12.2965625 -5.5 11.25 C-5.49548828 10.21875 -5.49097656 9.1875 -5.48632812 8.125 C-5.47456088 5.58327427 -5.45812011 3.04166681 -5.4375 0.5 C-2.4375 -0.5 -2.4375 -0.5 0 0 Z " fill="#3A3838" transform="translate(89.4375,34.5)"/>
<path d="M0 0 C0.33 0 0.66 0 1 0 C1.19421438 2.95803435 1.38066186 5.91620163 1.5625 8.875 C1.61857422 9.71675781 1.67464844 10.55851562 1.73242188 11.42578125 C1.78076172 12.23144531 1.82910156 13.03710938 1.87890625 13.8671875 C1.9260376 14.61081543 1.97316895 15.35444336 2.02172852 16.12060547 C2 18 2 18 1 20 C0.01 19.34 -0.98 18.68 -2 18 C-2.33 19.65 -2.66 21.3 -3 23 C-5.02045442 22.39816251 -7.02111039 21.72693904 -9 21 C-10.1482685 18.703463 -10.11561175 17.41686833 -10.09765625 14.8671875 C-10.09443359 14.06152344 -10.09121094 13.25585938 -10.08789062 12.42578125 C-10.07951172 11.58402344 -10.07113281 10.74226563 -10.0625 9.875 C-10.05798828 9.02550781 -10.05347656 8.17601562 -10.04882812 7.30078125 C-10.03702874 5.20049091 -10.01909306 3.1002367 -10 1 C-7.0234375 3.6640625 -7.0234375 3.6640625 -6.8125 6.6875 C-6.9053125 7.8321875 -6.9053125 7.8321875 -7 9 C-5.68 9 -4.36 9 -3 9 C-2.67 7.35 -2.34 5.7 -2 4 C-1.34 4 -0.68 4 0 4 C0 2.68 0 1.36 0 0 Z " fill="#201E1E" transform="translate(13,43)"/>
<path d="M0 0 C0 0.33 0 0.66 0 1 C-6.3814329 1.12512614 -6.3814329 1.12512614 -9.39453125 0.515625 C-22.10021368 -1.99884289 -34.11443135 1.60150329 -44.83203125 8.47265625 C-47.71270233 10.502102 -50.37409965 12.65051021 -53 15 C-53.66 14.67 -54.32 14.34 -55 14 C-42.77146212 -2.74778014 -19.06164835 -8.42725506 0 0 Z " fill="#CCCCCC" transform="translate(67,3)"/>
<path d="M0 0 C3 0 3 0 5.6875 2.375 C8 5 8 5 8 7 C7.34 7 6.68 7 6 7 C6.33 7.99 6.66 8.98 7 10 C4.75 11.5625 4.75 11.5625 2 13 C0.65737935 12.70630173 -0.67696283 12.3721042 -2 12 C-4.70465742 12.86454438 -4.70465742 12.86454438 -7 14 C-7 12.68 -7 11.36 -7 10 C-7.99 10 -8.98 10 -10 10 C-10.33 10.99 -10.66 11.98 -11 13 C-11.66 10.69 -12.32 8.38 -13 6 C-12.34 6 -11.68 6 -11 6 C-11 6.66 -11 7.32 -11 8 C-10.01 8 -9.02 8 -8 8 C-8 6.68 -8 5.36 -8 4 C-6 4 -6 4 -4.375 5.5 C-3.92125 5.995 -3.4675 6.49 -3 7 C-2.01 4.69 -1.02 2.38 0 0 Z " fill="#292828" transform="translate(70,80)"/>
<path d="M0 0 C3.10473291 1.41314076 5.50805516 3.13493151 8.125 5.3125 C21.13458623 15.56636107 34.20257707 17.26287075 50.375 15.5 C51.57125 15.335 52.7675 15.17 54 15 C53.67 15.66 53.34 16.32 53 17 C41.40436035 20.65288648 27.53351932 21.00787916 16.51171875 15.55078125 C9.8412963 11.43234002 4.92299683 6.03067111 0 0 Z " fill="#E0E0E0" transform="translate(12,81)"/>
<path d="M0 0 C0.33 0 0.66 0 1 0 C1.09796875 0.75023437 1.1959375 1.50046875 1.296875 2.2734375 C2.75633526 12.26319138 4.90994372 22.26617148 13 29 C21.89444296 35.22486261 29.28171027 37.1124858 40 37 C40 37.99 40 38.98 40 40 C28.92123997 40.98138622 19.43446114 37.71175529 10.75 30.74609375 C7.5638823 27.56708792 5.29879079 23.84351963 3 20 C2.34 19.01 1.68 18.02 1 17 C-0.02938869 13.19967823 -0.10561671 9.61112068 -0.0625 5.6875 C-0.05347656 4.61886719 -0.04445313 3.55023438 -0.03515625 2.44921875 C-0.02355469 1.64097656 -0.01195312 0.83273438 0 0 Z " fill="#CDCDCD" transform="translate(15,44)"/>
<path d="M0 0 C2.64107354 2.46741391 3.79641403 4.57440916 5 8 C4.34 8 3.68 8 3 8 C2.80664062 8.67546875 2.61328125 9.3509375 2.4140625 10.046875 C2.15367188 10.93890625 1.89328125 11.8309375 1.625 12.75 C1.36976562 13.63171875 1.11453125 14.5134375 0.8515625 15.421875 C0.06534225 17.80217485 -0.65388988 19.88468409 -2 22 C-5.125 22.75 -5.125 22.75 -8 23 C-7.38696372 17.59491957 -5.55619307 13.07560955 -3.4375 8.125 C-3.10814453 7.34125 -2.77878906 6.5575 -2.43945312 5.75 C-1.63203214 3.83091244 -0.81680231 1.9151135 0 0 Z " fill="#E7E7E6" transform="translate(46,27)"/>
<path d="M0 0 C0.66 0.33 1.32 0.66 2 1 C1.175 1.763125 0.35 2.52625 -0.5 3.3125 C-3.34055197 5.75434142 -3.34055197 5.75434142 -3 9 C-3.953125 10.7265625 -3.953125 10.7265625 -5.25 12.625 C-6.17137929 14.08036047 -7.08800739 15.53873912 -8 17 C-8.391875 17.62390625 -8.78375 18.2478125 -9.1875 18.890625 C-13.3167143 26.60253995 -12.8157499 35.46000775 -13 44 C-13.33 44 -13.66 44 -14 44 C-14.33 40.7 -14.66 37.4 -15 34 C-15.33 34 -15.66 34 -16 34 C-17.16251536 21.90984027 -10.39437571 12.01866326 -3 3 C-2.01887343 1.98147623 -1.02673592 0.97252936 0 0 Z " fill="#B0B0B0" transform="translate(16,11)"/>
<path d="M0 0 C0.33 0 0.66 0 1 0 C1.96540309 12.08541643 -0.68864922 19.27936496 -7.125 29.3125 C-14.67501729 36.37012486 -22.51521556 40.16484784 -32.75 40.0625 C-33.92046875 40.05347656 -35.0909375 40.04445312 -36.296875 40.03515625 C-37.18890625 40.02355469 -38.0809375 40.01195312 -39 40 C-39 39.67 -39 39.34 -39 39 C-38.12859375 38.92523438 -37.2571875 38.85046875 -36.359375 38.7734375 C-25.94929956 37.62427333 -16.59674319 35.11788153 -9.0625 27.4375 C-2.93278018 19.59925191 -0.24404759 9.82846215 0 0 Z " fill="#DFDFDF" transform="translate(84,43)"/>
<path d="M0 0 C0.66 0 1.32 0 2 0 C2.33 0.66 2.66 1.32 3 2 C3.33 1.34 3.66 0.68 4 0 C4.66 0 5.32 0 6 0 C6 0.66 6 1.32 6 2 C7.98 1.67 9.96 1.34 12 1 C12.33 1.99 12.66 2.98 13 4 C11.68 4 10.36 4 9 4 C9 4.99 9 5.98 9 7 C10.32 7 11.64 7 13 7 C12.67 7.99 12.34 8.98 12 10 C9.6568787 9.74438677 7.32156597 9.40729228 5 9 C4.67 8.34 4.34 7.68 4 7 C2.68 7.99 1.36 8.98 0 10 C-2.5 8.625 -2.5 8.625 -5 7 C-5 6.34 -5 5.68 -5 5 C-3.68 5.33 -2.36 5.66 -1 6 C-0.67 4.02 -0.34 2.04 0 0 Z " fill="#343333" transform="translate(40,85)"/>
<path d="M0 0 C0.99 0.33 1.98 0.66 3 1 C4.203125 3.43359375 4.203125 3.43359375 5.25 6.4375 C5.78367187 7.92056641 5.78367187 7.92056641 6.328125 9.43359375 C7 12 7 12 6 14 C2.37 14 -1.26 14 -5 14 C-4.35600627 12.04106095 -3.70974759 10.08286636 -3.0625 8.125 C-2.52302734 6.48917969 -2.52302734 6.48917969 -1.97265625 4.8203125 C-1 2 -1 2 0 0 Z " fill="#2A2828" transform="translate(49,35)"/>
<path d="M0 0 C3 1 3 1 4.17529297 3.1628418 C5.10968606 6.37734214 5.22702748 9.04860063 5.1953125 12.39453125 C5.18564453 14.19760742 5.18564453 14.19760742 5.17578125 16.03710938 C5.15902344 17.28298828 5.14226562 18.52886719 5.125 19.8125 C5.11597656 21.07771484 5.10695313 22.34292969 5.09765625 23.64648438 C5.07412394 26.76451564 5.04124545 29.88216097 5 33 C4.34 33 3.68 33 3 33 C2.67 33.99 2.34 34.98 2 36 C1.22551009 33.67653026 0.95077831 32.23359448 1.4609375 29.8125 C3.09406488 21.29183541 2.492824 12.25747951 0 4 C0 2.68 0 1.36 0 0 Z " fill="#CBCBCB" transform="translate(95,30)"/>
<path d="M0 0 C0.33 0 0.66 0 1 0 C1 1.65 1 3.3 1 5 C6.60563042 5.82622671 11.42289352 6.06795656 17 5 C17 3.68 17 2.36 17 1 C17.66 1 18.32 1 19 1 C19.33 1.99 19.66 2.98 20 4 C20.99 4 21.98 4 23 4 C23.33 3.34 23.66 2.68 24 2 C24.66 2.66 25.32 3.32 26 4 C19.86108129 7.57634255 15.54599369 8.54836455 8.5 8.25 C7.26636719 8.22292969 7.26636719 8.22292969 6.0078125 8.1953125 C4.00469196 8.1487283 2.00218179 8.07700699 0 8 C0 7.34 0 6.68 0 6 C-0.763125 6.20625 -1.52625 6.4125 -2.3125 6.625 C-5 7 -5 7 -8 5 C-7.236875 5.103125 -6.47375 5.20625 -5.6875 5.3125 C-4.800625 5.209375 -3.91375 5.10625 -3 5 C-1.21030974 2.57327433 -1.21030974 2.57327433 0 0 Z " fill="#171414" transform="translate(44,89)"/>
<path d="M0 0 C1.65 0.33 3.3 0.66 5 1 C5.33 1.99 5.66 2.98 6 4 C6.66 3.67 7.32 3.34 8 3 C8 4.32 8 5.64 8 7 C3.8803623 8.29243536 0.33168317 9.26252625 -4 9 C-2.68 7.68 -1.36 6.36 0 5 C-1.32 5.33 -2.64 5.66 -4 6 C-4.33 4.68 -4.66 3.36 -5 2 C-4.01 1.67 -3.02 1.34 -2 1 C-1.34 1.33 -0.68 1.66 0 2 C0 1.34 0 0.68 0 0 Z " fill="#302E2F" transform="translate(53,87)"/>
<path d="M0 0 C0 0.33 0 0.66 0 1 C-6.46153846 1.12669683 -6.46153846 1.12669683 -9.125 0.5 C-13.35293255 -0.23529262 -17.53060121 -0.10400983 -21.8125 -0.0625 C-23.13797852 -0.05573242 -23.13797852 -0.05573242 -24.49023438 -0.04882812 C-26.66018559 -0.03709866 -28.83010172 -0.01916495 -31 0 C-21.19129687 -5.0991279 -10.05845705 -3.73854156 0 0 Z " fill="#E8E8E8" transform="translate(67,3)"/>
<path d="M0 0 C0.556875 0.391875 1.11375 0.78375 1.6875 1.1875 C1.3575 2.8375 1.0275 4.4875 0.6875 6.1875 C-0.3025 6.1875 -1.2925 6.1875 -2.3125 6.1875 C-2.3125 6.8475 -2.3125 7.5075 -2.3125 8.1875 C-2.9725 8.1875 -3.6325 8.1875 -4.3125 8.1875 C-4.6425 7.1975 -4.9725 6.2075 -5.3125 5.1875 C-5.9725 5.1875 -6.6325 5.1875 -7.3125 5.1875 C-7.3125 4.1975 -7.3125 3.2075 -7.3125 2.1875 C-3.20088417 -1.12463498 -3.20088417 -1.12463498 0 0 Z " fill="#B2B2B2" transform="translate(22.3125,73.8125)"/>
<path d="M0 0 C2.5 2.3125 2.5 2.3125 5 5 C5 5.99 5 6.98 5 8 C7.22073486 10.36415809 7.22073486 10.36415809 10 12.6875 C10.928125 13.49574219 11.85625 14.30398437 12.8125 15.13671875 C13.534375 15.75160156 14.25625 16.36648437 15 17 C10.08113186 17 7.3948461 13.31173311 4 10 C1.91201998 7.72300284 -0.0449177 5.39497582 -2 3 C-1 1 -1 1 0 0 Z " fill="#A9A9A9" transform="translate(9,75)"/>
<path d="M0 0 C2.72426311 2.35277269 3.8141763 4.62496331 5 8 C4.34 8 3.68 8 3 8 C2.67 8.66 2.34 9.32 2 10 C0.02111039 10.72693904 -1.97954558 11.39816251 -4 12 C-2.66666667 8 -1.33333333 4 0 0 Z " fill="#D2D2D2" transform="translate(46,27)"/>
<path d="M0 0 C5.28 0 10.56 0 16 0 C15.01 0.33 14.02 0.66 13 1 C13.33 2.98 13.66 4.96 14 7 C13.67 6.01 13.34 5.02 13 4 C9.7 3.67 6.4 3.34 3 3 C3 2.34 3 1.68 3 1 C2.34 1 1.68 1 1 1 C0.67 1.66 0.34 2.32 0 3 C0 2.01 0 1.02 0 0 Z M-1 3 C0 7 0 7 0 7 Z " fill="#161414" transform="translate(43,84)"/>
<path d="M0 0 C-0.33 1.98 -0.66 3.96 -1 6 C-1.33 5.34 -1.66 4.68 -2 4 C-2.66 4 -3.32 4 -4 4 C-4 5.32 -4 6.64 -4 8 C-4.99 8 -5.98 8 -7 8 C-7 7.34 -7 6.68 -7 6 C-7.99 6.33 -8.98 6.66 -10 7 C-10.33 5.68 -10.66 4.36 -11 3 C-9.54293274 2.49632243 -8.08429904 1.99717444 -6.625 1.5 C-5.81289063 1.2215625 -5.00078125 0.943125 -4.1640625 0.65625 C-2 0 -2 0 0 0 Z " fill="#2E2C2C" transform="translate(66,80)"/>
<path d="M0 0 C0.66 0.33 1.32 0.66 2 1 C0.75443908 1.81928886 -0.49666635 2.63015186 -1.75 3.4375 C-2.44609375 3.88996094 -3.1421875 4.34242187 -3.859375 4.80859375 C-8.12893109 7.18489778 -11.90584383 7.11094156 -16.75 7.0625 C-17.92046875 7.05347656 -19.0909375 7.04445313 -20.296875 7.03515625 C-21.18890625 7.02355469 -22.0809375 7.01195313 -23 7 C-23 6.67 -23 6.34 -23 6 C-21.64068359 5.85304688 -21.64068359 5.85304688 -20.25390625 5.703125 C-13.49942649 4.87400367 -7.71122911 3.91969518 -1.671875 0.70703125 C-1.12015625 0.47371094 -0.5684375 0.24039063 0 0 Z " fill="#E6E6E6" transform="translate(68,76)"/>
<path d="M0 0 C0.33 0 0.66 0 1 0 C1 5.94 1 11.88 1 18 C0.34 18 -0.32 18 -1 18 C-1.33 18.99 -1.66 19.98 -2 21 C-3.15244522 17.32353743 -2.57945226 14.943001 -1.546875 11.23828125 C-0.64352113 7.5409829 -0.33293487 3.78494381 0 0 Z " fill="#E3E3E3" transform="translate(99,45)"/>
<path d="M0 0 C1.90389849 2.85584773 2.69462177 4.9311762 3.625 8.1875 C4.01558594 9.53908203 4.01558594 9.53908203 4.4140625 10.91796875 C4.60742188 11.60503906 4.80078125 12.29210938 5 13 C4.01 12.67 3.02 12.34 2 12 C1.67 10.35 1.34 8.7 1 7 C-3.95 6.67 -8.9 6.34 -14 6 C-14 5.67 -14 5.34 -14 5 C-9.38 5 -4.76 5 0 5 C-0.33 4.01 -0.66 3.02 -1 2 C-0.67 1.34 -0.34 0.68 0 0 Z " fill="#383637" transform="translate(56,49)"/>
<path d="M0 0 C0.66 0 1.32 0 2 0 C3.25664978 2.90600261 4 4.79604584 4 8 C3.34 8 2.68 8 2 8 C2 7.34 2 6.68 2 6 C0.68 6 -0.64 6 -2 6 C-2.33 6.99 -2.66 7.98 -3 9 C-3.66 6.69 -4.32 4.38 -5 2 C-4.34 2 -3.68 2 -3 2 C-3 2.66 -3 3.32 -3 4 C-2.01 4 -1.02 4 0 4 C0 2.68 0 1.36 0 0 Z " fill="#D1D1D1" transform="translate(62,84)"/>
<path d="M0 0 C2.625 0.375 2.625 0.375 5 1 C5 1.66 5 2.32 5 3 C3.68 3 2.36 3 1 3 C1 3.99 1 4.98 1 6 C2.32 6 3.64 6 5 6 C4.67 6.99 4.34 7.98 4 9 C-0.875 8.125 -0.875 8.125 -2 7 C-2.1875 4.5625 -2.1875 4.5625 -2 2 C-1.34 1.34 -0.68 0.68 0 0 Z " fill="#CECECF" transform="translate(48,86)"/>
<path d="M0 0 C0 2.97 0 5.94 0 9 C-0.66 9 -1.32 9 -2 9 C-2 8.01 -2 7.02 -2 6 C-3.65 5.67 -5.3 5.34 -7 5 C-7 4.34 -7 3.68 -7 3 C-2.61538462 0 -2.61538462 0 0 0 Z " fill="#CECFCF" transform="translate(31,81)"/>
<path d="M0 0 C3 0 3 0 4.38671875 1.3125 C5.59114583 2.875 6.79557292 4.4375 8 6 C7.21625 6.12375 6.4325 6.2475 5.625 6.375 C2.85942178 6.79117993 2.85942178 6.79117993 1 9 C0.67 6.03 0.34 3.06 0 0 Z " fill="#C9C9C9" transform="translate(70,80)"/>
<path d="M0 0 C0.66 0.66 1.32 1.32 2 2 C-1 3 -1 3 -3.19921875 2.1015625 C-6.71547704 0.71859899 -10.08363927 0.54627781 -13.8125 0.375 C-14.50537109 0.33632813 -15.19824219 0.29765625 -15.91210938 0.2578125 C-17.60767015 0.16426432 -19.30379712 0.08107636 -21 0 C-21 -0.33 -21 -0.66 -21 -1 C-13.79508466 -1.9021383 -6.92384696 -2.65465881 0 0 Z " fill="#C1C1C1" transform="translate(65,16)"/>
<path d="M0 0 C0.66 0 1.32 0 2 0 C2.33 0.99 2.66 1.98 3 3 C3.99 3 4.98 3 6 3 C6.33 2.34 6.66 1.68 7 1 C7.66 1.66 8.32 2.32 9 3 C0.738041 7.59225513 0.738041 7.59225513 -4 7 C-3.34 6.01 -2.68 5.02 -2 4 C-1.34 4 -0.68 4 0 4 C0 2.68 0 1.36 0 0 Z " fill="#211F20" transform="translate(61,90)"/>
<path d="M0 0 C0 0.33 0 0.66 0 1 C-1.3921875 1.433125 -1.3921875 1.433125 -2.8125 1.875 C-6.09791667 2.8875 -6.09791667 2.8875 -9 5 C-10.33841672 4.68770276 -11.67139075 4.35169068 -13 4 C-15.68149993 4.38567131 -15.68149993 4.38567131 -18 5 C-12.39884772 0.26056345 -7.05353749 -0.24322543 0 0 Z " fill="#BCBCBC" transform="translate(45,0)"/>
<path d="M0 0 C-0.66 0.66 -1.32 1.32 -2 2 C-2.309375 3.175625 -2.61875 4.35125 -2.9375 5.5625 C-3.288125 6.696875 -3.63875 7.83125 -4 9 C-4.99 9.33 -5.98 9.66 -7 10 C-6.93993922 8.54052295 -6.8511311 7.08220728 -6.75 5.625 C-6.70359375 4.81289062 -6.6571875 4.00078125 -6.609375 3.1640625 C-6 1 -6 1 -4.078125 -0.3515625 C-2 -1 -2 -1 0 0 Z " fill="#1D1B1B" transform="translate(72,79)"/>
<path d="M0 0 C0.74056641 0.00902344 1.48113281 0.01804687 2.24414062 0.02734375 C4.05873467 0.05075787 5.87316071 0.08662385 7.6875 0.125 C7.6875 0.455 7.6875 0.785 7.6875 1.125 C6.92566406 1.17398437 6.16382812 1.22296875 5.37890625 1.2734375 C-1.04220616 1.73838696 -7.06691373 2.56360343 -13.3125 4.125 C-13.3125 3.465 -13.3125 2.805 -13.3125 2.125 C-8.90220217 -0.08449832 -4.82309676 -0.1120648 0 0 Z " fill="#E4E4E4" transform="translate(48.3125,13.875)"/>
<path d="M0 0 C1 3 1 3 0.00390625 5.48046875 C-0.47175781 6.37378906 -0.94742188 7.26710938 -1.4375 8.1875 C-1.91058594 9.08855469 -2.38367188 9.98960938 -2.87109375 10.91796875 C-3.24363281 11.60503906 -3.61617188 12.29210937 -4 13 C-5.3609623 10.2780754 -4.70366248 8.8168043 -4.0625 5.875 C-3.86785156 4.96492188 -3.67320313 4.05484375 -3.47265625 3.1171875 C-3.31667969 2.41851562 -3.16070312 1.71984375 -3 1 C-2.34 1.33 -1.68 1.66 -1 2 C-0.67 1.34 -0.34 0.68 0 0 Z " fill="#ADADAE" transform="translate(98,63)"/>
<path d="M0 0 C0.66 0.33 1.32 0.66 2 1 C1.175 1.763125 0.35 2.52625 -0.5 3.3125 C-3.34055197 5.75434142 -3.34055197 5.75434142 -3 9 C-3.66 9.66 -4.32 10.32 -5 11 C-5.99 11 -6.98 11 -8 11 C-6.63629701 8.00779732 -5.05091917 5.70973471 -2.875 3.25 C-2.33617187 2.63640625 -1.79734375 2.0228125 -1.2421875 1.390625 C-0.62730469 0.70226562 -0.62730469 0.70226562 0 0 Z " fill="#A9A8A8" transform="translate(16,11)"/>
<path d="M0 0 C1.98 0.495 1.98 0.495 4 1 C3.67 5.29 3.34 9.58 3 14 C1.68 14 0.36 14 -1 14 C-0.01 13.67 0.98 13.34 2 13 C1.88601335 11.37419034 1.75844341 9.74932843 1.625 8.125 C1.55539063 7.22007813 1.48578125 6.31515625 1.4140625 5.3828125 C1.20431868 2.82058097 1.20431868 2.82058097 -1 1 C-0.67 0.67 -0.34 0.34 0 0 Z " fill="#181616" transform="translate(30,78)"/>
<path d="M0 0 C2.49361571 1.20381448 4.68143083 2.45428722 7 4 C7.33 3.01 7.66 2.02 8 1 C8.66 1 9.32 1 10 1 C9.04247992 3.47359354 8.50503355 4.73064878 6.125 6 C4 6 4 6 1.75 4.1875 C0 2 0 2 0 0 Z " fill="#CFCFCF" transform="translate(76,75)"/>
<path d="M0 0 C2.69497729 2.69497729 2.66052214 4.19784795 3 8 C2.78996448 11.35056656 2.42767299 14.67073025 2 18 C1.67 18 1.34 18 1 18 C0.93941406 17.10796875 0.87882812 16.2159375 0.81640625 15.296875 C0.73261719 14.12640625 0.64882812 12.9559375 0.5625 11.75 C0.48128906 10.58984375 0.40007812 9.4296875 0.31640625 8.234375 C0.09350711 5.12133032 0.09350711 5.12133032 -0.59765625 2.640625 C-0.73042969 2.09921875 -0.86320312 1.5578125 -1 1 C-0.67 0.67 -0.34 0.34 0 0 Z " fill="#C3C3C3" transform="translate(82,35)"/>
<path d="M0 0 C3.2826932 1.49076434 5.93077441 3.38620321 8.75 5.625 C9.94882812 6.57246094 9.94882812 6.57246094 11.171875 7.5390625 C11.77515625 8.02117187 12.3784375 8.50328125 13 9 C12.34 9.66 11.68 10.32 11 11 C9.35086118 9.54540569 7.70578218 8.08620743 6.0625 6.625 C5.14597656 5.81289062 4.22945312 5.00078125 3.28515625 4.1640625 C1 2 1 2 0 0 Z " fill="#EBEBEB" transform="translate(12,81)"/>
<path d="M0 0 C0.66 0.33 1.32 0.66 2 1 C1.34 6.28 0.68 11.56 0 17 C-0.33 17 -0.66 17 -1 17 C-2.51708428 5.47835991 -2.51708428 5.47835991 0 0 Z " fill="#CDCDCD" transform="translate(17,35)"/>
<path d="M0 0 C0 3 0 3 -1.53125 4.60546875 C-2.1809375 5.12753906 -2.830625 5.64960937 -3.5 6.1875 C-4.1496875 6.71730469 -4.799375 7.24710937 -5.46875 7.79296875 C-5.9740625 8.19128906 -6.479375 8.58960937 -7 9 C-7.33 8.01 -7.66 7.02 -8 6 C-5.63379989 3.38472619 -3.057952 1.73559438 0 0 Z " fill="#B5B5B5" transform="translate(90,79)"/>
<path d="M0 0 C0.33 0 0.66 0 1 0 C1.22185844 2.26955186 1.42705515 4.54073755 1.625 6.8125 C1.74101563 8.07707031 1.85703125 9.34164062 1.9765625 10.64453125 C2 14 2 14 0 17 C-1.23104155 13.31599416 -0.90767252 10.08525024 -0.5625 6.25 C-0.46066406 5.07953125 -0.35882813 3.9090625 -0.25390625 2.703125 C-0.17011719 1.81109375 -0.08632812 0.9190625 0 0 Z " fill="#4C4A4A" transform="translate(85,44)"/>
<path d="M0 0 C3.0916909 2.52956528 3.90931332 5.22454612 5 9 C4.01 9.33 3.02 9.66 2 10 C-0.09350689 6.5980513 -0.17942163 3.94727588 0 0 Z " fill="#AFAFAF" transform="translate(92,22)"/>
<path d="M0 0 C0.66 0 1.32 0 2 0 C1.34 2.31 0.68 4.62 0 7 C-1.32 7.33 -2.64 7.66 -4 8 C-4.33 7.01 -4.66 6.02 -5 5 C-3.68 5.33 -2.36 5.66 -1 6 C-0.67 4.02 -0.34 2.04 0 0 Z " fill="#D3D3D4" transform="translate(40,85)"/>
<path d="M0 0 C0.33 0 0.66 0 1 0 C2 3 3 6 4 9 C2.35 9 0.7 9 -1 9 C-2.60031344 5.79937313 -1.03173691 3.27728194 0 0 Z " fill="#3C3B3B" transform="translate(69,81)"/>
<path d="M0 0 C0.66 0.66 1.32 1.32 2 2 C-3.445 4.475 -3.445 4.475 -9 7 C-8 4 -8 4 -6.15234375 2.83203125 C-5.42144531 2.49558594 -4.69054687 2.15914063 -3.9375 1.8125 C-3.20402344 1.46832031 -2.47054688 1.12414062 -1.71484375 0.76953125 C-1.14894531 0.51558594 -0.58304688 0.26164063 0 0 Z " fill="#E3E2E2" transform="translate(32,3)"/>
<path d="M0 0 C0.99 0.33 1.98 0.66 3 1 C3.33 2.65 3.66 4.3 4 6 C2.02 6 0.04 6 -2 6 C-1.34 4.02 -0.68 2.04 0 0 Z " fill="#413F3F" transform="translate(49,35)"/>
<path d="M0 0 C4.19360449 0.67097672 7.40334352 2.8558394 11 5 C8 6 8 6 5.95703125 5.0390625 C5.24933594 4.57242187 4.54164062 4.10578125 3.8125 3.625 C3.09707031 3.16351563 2.38164063 2.70203125 1.64453125 2.2265625 C1.10183594 1.82179688 0.55914062 1.41703125 0 1 C0 0.67 0 0.34 0 0 Z " fill="#E7E7E7" transform="translate(68,4)"/>
<path d="M0 0 C0.66 0 1.32 0 2 0 C1.67 1.65 1.34 3.3 1 5 C0.01 5 -0.98 5 -2 5 C-2 5.66 -2 6.32 -2 7 C-2.66 7 -3.32 7 -4 7 C-3.67 5.68 -3.34 4.36 -3 3 C-2.01 3 -1.02 3 0 3 C0 2.01 0 1.02 0 0 Z " fill="#CCCCCC" transform="translate(22,75)"/>
<path d="M0 0 C0.33 0 0.66 0 1 0 C1 3.63 1 7.26 1 11 C-2 7 -2 7 -2 4 C-1.34 4 -0.68 4 0 4 C0 2.68 0 1.36 0 0 Z " fill="#161414" transform="translate(13,43)"/>
<path d="M0 0 C0.33 0.99 0.66 1.98 1 3 C0.01 4.485 0.01 4.485 -1 6 C-1 5.34 -1 4.68 -1 4 C-2.32 4.33 -3.64 4.66 -5 5 C-4.1875 3.0625 -4.1875 3.0625 -3 1 C-2.01 0.67 -1.02 0.34 0 0 Z " fill="#F7F7F6" transform="translate(47,36)"/>
<path d="M0 0 C0.66 0.33 1.32 0.66 2 1 C0.35 3.64 -1.3 6.28 -3 9 C-3.33 8.01 -3.66 7.02 -4 6 C-2.0625 2.8125 -2.0625 2.8125 0 0 Z " fill="#E1E1E1" transform="translate(22,27)"/>
<path d="M0 0 C3.25543229 0.34879632 4.01873107 1.02133261 6.25 3.5625 C6.8275 4.366875 7.405 5.17125 8 6 C7.01 6 6.02 6 5 6 C4.67 5.01 4.34 4.02 4 3 C1.99983534 1.79117904 1.99983534 1.79117904 0 1 C0 0.67 0 0.34 0 0 Z " fill="#2D2B2B" transform="translate(68,22)"/>
</svg>
