<?xml version="1.0" encoding="UTF-8"?>
<svg version="1.1" xmlns="http://www.w3.org/2000/svg" width="1346" height="1346">
<path d="M0 0 C14.93701731 5.55297831 28.35302173 17.33830903 40 28 C41.01991421 28.9124867 42.04073749 29.82395841 43.0625 30.734375 C54.22683453 40.74757954 64.77124585 51.15587689 74 63 C74.77601562 63.94746094 75.55203125 64.89492188 76.3515625 65.87109375 C101.73480485 97.49941953 114.75926007 135.04776593 119 175 C119.69335449 174.85900879 120.38670898 174.71801758 121.10107422 174.57275391 C180.80816682 162.52078497 254.20958653 159.88483513 307.26953125 194.48828125 C312.2940546 197.83667017 317.18889592 201.35089987 322 205 C321.43252111 209.72616747 320.09007165 213.33403323 317.97265625 217.5859375 C317.66820084 218.20039734 317.36374542 218.81485718 317.05006409 219.44793701 C316.06385446 221.42863285 315.06450628 223.40225344 314.0625 225.375 C313.72297302 226.04851501 313.38344604 226.72203003 313.03363037 227.41595459 C303.9597049 245.38974983 293.72279352 261.95109407 279.98828125 276.82421875 C278.39293179 278.57001374 276.90064268 280.33288102 275.4375 282.1875 C272.24897694 285.86656507 268.74961588 288.9040414 265 292 C264.01128906 292.82628906 263.02257813 293.65257812 262.00390625 294.50390625 C212.29741724 335.27059116 150.62322733 339.31268153 89 340 C88.62939453 340.9072583 88.25878906 341.8145166 87.87695312 342.74926758 C69.60018136 387.40478245 49.91521655 431.87547485 25.43994141 473.53027344 C23.95847386 476.07122388 22.51225036 478.6295538 21.07421875 481.1953125 C1.48618089 516.09219535 -20.96927358 549.76071036 -46 581 C-46.70769531 581.89074219 -47.41539062 582.78148437 -48.14453125 583.69921875 C-50.08735636 586.14020414 -52.04101884 588.57196701 -54 591 C-54.67160156 591.8353125 -55.34320312 592.670625 -56.03515625 593.53125 C-66.24735399 606.13432524 -76.98254833 618.21707914 -88.12158203 630.00390625 C-90.12115551 632.12874544 -92.1063621 634.26638653 -94.08984375 636.40625 C-100.45097862 643.25056567 -106.77405503 649.96088555 -113.8359375 656.08984375 C-116.02597762 658.0229297 -118.07765386 660.04208221 -120.125 662.125 C-123.91790434 665.96305797 -127.90080993 669.49411375 -132 673 C-133.04212585 673.90572194 -134.08375285 674.81201803 -135.125 675.71875 C-142.59292612 682.20108849 -150.19065879 688.47102717 -158.03613281 694.49121094 C-159.38756114 695.52947884 -160.73569052 696.5720503 -162.08105469 697.61816406 C-191.69370299 720.60918677 -223.52421306 740.16379704 -257 757 C-257.95890137 757.48678223 -258.91780273 757.97356445 -259.90576172 758.47509766 C-327.70176313 792.71721186 -403.45931066 810.72071667 -479 816 C-479.66728119 816.04732269 -480.33456238 816.09464539 -481.02206421 816.1434021 C-496.23218807 817.18580688 -511.4475531 817.20048531 -526.6875 817.1875 C-527.99702637 817.18689575 -529.30655273 817.1862915 -530.65576172 817.18566895 C-550.18736774 817.1612097 -569.54980708 816.89231223 -589 815 C-589.66791565 814.93683594 -590.3358313 814.87367188 -591.02398682 814.80859375 C-654.09687154 808.83494387 -715.68220579 794.58378122 -773 767 C-773.73186523 766.65259766 -774.46373047 766.30519531 -775.21777344 765.94726562 C-805.80492013 751.39882055 -834.07715384 732.74928742 -860 711 C-860.49992462 710.58378891 -860.99984924 710.16757782 -861.5149231 709.73875427 C-870.25173288 702.45213292 -878.50954881 694.80834211 -886.5246582 686.73608398 C-888.32215805 684.92778392 -890.13022316 683.13054023 -891.93945312 681.33398438 C-898.75419837 674.52696876 -905.01646973 667.55585633 -911 660 C-911.93448138 658.89791896 -912.87586641 657.80160115 -913.828125 656.71484375 C-931.99692553 635.87933217 -946.72384704 612.17240591 -960 588 C-960.46647949 587.15356934 -960.93295898 586.30713867 -961.41357422 585.43505859 C-996.2083501 521.87400318 -1014.19898752 449.79634689 -1021 378 C-1021.11714355 376.76620605 -1021.23428711 375.53241211 -1021.35498047 374.26123047 C-1022.77807958 358.49718307 -1023.10348512 342.85447123 -1023.046875 327.0390625 C-1023.04310202 325.18204821 -1023.03968194 323.32503318 -1023.03662109 321.46801758 C-1023.02846946 316.97865935 -1023.01558729 312.48933831 -1023 308 C-1021.91421957 308.00046794 -1021.91421957 308.00046794 -1020.80650419 308.00094534 C-941.92390199 308.03487013 -863.04129894 308.06627648 -784.15869141 308.08468628 C-782.38859092 308.08510045 -782.38859092 308.08510045 -780.58273083 308.08552299 C-754.9309286 308.09151011 -729.27912629 308.09705028 -703.62732387 308.10213066 C-691.04598282 308.10462513 -678.4646418 308.10721826 -665.88330078 308.10986328 C-664.63136844 308.1101248 -663.3794361 308.11038632 -662.08956641 308.11065576 C-621.57913288 308.11916423 -581.06870496 308.13417617 -540.55827482 308.15259444 C-498.89602998 308.17150179 -457.23378824 308.18378064 -415.57153917 308.18782998 C-409.67441193 308.18840621 -403.7772847 308.18905748 -397.88015747 308.18975449 C-396.71962484 308.18988933 -395.5590922 308.19002418 -394.36339191 308.19016311 C-375.75230852 308.19251795 -357.14123478 308.20177073 -338.53015531 308.21366407 C-319.77718847 308.22549866 -301.02423111 308.22992103 -282.27126068 308.22700275 C-271.15740217 308.22549239 -260.04357859 308.22943933 -248.92972646 308.24159509 C-241.4704876 308.24918912 -234.01127116 308.24926245 -226.55203065 308.24366363 C-222.32444123 308.24069269 -218.09691701 308.24056663 -213.86933506 308.24976636 C-196.11299308 308.2860728 -178.42027088 307.96408315 -160.68435669 307.06699944 C-159.44130232 307.00429285 -159.44130232 307.00429285 -158.17313574 306.94031946 C-107.780643 304.34587029 -62.30099394 295.50901806 -17 273 C-17 269.37163094 -17.78153839 268.65289386 -19.9375 265.8125 C-40.47924647 237.11203568 -51.12987982 200.10745763 -52 165 C-52.02046387 164.35417969 -52.04092773 163.70835937 -52.06201172 163.04296875 C-53.6520546 108.06165111 -38.41700223 55.07162109 -7 10 C-6.22778796 8.88416761 -5.45564517 7.76828728 -4.68359375 6.65234375 C-3.13386417 4.42636854 -1.5754291 2.20781966 0 0 Z " fill="#1C62EC" transform="translate(1024,369)"/>
<path d="M0 0 C48.18 0 96.36 0 146 0 C146 48.51 146 97.02 146 147 C97.82 147 49.64 147 0 147 C0 98.49 0 49.98 0 0 Z " fill="#1C62EC" transform="translate(568,307)"/>
<path d="M0 0 C48.18 0 96.36 0 146 0 C146 48.51 146 97.02 146 147 C97.82 147 49.64 147 0 147 C0 98.49 0 49.98 0 0 Z " fill="#1C62EC" transform="translate(381,307)"/>
<path d="M0 0 C48.18 0 96.36 0 146 0 C146 48.51 146 97.02 146 147 C97.82 147 49.64 147 0 147 C0 98.49 0 49.98 0 0 Z " fill="#1C62EC" transform="translate(193,307)"/>
<path d="M0 0 C48.18 0 96.36 0 146 0 C146 48.18 146 96.36 146 146 C97.82 146 49.64 146 0 146 C0 97.82 0 49.64 0 0 Z " fill="#1D62EC" transform="translate(756,491)"/>
<path d="M0 0 C48.18 0 96.36 0 146 0 C146 48.18 146 96.36 146 146 C97.82 146 49.64 146 0 146 C0 97.82 0 49.64 0 0 Z " fill="#1C63EC" transform="translate(568,491)"/>
<path d="M0 0 C48.18 0 96.36 0 146 0 C146 48.18 146 96.36 146 146 C97.82 146 49.64 146 0 146 C0 97.82 0 49.64 0 0 Z " fill="#1C63EC" transform="translate(381,491)"/>
<path d="M0 0 C48.18 0 96.36 0 146 0 C146 48.18 146 96.36 146 146 C97.82 146 49.64 146 0 146 C0 97.82 0 49.64 0 0 Z " fill="#1D62EC" transform="translate(193,491)"/>
<path d="M0 0 C48.18 0 96.36 0 146 0 C146 48.18 146 96.36 146 146 C97.82 146 49.64 146 0 146 C0 97.82 0 49.64 0 0 Z " fill="#1C63EC" transform="translate(5,491)"/>
<path d="M0 0 C48.18 0 96.36 0 146 0 C146 48.18 146 96.36 146 146 C97.82 146 49.64 146 0 146 C0 97.82 0 49.64 0 0 Z " fill="#1D62EC" transform="translate(568,124)"/>
</svg>
