<?xml version="1.0" encoding="UTF-8"?>
<svg version="1.1" xmlns="http://www.w3.org/2000/svg" width="60" height="60">
<path d="M0 0 C1.39822998 0.01824829 1.39822998 0.01824829 2.82470703 0.03686523 C9.88253946 0.30095916 14.54470484 1.49825398 19.5625 6.6875 C20.20058594 7.25210937 20.83867188 7.81671875 21.49609375 8.3984375 C26.47510061 12.9737411 30.55922839 17.97016078 31.1640625 24.88671875 C31.20293312 26.38232786 31.20975828 27.87905143 31.1875 29.375 C31.1769458 30.16374512 31.1663916 30.95249023 31.15551758 31.76513672 C30.86086489 39.04610124 29.18636626 44.90986902 24.5625 50.6875 C21.12298473 53.78455271 17.54698819 56.34014291 13.5625 58.6875 C12.68271484 59.27917969 12.68271484 59.27917969 11.78515625 59.8828125 C8.13918118 61.20279645 4.46857226 60.97454648 0.625 60.9375 C-0.17357422 60.94523437 -0.97214844 60.95296875 -1.79492188 60.9609375 C-10.5981574 60.93176356 -16.04896728 57.64938203 -22.4375 51.6875 C-28.09956916 44.58931351 -29.63369754 39.28603206 -29.6875 30.375 C-29.708125 29.53259766 -29.72875 28.69019531 -29.75 27.82226562 C-29.79660906 20.37064217 -27.7039891 15.74220063 -22.75 10.125 C-22.12738281 9.40183594 -21.50476563 8.67867187 -20.86328125 7.93359375 C-14.28302636 1.84076515 -8.97731791 -0.1923596 0 0 Z " fill="#252323" transform="translate(29.4375,-0.6875)"/>
<path d="M0 0 C-0.99 0.66 -1.98 1.32 -3 2 C-3.33 2.33 -3.66 2.66 -4 3 C-0.34827367 5.26849666 3.0127118 5.3895951 7.25 5.625 C8.51328125 5.69976563 9.7765625 5.77453125 11.078125 5.8515625 C12.04234375 5.90054687 13.0065625 5.94953125 14 6 C14 6.66 14 7.32 14 8 C13.01 8.33 12.02 8.66 11 9 C11.27265984 15.81649607 13.59903837 21.12612734 16.37890625 27.3125 C18.43634995 31.90246321 20.12602938 36.62271418 21.82421875 41.35546875 C22.9576657 43.90478298 23.99796592 45.13643513 26 47 C26 47.66 26 48.32 26 49 C21.71 49 17.42 49 13 49 C13.66 48.34 14.32 47.68 15 47 C14.73650778 40.08839628 12.9447533 34.33720198 10.4375 27.9375 C10.10814453 27.07189453 9.77878906 26.20628906 9.43945312 25.31445312 C8.63561991 23.20584717 7.8224288 21.10140651 7 19 C6.34 19 5.68 19 5 19 C3.68 22.96 2.36 26.92 1 31 C3.97 31 6.94 31 10 31 C10.495 32.98 10.495 32.98 11 35 C6.71 35 2.42 35 -2 35 C-2.33 38.96 -2.66 42.92 -3 47 C-1.515 47.495 -1.515 47.495 0 48 C0 48.66 0 49.32 0 50 C-1.07121094 49.98839844 -2.14242188 49.97679687 -3.24609375 49.96484375 C-4.64322743 49.95546701 -6.04036299 49.94636669 -7.4375 49.9375 C-8.14455078 49.92912109 -8.85160156 49.92074219 -9.58007812 49.91210938 C-11.38693559 49.90346412 -13.19387603 49.94779989 -15 50 C-15.495 50.495 -15.495 50.495 -16 51 C-20.40898925 47.22086635 -23.45427945 42.44733908 -24.36962891 36.66503906 C-24.49876872 34.22285057 -24.4976451 31.81960734 -24.4375 29.375 C-24.44458984 28.55515625 -24.45167969 27.7353125 -24.45898438 26.890625 C-24.36961403 18.33857038 -20.86036592 13.29841291 -15.1875 7.125 C-10.9098598 2.96957809 -6.289932 -0.98280188 0 0 Z " fill="#282626" transform="translate(24,0)"/>
<path d="M0 0 C5.28 0 10.56 0 16 0 C16 0.66 16 1.32 16 2 C15.01 2.33 14.02 2.66 13 3 C13.27265984 9.81649607 15.59903837 15.12612734 18.37890625 21.3125 C20.43634995 25.90246321 22.12602938 30.62271418 23.82421875 35.35546875 C24.9576657 37.90478298 25.99796592 39.13643513 28 41 C28 41.66 28 42.32 28 43 C23.71 43 19.42 43 15 43 C15.66 42.34 16.32 41.68 17 41 C16.73650778 34.08839628 14.9447533 28.33720198 12.4375 21.9375 C11.9434668 20.6390918 11.9434668 20.6390918 11.43945312 19.31445312 C10.63561991 17.20584717 9.8224288 15.10140651 9 13 C8.34 13 7.68 13 7 13 C6.78085937 13.77085938 6.56171875 14.54171875 6.3359375 15.3359375 C5.38249919 18.35128306 4.4134216 21.16887371 3 24 C-0.25 25.6875 -0.25 25.6875 -3 26 C-1.53670248 20.008763 -0.05574925 14.07379318 2.75 8.5625 C4.38133695 5.97710967 4.38133695 5.97710967 3 3 C2.01 2.67 1.02 2.34 0 2 C0 1.34 0 0.68 0 0 Z " fill="#EFEFEF" transform="translate(22,6)"/>
<path d="M0 0 C5.28 0 10.56 0 16 0 C16 0.66 16 1.32 16 2 C15.01 2.33 14.02 2.66 13 3 C13 5.31 13 7.62 13 10 C12.0925 10.268125 11.185 10.53625 10.25 10.8125 C6.48540547 13.3463617 6.29396198 14.37357222 5 18.5625 C4.078125 21.5234375 4.078125 21.5234375 3 24 C-0.25 25.6875 -0.25 25.6875 -3 26 C-1.53670248 20.008763 -0.05574925 14.07379318 2.75 8.5625 C4.38133695 5.97710967 4.38133695 5.97710967 3 3 C2.01 2.67 1.02 2.34 0 2 C0 1.34 0 0.68 0 0 Z " fill="#E5E5E5" transform="translate(22,6)"/>
<path d="M0 0 C1.09570312 0.00902344 2.19140625 0.01804687 3.3203125 0.02734375 C4.16335937 0.03894531 5.00640625 0.05054687 5.875 0.0625 C5.875 1.0525 5.875 2.0425 5.875 3.0625 C1.585 3.0625 -2.705 3.0625 -7.125 3.0625 C-7.33125 5.00125 -7.5375 6.94 -7.75 8.9375 C-7.86601562 10.02804688 -7.98203125 11.11859375 -8.1015625 12.2421875 C-8.10929687 13.17289063 -8.11703125 14.10359375 -8.125 15.0625 C-7.465 15.7225 -6.805 16.3825 -6.125 17.0625 C-10.415 17.0625 -14.705 17.0625 -19.125 17.0625 C-19.125 16.4025 -19.125 15.7425 -19.125 15.0625 C-18.691875 14.670625 -18.25875 14.27875 -17.8125 13.875 C-15.85781911 11.99410599 -15.85781911 11.99410599 -14.75 8.625 C-11.58835582 1.69370313 -7.19439829 -0.07653615 0 0 Z " fill="#E9E9E9" transform="translate(29.125,31.9375)"/>
<path d="M0 0 C-0.99 0.495 -0.99 0.495 -2 1 C-2 1.66 -2 2.32 -2 3 C-5.2134038 3.94734782 -8.15472447 4.16452421 -11.5 4.1875 C-12.4384375 4.20167969 -13.376875 4.21585937 -14.34375 4.23046875 C-17.10183456 3.99116435 -18.62262144 3.3549043 -21 2 C-21.99 1.67 -22.98 1.34 -24 1 C-16.45662765 -3.11456674 -7.87801189 -3.62157689 0 0 Z " fill="#1B1919" transform="translate(41,2)"/>
<path d="M0 0 C0.99 0.33 1.98 0.66 3 1 C3.94921875 3.28515625 3.94921875 3.28515625 4.6875 6.0625 C5.06455078 7.44115234 5.06455078 7.44115234 5.44921875 8.84765625 C5.63097656 9.55792969 5.81273437 10.26820312 6 11 C-0.625 12 -0.625 12 -4 12 C-3.52494322 10.18641846 -3.04483958 8.37415821 -2.5625 6.5625 C-2.29566406 5.55316406 -2.02882813 4.54382813 -1.75390625 3.50390625 C-1 1 -1 1 0 0 Z " fill="#343232" transform="translate(29,18)"/>
<path d="M0 0 C0.99 0.33 1.98 0.66 3 1 C2.52343588 2.79236067 2.04366502 4.58386897 1.5625 6.375 C1.29566406 7.37273438 1.02882813 8.37046875 0.75390625 9.3984375 C0 12 0 12 -1 14 C-2.97888961 14.72693904 -4.97954558 15.39816251 -7 16 C-6.29153799 12.31599753 -4.72381356 9.31502607 -3 6 C-2.1646875 4.329375 -2.1646875 4.329375 -1.3125 2.625 C-0.6628125 1.325625 -0.6628125 1.325625 0 0 Z " fill="#F1F2F1" transform="translate(26,16)"/>
<path d="M0 0 C4.95 0 9.9 0 15 0 C13.00981891 3.98036219 12.46634005 4.66470578 8.875 6.75 C8.15054688 7.17796875 7.42609375 7.6059375 6.6796875 8.046875 C6.12539063 8.36140625 5.57109375 8.6759375 5 9 C4.01 8.34 3.02 7.68 2 7 C4.64 5.68 7.28 4.36 10 3 C8.535625 2.87625 7.07125 2.7525 5.5625 2.625 C3.06640625 2.4140625 3.06640625 2.4140625 1 2 C0.67 1.34 0.34 0.68 0 0 Z " fill="#151313" transform="translate(36,50)"/>
<path d="M0 0 C2 1 2 1 3.125 4.0625 C3.41375 5.031875 3.7025 6.00125 4 7 C1.525 6.01 1.525 6.01 -1 5 C-1 6.32 -1 7.64 -1 9 C-3 10.75 -3 10.75 -5 12 C-4.54965877 10.37276701 -4.08944646 8.74826336 -3.625 7.125 C-3.36976562 6.22007813 -3.11453125 5.31515625 -2.8515625 4.3828125 C-2 2 -2 2 0 0 Z " fill="#C7C7C7" transform="translate(27,11)"/>
<path d="M0 0 C0.66 0.99 1.32 1.98 2 3 C3.65 2.67 5.3 2.34 7 2 C7.99 3.485 7.99 3.485 9 5 C8.67 5.99 8.34 6.98 8 8 C7.67 7.34 7.34 6.68 7 6 C4.87423218 5.53348793 4.87423218 5.53348793 2.4375 5.375 C1.61121094 5.30023437 0.78492188 5.22546875 -0.06640625 5.1484375 C-0.70449219 5.09945313 -1.34257812 5.05046875 -2 5 C-1.34 3.35 -0.68 1.7 0 0 Z " fill="#141212" transform="translate(27,26)"/>
<path d="M0 0 C0.99 0.66 1.98 1.32 3 2 C0.69 4.31 -1.62 6.62 -4 9 C-4.33 8.01 -4.66 7.02 -5 6 C-3.59554165 3.7363436 -1.8032087 1.9791315 0 0 Z " fill="#1B1919" transform="translate(11,5)"/>
<path d="M0 0 C5.40049736 0.31767632 7.52337065 3.19996327 11 7 C10.67 7.99 10.34 8.98 10 10 C8.9171875 8.63875 8.9171875 8.63875 7.8125 7.25 C5.47347206 4.4298006 2.94933345 2.19093342 0 0 Z " fill="#151313" transform="translate(43,4)"/>
</svg>
