<?xml version="1.0" encoding="UTF-8"?>
<svg version="1.1" xmlns="http://www.w3.org/2000/svg" width="225" height="225">
<path d="M0 0 C1.32 0 2.64 0 4 0 C7 4.07142857 7 4.07142857 7 7 C10.26460973 5.19587357 11.88929795 4.16605307 14 1 C15.32 1.33 16.64 1.66 18 2 C18.99 5.96 18.99 5.96 20 10 C21.0828125 9.319375 21.0828125 9.319375 22.1875 8.625 C24.74894081 7.14505642 27.23277989 6.02782461 30 5 C32.09350689 8.4019487 32.17942163 11.05272412 32 15 C33.0725 14.484375 34.145 13.96875 35.25 13.4375 C38.61114527 11.82156477 39.00883715 12.00220929 43 13 C43.495 17.455 43.495 17.455 44 22 C46.97 21.67 49.94 21.34 53 21 C54.00000429 25.00001715 53.80688405 27.05523353 53 31 C55.97 31.33 58.94 31.66 62 32 C61.44687265 36.02992782 60.8441938 40.02022924 60 44 C62.64 44.33 65.28 44.66 68 45 C68.6875 46.6875 68.6875 46.6875 69 49 C67.5625 51.75 67.5625 51.75 66 54 C66.74056641 54.47566406 66.74056641 54.47566406 67.49609375 54.9609375 C71.27269821 57.71170372 73.50771248 59.91775223 74.3125 64.625 C74.64731822 75.80792847 65.07485622 88.38207798 57.8828125 96.34375 C56 98 56 98 54 98 C53.76731085 91.71739294 54.59545452 86.11980533 56 80 C55.2575 80.78375 54.515 81.5675 53.75 82.375 C51.40578023 84.61266433 49.85675015 85.69370826 47 87 C47.14168137 85.56208484 47.28851043 84.1246763 47.4375 82.6875 C47.55931641 81.48673828 47.55931641 81.48673828 47.68359375 80.26171875 C48 78 48 78 49 75 C48.34 75 47.68 75 47 75 C46.814375 75.86625 46.62875 76.7325 46.4375 77.625 C44.97971483 81.04762604 44.3161927 81.74382714 41.5 83.875 C38.70194674 86.07674683 37.60483345 87.35596902 37 90.875 C36.0733094 96.17037486 32.87976594 99.45133006 29 103 C24.64729535 105.74907662 20.00360499 105.14936134 15 105 C16.98 102.03 18.96 99.06 21 96 C15.72 96 10.44 96 5 96 C5.33655166 89.49333455 6.37869575 86.62130425 11 82 C11.66 81.67 12.32 81.34 13 81 C7.39 81 1.78 81 -4 81 C-3.030625 82.010625 -2.06125 83.02125 -1.0625 84.0625 C2.18090475 87.44392198 2.56311007 90.39329989 3 95 C0.54159395 95.02691685 -1.91651882 95.04679802 -4.375 95.0625 C-5.07367188 95.07087891 -5.77234375 95.07925781 -6.4921875 95.08789062 C-11.7734375 95.11328125 -11.7734375 95.11328125 -14 94 C-13.566875 94.53109375 -13.13375 95.0621875 -12.6875 95.609375 C-12.130625 96.31578125 -11.57375 97.0221875 -11 97.75 C-10.443125 98.44609375 -9.88625 99.1421875 -9.3125 99.859375 C-8 102 -8 102 -8 106 C-13.9707463 106.49756219 -18.03745311 105.4155181 -23 102 C-26.61123889 98.8421201 -29.16021443 95.89954205 -29.875 91.0625 C-29.91625 90.051875 -29.9575 89.04125 -30 88 C-30.7425 87.731875 -31.485 87.46375 -32.25 87.1875 C-34.86636554 86.05770579 -36.80187111 84.79106798 -39 83 C-39 84.32 -39 85.64 -39 87 C-42.44428265 85.55218207 -44.36130962 83.72305391 -46.75 80.875 C-47.36359375 80.15054688 -47.9771875 79.42609375 -48.609375 78.6796875 C-49.06828125 78.12539062 -49.5271875 77.57109375 -50 77 C-49.71125 77.92941406 -49.4225 78.85882813 -49.125 79.81640625 C-48.75375 81.05261719 -48.3825 82.28882813 -48 83.5625 C-47.62875 84.78066406 -47.2575 85.99882812 -46.875 87.25390625 C-46.00485057 90.97923349 -45.84311596 94.19065949 -46 98 C-53.49602894 94.64825138 -58.46735631 87.60280105 -63.375 81.25 C-64.01816162 80.41795044 -64.01816162 80.41795044 -64.67431641 79.5690918 C-68.40762188 74.64074139 -70.49394561 71.37532308 -70.31640625 65.03125 C-69.78254307 61.60398018 -68.25665977 59.56161379 -66 57 C-63.25 55.625 -63.25 55.625 -61 55 C-62.0209375 53.63875 -62.0209375 53.63875 -63.0625 52.25 C-65 49 -65 49 -64.8125 46.6875 C-64 45 -64 45 -63 44 C-60.67182036 43.63239269 -58.3381615 43.29758419 -56 43 C-56.350625 42.113125 -56.70125 41.22625 -57.0625 40.3125 C-58.01755602 36.93796874 -57.97151132 35.30313848 -57 32 C-54.03 32 -51.06 32 -48 32 C-48.66 28.7 -49.32 25.4 -50 22 C-45.99998285 20.99999571 -43.94476647 21.19311595 -40 22 C-39.67 19.03 -39.34 16.06 -39 13 C-33.86057616 11.71514404 -32.62164416 12.77805569 -28 15 C-27.67 12.03 -27.34 9.06 -27 6 C-25.68 5.67 -24.36 5.34 -23 5 C-20.375 6.875 -20.375 6.875 -18 9 C-17.34 9.33 -16.68 9.66 -16 10 C-15.814375 8.6078125 -15.814375 8.6078125 -15.625 7.1875 C-15 4 -15 4 -13 1 C-10.18127263 1.38878998 -9.22804402 1.70810365 -7.4375 4 C-6.963125 4.66 -6.48875 5.32 -6 6 C-5.01 6.33 -4.02 6.66 -3 7 C-2.5359375 5.824375 -2.5359375 5.824375 -2.0625 4.625 C-1 2 -1 2 0 0 Z " fill="#DF3816" transform="translate(110,69)"/>
<path d="M0 0 C0.65669678 0.12117187 1.31339355 0.24234375 1.98999023 0.3671875 C24.77259869 4.47180643 46.25705731 5.70459586 69 1 C70.99846731 0.65759743 72.99793603 0.32070387 75 0 C72.375 5.75 72.375 5.75 69 8 C66.875 7.6875 66.875 7.6875 64 7 C62.52528151 6.74376425 61.04529858 6.51685207 59.5625 6.3125 C58.84191406 6.20550781 58.12132812 6.09851563 57.37890625 5.98828125 C54.89482973 5.86794228 54.89482973 5.86794228 52.30078125 6.97265625 C47.99345953 8.31327828 44.10217826 8.21782826 39.625 8.125 C38.79355469 8.11597656 37.96210937 8.10695312 37.10546875 8.09765625 C35.07018663 8.0742622 33.03505436 8.03839725 31 8 C31.45060791 8.46978271 31.90121582 8.93956543 32.36547852 9.42358398 C36.32394391 13.55049471 37.44671461 16.16599077 38 22 C35.54159395 22.02691685 33.08348118 22.04679802 30.625 22.0625 C29.92632812 22.07087891 29.22765625 22.07925781 28.5078125 22.08789062 C23.2265625 22.11328125 23.2265625 22.11328125 21 21 C21.433125 21.53109375 21.86625 22.0621875 22.3125 22.609375 C22.869375 23.31578125 23.42625 24.0221875 24 24.75 C24.556875 25.44609375 25.11375 26.1421875 25.6875 26.859375 C27 29 27 29 27 33 C21.0292537 33.49756219 16.96254689 32.4155181 12 29 C7.17704479 24.78252402 5.51884145 21.48551807 5 15 C4.34 14.67 3.68 14.34 3 14 C3 13.01 3 12.02 3 11 C3.99 10.34 4.98 9.68 6 9 C5.566875 8.43410156 5.13375 7.86820313 4.6875 7.28515625 C3.8521875 6.18494141 3.8521875 6.18494141 3 5.0625 C2.443125 4.33160156 1.88625 3.60070312 1.3125 2.84765625 C0 1 0 1 0 0 Z " fill="#DA3717" transform="translate(75,142)"/>
<path d="M0 0 C2.25 -0.25 2.25 -0.25 5 0 C8.83098121 3.0860682 9.83254626 5.49291635 10.375 10.375 C10 14 10 14 8 16.875 C3.97570219 19.72554428 1.93700599 20.15673035 -3 20 C-6.13078725 17.02976594 -7.87586773 14.42752116 -8.25 10.125 C-7.97637294 6.70466178 -7.28639008 5.47692259 -5 3 C-4.67 5.31 -4.34 7.62 -4 10 C-2.35 10 -0.7 10 1 10 C1.0309375 8.081875 1.0309375 8.081875 1.0625 6.125 C1.07410156 5.40570313 1.08570313 4.68640625 1.09765625 3.9453125 C1.12649242 1.91814596 1.12649242 1.91814596 0 0 Z " fill="#0D0606" transform="translate(128,117)"/>
<path d="M0 0 C3.63820044 -0.33074549 5.3773086 -0.48805542 8.3125 1.8125 C11.31967205 5.71068599 11.41358896 9.20236803 11 14 C9.20437595 16.75329021 7.94745078 18.52627461 5 20 C1.12785818 20.43023798 -0.52496371 20.31669086 -3.8125 18.125 C-6.57848899 15.43803926 -6.98498799 14.75060045 -7.0625 10.875 C-7.041875 9.92625 -7.02125 8.9775 -7 8 C-6.4225 8.350625 -5.845 8.70125 -5.25 9.0625 C-2.64198224 10.14917407 -1.60582371 9.93065133 1 9 C1.26932521 4.34947128 1.26932521 4.34947128 0 0 Z " fill="#040202" transform="translate(97,117)"/>
<path d="M0 0 C0.65669678 0.12117187 1.31339355 0.24234375 1.98999023 0.3671875 C24.77259869 4.47180643 46.25705731 5.70459586 69 1 C70.99846731 0.65759743 72.99793603 0.32070387 75 0 C72.375 5.75 72.375 5.75 69 8 C66.875 7.6875 66.875 7.6875 64 7 C62.52528151 6.74376425 61.04529858 6.51685207 59.5625 6.3125 C58.84191406 6.20550781 58.12132812 6.09851563 57.37890625 5.98828125 C54.90166244 5.8669548 54.90166244 5.8669548 52.34375 6.96484375 C47.82561591 8.36356517 43.63737366 8.29125712 38.9375 8.25 C38.05255859 8.25773438 37.16761719 8.26546875 36.25585938 8.2734375 C31.65708977 8.25963774 28.22217706 7.98326115 24 6 C20.2158295 5.51264471 16.92269211 5.62652939 13.375 7.0625 C10.15632669 8.33302894 8.29045231 7.98013473 5 7 C2.18994929 4.72158051 1.15101182 3.45303547 0 0 Z " fill="#911E19" transform="translate(75,142)"/>
<path d="M0 0 C-0.96355353 9.41002278 -0.96355353 9.41002278 -2 14 C-2.99 14.33 -3.98 14.66 -5 15 C-5.99 16.2375 -5.99 16.2375 -7 17.5 C-9 20 -9 20 -12 21 C-12.2709791 6.58729901 -12.2709791 6.58729901 -9.2578125 2.82421875 C-6.02598121 0.81764218 -3.82392237 0 0 0 Z " fill="#891D1A" transform="translate(169,135)"/>
<path d="M0 0 C3.64275806 0.48805885 6.74994466 1.25340538 10 3 C13.86128654 8.29547868 15.28820726 13.49612293 15 20 C11.58139248 18.56177525 9.72092162 16.78464276 7.375 13.9375 C5.04514448 11.02124288 5.04514448 11.02124288 2 9 C1.3671875 6.93359375 1.3671875 6.93359375 0.875 4.4375 C0.70742188 3.61121094 0.53984375 2.78492188 0.3671875 1.93359375 C0.24601562 1.29550781 0.12484375 0.65742188 0 0 Z " fill="#891D1A" transform="translate(56,136)"/>
<path d="M0 0 C3.53571429 0.53571429 3.53571429 0.53571429 5 2 C5.1875 5.4375 5.1875 5.4375 5 9 C4.34 9.66 3.68 10.32 3 11 C-0.53571429 10.46428571 -0.53571429 10.46428571 -2 9 C-2.1875 5.5625 -2.1875 5.5625 -2 2 C-1.34 1.34 -0.68 0.68 0 0 Z " fill="#EFEDEC" transform="translate(94,117)"/>
<path d="M0 0 C3.53571429 0.53571429 3.53571429 0.53571429 5 2 C5.23529412 7.52941176 5.23529412 7.52941176 4 10 C2.35 10 0.7 10 -1 10 C-2.38125018 7.23749964 -2.19079306 5.05268901 -2 2 C-1.34 1.34 -0.68 0.68 0 0 Z " fill="#F1EFEF" transform="translate(125,117)"/>
<path d="M0 0 C-1.80412643 3.26460973 -2.83394693 4.88929795 -6 7 C-8.84120234 6.64484971 -11.28047752 5.90650749 -14 5 C-13.67 4.01 -13.34 3.02 -13 2 C-10.56640625 1.015625 -10.56640625 1.015625 -7.5625 0.25 C-6.57378906 -0.01296875 -5.58507812 -0.2759375 -4.56640625 -0.546875 C-2 -1 -2 -1 0 0 Z " fill="#8A1E19" transform="translate(150,143)"/>
<path d="M0 0 C3.375 0.3125 3.375 0.3125 7 1 C7.66 1.99 8.32 2.98 9 4 C11.05925139 4.72382467 11.05925139 4.72382467 13 5 C13 5.66 13 6.32 13 7 C7.75067024 8.19302949 7.75067024 8.19302949 4.8125 7.4375 C2.24377887 5.40023842 1.28984975 2.96665442 0 0 Z " fill="#631612" transform="translate(75,142)"/>
<path d="M0 0 C3.16470185 4.74705277 3.10927475 8.31771295 3 14 C1.68 13.34 0.36 12.68 -1 12 C-0.73958333 10.046875 -0.47916667 8.09375 -0.21875 6.140625 C0.06777357 3.69541605 0.06777357 3.69541605 0 0 Z " fill="#BB331C" transform="translate(61,153)"/>
<path d="M0 0 C3.14624993 -0.26218749 4.61837017 -0.24754367 7.3125 1.5 C8.1478125 2.2425 8.1478125 2.2425 9 3 C8.34 3.66 7.68 4.32 7 5 C4.17042171 4.63723355 1.70915709 3.90305236 -1 3 C-0.67 2.01 -0.34 1.02 0 0 Z " fill="#521310" transform="translate(137,145)"/>
</svg>
