<?xml version="1.0" encoding="UTF-8"?>
<svg version="1.1" xmlns="http://www.w3.org/2000/svg" width="316" height="316">
<path d="M0 0 C2.64578786 0.02148665 5.28886227 0.00002068 7.93457031 -0.02539062 C37.974185 -0.07449226 67.15617664 9.81128801 91.86035156 26.77148438 C94.43610654 28.60746991 94.43610654 28.60746991 96.89941406 29.02148438 C97.475625 29.18648437 98.05183594 29.35148437 98.64550781 29.52148438 C99.32943282 30.846048 99.9931132 32.18110999 100.64550781 33.52148438 C102.31925995 35.02314259 104.05697678 36.45480441 105.83300781 37.83398438 C109.92252396 41.07665445 113.66388025 44.38132661 117.20800781 48.20898438 C118.72694704 49.77426326 118.72694704 49.77426326 121.64550781 50.52148438 C121.64550781 51.51148438 121.64550781 52.50148437 121.64550781 53.52148438 C123.87878923 55.51968354 125.9620503 57.17975562 128.64550781 58.52148438 C128.97550781 59.51148438 129.30550781 60.50148437 129.64550781 61.52148438 C130.77085937 62.63716797 130.77085937 62.63716797 131.91894531 63.77539062 C134.91028462 66.78815786 137.0346082 69.87768999 139.27050781 73.45898438 C139.65207031 74.05388672 140.03363281 74.64878906 140.42675781 75.26171875 C146.30688596 84.53812781 146.30688596 84.53812781 147.08300781 89.08398438 C147.8220028 92.28629599 149.5805787 94.00485202 151.64550781 96.52148438 C152.0073673 97.84736016 152.33664421 99.18227111 152.64550781 100.52148438 C153.30197278 102.23376384 153.96959352 103.94178877 154.64550781 105.64648438 C156.40882826 110.36558658 157.16620699 114.60314892 157.37207031 119.62304688 C157.46230469 120.24953125 157.55253906 120.87601562 157.64550781 121.52148438 C158.30550781 121.85148437 158.96550781 122.18148437 159.64550781 122.52148438 C161.34964605 130.07743797 160.8063664 138.34889671 160.81347656 146.04492188 C160.81680496 147.30865631 160.82013336 148.57239075 160.82356262 149.87442017 C160.82859935 152.52845831 160.83140747 155.18239375 160.83081055 157.83642578 C160.83070819 161.23246797 160.84445805 164.62830452 160.86158276 168.02429771 C160.8753653 171.28116475 160.87479025 174.53802962 160.87597656 177.79492188 C160.88316208 179.01158539 160.8903476 180.2282489 160.89775085 181.48178101 C160.89467422 182.61040558 160.8915976 183.73903015 160.88842773 184.90185547 C160.88985275 185.89317474 160.89127777 186.88449402 160.89274597 187.90585327 C160.63626911 190.61922429 160.01792344 192.19555135 158.64550781 194.52148438 C156.97940804 197.85368393 156.51208793 200.66533744 156.27050781 204.33398438 C155.91096451 208.808301 154.7386187 211.89371255 152.55175781 215.77539062 C151.48956075 217.61236973 151.48956075 217.61236973 151.14550781 220.27148438 C150.64550781 222.52148438 150.64550781 222.52148438 148.64550781 224.45898438 C146.39770499 226.36920393 146.39770499 226.36920393 146.28222656 229.18945312 C145.47868591 233.39448489 143.71055294 236.30539093 141.45800781 239.89648438 C141.05380615 240.55406738 140.64960449 241.21165039 140.2331543 241.88916016 C132.26210502 254.71318577 132.26210502 254.71318577 128.64550781 256.52148438 C128.31550781 257.51148438 127.98550781 258.50148438 127.64550781 259.52148438 C126.33017371 260.2229959 124.9943319 260.88674363 123.64550781 261.52148438 C121.87359872 262.87592738 121.87359872 262.87592738 120.64550781 264.52148438 C120.64550781 265.51148438 120.64550781 266.50148438 120.64550781 267.52148438 C120.05382812 267.7917041 119.46214844 268.06192383 118.85253906 268.34033203 C116.66401721 269.51157857 115.13329228 270.72436756 113.33300781 272.41992188 C112.73230469 272.98195313 112.13160156 273.54398437 111.51269531 274.12304688 C110.89652344 274.70828125 110.28035156 275.29351562 109.64550781 275.89648438 C109.02933594 276.47398437 108.41316406 277.05148437 107.77832031 277.64648438 C102.03887846 282.56376006 102.03887846 282.56376006 97.64550781 288.52148438 C96.92878906 288.64394531 96.21207031 288.76640625 95.47363281 288.89257812 C91.8819087 289.69129025 89.36368253 291.52000204 86.39550781 293.58398438 C62.42191652 309.5312173 33.94650245 317.31819692 5.29101562 317.04296875 C2.64522776 317.0214821 0.00215336 317.04294807 -2.64355469 317.06835938 C-32.68316938 317.11746101 -61.86516102 307.23168074 -86.56933594 290.27148438 C-89.14509092 288.43549884 -89.14509092 288.43549884 -91.60839844 288.02148438 C-92.18460938 287.85648437 -92.76082031 287.69148438 -93.35449219 287.52148438 C-94.0384172 286.19692075 -94.70209758 284.86185876 -95.35449219 283.52148438 C-97.02824432 282.01982616 -98.76596115 280.58816434 -100.54199219 279.20898438 C-104.63150834 275.9663143 -108.37286463 272.66164214 -111.91699219 268.83398438 C-113.43593141 267.26870549 -113.43593141 267.26870549 -116.35449219 266.52148438 C-116.35449219 265.53148437 -116.35449219 264.54148437 -116.35449219 263.52148438 C-118.5877736 261.52328521 -120.67103468 259.86321313 -123.35449219 258.52148438 C-123.68449219 257.53148437 -124.01449219 256.54148437 -124.35449219 255.52148438 C-125.10472656 254.77769531 -125.85496094 254.03390625 -126.62792969 253.26757812 C-129.61926899 250.25481089 -131.74359257 247.16527876 -133.97949219 243.58398438 C-134.36105469 242.98908203 -134.74261719 242.39417969 -135.13574219 241.78125 C-141.01587033 232.50484094 -141.01587033 232.50484094 -141.79199219 227.95898438 C-142.53098718 224.75667276 -144.28956307 223.03811673 -146.35449219 220.52148438 C-146.71635168 219.19560859 -147.04562859 217.86069764 -147.35449219 216.52148438 C-148.01095716 214.80920491 -148.6785779 213.10117998 -149.35449219 211.39648438 C-151.11781263 206.67738217 -151.87519136 202.43981983 -152.08105469 197.41992188 C-152.17128906 196.7934375 -152.26152344 196.16695312 -152.35449219 195.52148438 C-153.01449219 195.19148437 -153.67449219 194.86148438 -154.35449219 194.52148438 C-156.05863042 186.96553078 -155.51535078 178.69407204 -155.52246094 170.99804688 C-155.52578934 169.73431244 -155.52911774 168.470578 -155.532547 167.16854858 C-155.53758373 164.51451044 -155.54039185 161.860575 -155.53979492 159.20654297 C-155.53969257 155.81050078 -155.55344243 152.41466423 -155.57056713 149.01867104 C-155.58434968 145.761804 -155.58377462 142.50493913 -155.58496094 139.24804688 C-155.59214645 138.03138336 -155.59933197 136.81471985 -155.60673523 135.56118774 C-155.6036586 134.43256317 -155.60058197 133.3039386 -155.59741211 132.14111328 C-155.59883713 131.14979401 -155.60026215 130.15847473 -155.60173035 129.13711548 C-155.34525349 126.42374446 -154.72690781 124.8474174 -153.35449219 122.52148438 C-151.68839241 119.18928482 -151.22107231 116.37763131 -150.97949219 112.70898438 C-150.61994889 108.23466775 -149.44760307 105.1492562 -147.26074219 101.26757812 C-146.19854512 99.43059902 -146.19854512 99.43059902 -145.85449219 96.77148438 C-145.35449219 94.52148438 -145.35449219 94.52148438 -143.35449219 92.58398438 C-141.10668936 90.67376482 -141.10668936 90.67376482 -140.99121094 87.85351562 C-140.18767028 83.64848386 -138.41953731 80.73757782 -136.16699219 77.14648438 C-135.76279053 76.48890137 -135.35858887 75.83131836 -134.94213867 75.15380859 C-126.97108939 62.32978298 -126.97108939 62.32978298 -123.35449219 60.52148438 C-123.02449219 59.53148437 -122.69449219 58.54148438 -122.35449219 57.52148438 C-121.03915808 56.81997285 -119.70331627 56.15622512 -118.35449219 55.52148438 C-116.5825831 54.16704137 -116.5825831 54.16704137 -115.35449219 52.52148438 C-115.35449219 51.53148437 -115.35449219 50.54148438 -115.35449219 49.52148438 C-114.75894531 49.26238281 -114.16339844 49.00328125 -113.54980469 48.73632812 C-111.19377794 47.4325482 -109.92967476 46.15357834 -108.22949219 44.08398438 C-107.73191406 43.48714844 -107.23433594 42.8903125 -106.72167969 42.27539062 C-105.52783724 40.74386132 -104.43164539 39.13721418 -103.35449219 37.52148438 C-102.77699219 37.39773437 -102.19949219 37.27398437 -101.60449219 37.14648438 C-98.09962655 36.17291059 -95.97617316 33.96838661 -93.35449219 31.52148438 C-92.85949219 30.03648438 -92.85949219 30.03648438 -92.35449219 28.52148438 C-91.65839844 28.44027344 -90.96230469 28.3590625 -90.24511719 28.27539062 C-86.67719342 27.34483753 -84.08682698 25.53281321 -81.10449219 23.45898438 C-57.1309009 7.51175145 -28.65548683 -0.27522817 0 0 Z M-147.35449219 102.52148438 C-146.35449219 104.52148438 -146.35449219 104.52148438 -146.35449219 104.52148438 Z M151.64550781 102.52148438 C152.64550781 104.52148438 152.64550781 104.52148438 152.64550781 104.52148438 Z M-148.35449219 105.52148438 C-147.35449219 107.52148438 -147.35449219 107.52148438 -147.35449219 107.52148438 Z M152.64550781 105.52148438 C153.64550781 107.52148438 153.64550781 107.52148438 153.64550781 107.52148438 Z M-149.35449219 107.52148438 C-148.35449219 109.52148438 -148.35449219 109.52148438 -148.35449219 109.52148438 Z M153.64550781 107.52148438 C154.64550781 109.52148438 154.64550781 109.52148438 154.64550781 109.52148438 Z M-154.35449219 127.52148438 C-153.35449219 131.52148438 -153.35449219 131.52148438 -153.35449219 131.52148438 Z M158.64550781 127.52148438 C159.64550781 131.52148438 159.64550781 131.52148438 159.64550781 131.52148438 Z M-154.35449219 185.52148438 C-153.35449219 189.52148438 -153.35449219 189.52148438 -153.35449219 189.52148438 Z M158.64550781 185.52148438 C159.64550781 189.52148438 159.64550781 189.52148438 159.64550781 189.52148438 Z M-149.35449219 207.52148438 C-148.35449219 209.52148438 -148.35449219 209.52148438 -148.35449219 209.52148438 Z M153.64550781 207.52148438 C154.64550781 209.52148438 154.64550781 209.52148438 154.64550781 209.52148438 Z M-148.35449219 209.52148438 C-147.35449219 211.52148438 -147.35449219 211.52148438 -147.35449219 211.52148438 Z M152.64550781 209.52148438 C153.64550781 211.52148438 153.64550781 211.52148438 153.64550781 211.52148438 Z M-147.35449219 212.52148438 C-146.35449219 214.52148438 -146.35449219 214.52148438 -146.35449219 214.52148438 Z M151.64550781 212.52148438 C152.64550781 214.52148438 152.64550781 214.52148438 152.64550781 214.52148438 Z " fill="#000000" transform="translate(155.3544921875,-0.521484375)"/>
<path d="M0 0 C1.23944366 -0.00860046 2.47888733 -0.01720093 3.75588989 -0.02606201 C5.1422115 -0.03049766 6.52853354 -0.03479598 7.91485596 -0.03897095 C9.36500243 -0.0468687 10.81514691 -0.05513744 12.26528931 -0.06375122 C17.04071159 -0.09001281 21.81614282 -0.1052846 26.59161377 -0.11953735 C28.23369605 -0.12489565 29.87577826 -0.13027315 31.51786041 -0.13566971 C38.34797276 -0.15730598 45.1780827 -0.17604297 52.00822067 -0.1872921 C61.80509042 -0.2035317 71.60156353 -0.23670082 81.39828372 -0.29369295 C88.28155234 -0.33237367 95.1647148 -0.35192265 102.04808927 -0.35721266 C106.16145859 -0.36086922 110.27440528 -0.37292161 114.38765717 -0.4053154 C118.25866059 -0.43536301 122.12898499 -0.44172016 126.00008011 -0.42993164 C127.42028202 -0.42971061 128.84051512 -0.43804023 130.26060867 -0.45558548 C132.2007878 -0.47824974 134.14127439 -0.46700617 136.08154297 -0.45410156 C137.16703808 -0.45741171 138.25253319 -0.46072186 139.37092209 -0.46413231 C143.26637332 0.35928296 144.72832697 2.1903798 147.29473877 5.15390015 C148.38915283 6.23091187 148.38915283 6.23091187 149.50567627 7.3296814 C153.59816543 11.3704604 157.53228009 15.46594633 161.25958252 19.8453064 C162.92333085 21.73259097 164.61965517 23.55449425 166.36114502 25.3687439 C166.90537109 25.94076538 167.44959717 26.51278687 168.01031494 27.10214233 C169.09769256 28.2418331 170.1926854 29.37431739 171.29595947 30.49862671 C174.19097497 33.55011699 176.24927393 35.82716253 176.29473877 40.15390015 C173.60165238 42.84698653 172.23724675 42.41187552 168.46922302 42.42805481 C167.22840469 42.43802994 165.98758636 42.44800507 164.70916748 42.45828247 C163.32647718 42.45917834 161.94378671 42.45984188 160.56109619 42.46029663 C159.11079988 42.46791477 157.66050762 42.47634167 156.21022034 42.48551941 C152.26384019 42.507508 148.31753754 42.51626935 144.37110305 42.52134585 C141.90630592 42.52498489 139.44152924 42.53122263 136.97673988 42.53834724 C128.37984955 42.56285881 119.78301968 42.5758969 111.18609619 42.57943726 C103.16984582 42.58307184 95.15397851 42.61295708 87.13784522 42.65484184 C80.25878941 42.68952643 73.37986061 42.70498539 66.50071794 42.70568329 C62.39073699 42.70647687 58.28114581 42.71525171 54.17125511 42.74368095 C50.30431617 42.76983 46.43809093 42.77208518 42.57110405 42.75602531 C41.15252376 42.75420813 39.73390276 42.76092605 38.31541061 42.77684402 C27.59358467 42.88981614 27.59358467 42.88981614 24.39434242 41.07715034 C23.05030823 39.75242615 23.05030823 39.75242615 21.29473877 37.15390015 C20.56512939 36.43589233 19.83552002 35.71788452 19.08380127 34.9781189 C14.97039234 30.91668445 11.02038186 26.7929742 7.25958252 22.40390015 C4.25413857 18.96227844 1.1398383 15.62097188 -1.9743042 12.27767944 C-4.10092678 9.97855659 -5.96283739 7.76753591 -7.70526123 5.15390015 C-6.90643332 -0.27812968 -5.16381566 0.0265449 0 0 Z " fill="#4A89C1" transform="translate(73.70526123046875,136.84609985351563)"/>
<path d="M0 0 C1.25645828 -0.00137466 2.51291656 -0.00274933 3.80744934 -0.00416565 C5.20751977 -0.00062627 6.60758996 0.00300854 8.00765991 0.00672913 C9.47591652 0.00701107 10.94417328 0.00685312 12.41242981 0.00628662 C16.40599794 0.00599894 20.39953622 0.01189094 24.3930974 0.01886058 C28.56380087 0.02509899 32.73450498 0.0256983 36.9052124 0.02688599 C44.80645472 0.02999786 52.70768326 0.03820932 60.6089195 0.04823548 C69.60274692 0.05940107 78.59657499 0.06490819 87.59040761 0.06993091 C106.09457115 0.08039204 124.59872185 0.09798871 143.10287476 0.12025452 C143.69564819 2.47938538 143.69564819 2.47938538 144.10287476 5.12025452 C142.61849976 7.37416077 142.61849976 7.37416077 140.35287476 9.68275452 C139.52271851 10.55029358 138.69256226 11.41783264 137.83724976 12.31166077 C136.93490601 13.2384967 136.03256226 14.16533264 135.10287476 15.12025452 C133.25526902 17.10728973 131.42990824 19.11431461 129.60287476 21.12025452 C128.67341087 22.1321787 127.74372453 23.14389861 126.81381226 24.15541077 C123.56746899 27.69635102 120.36692766 31.27794413 117.17318726 34.86634827 C116.14838257 35.98203186 116.14838257 35.98203186 115.10287476 37.12025452 C114.52643723 37.97937943 113.94999969 38.83850433 113.35609436 39.72366333 C109.67693347 43.3337889 104.97786704 42.72653329 100.11071777 42.76457214 C98.73415624 42.7500678 97.35759986 42.73506708 95.98104858 42.71961975 C94.52544232 42.72148436 93.06983746 42.7255222 91.61424255 42.73156738 C87.66797477 42.74153647 83.72242597 42.72038403 79.77626252 42.69308734 C75.64789866 42.66925296 71.51954894 42.67220228 67.39112854 42.67178345 C60.46166815 42.66715692 53.53248273 42.64352139 46.6031189 42.60731506 C38.58516058 42.56553304 30.56744964 42.54799729 22.54938871 42.54469532 C14.01801958 42.54109994 5.48673978 42.52223535 -3.04459214 42.49757504 C-5.50622675 42.49133906 -7.96785456 42.48770747 -10.42949486 42.48454094 C-14.29140163 42.47865295 -18.15313059 42.46237531 -22.01496315 42.43793678 C-23.43477632 42.43047876 -24.8546119 42.4264237 -26.27444458 42.42595673 C-28.20686109 42.42470467 -30.13925502 42.40994367 -32.0716095 42.39440918 C-33.15467471 42.38975867 -34.23773993 42.38510817 -35.3536253 42.38031673 C-37.89712524 42.12025452 -37.89712524 42.12025452 -39.89712524 40.12025452 C-39.9778398 37.2952451 -39.35912892 35.65383623 -37.51040649 33.51869202 C-36.29953253 32.32686551 -35.07436375 31.14946236 -33.83853149 29.98353577 C-32.00941562 28.22802616 -30.35829795 26.41938114 -28.70962524 24.49525452 C-24.99625609 20.18404135 -21.13191976 16.02098685 -17.24795532 11.86390686 C-14.79882319 9.23059612 -12.4255409 6.57391518 -10.15493774 3.78431702 C-6.79698367 -0.1778364 -5.03848893 -0.00423402 0 0 Z " fill="#30A2AE" transform="translate(105.89712524414063,74.87974548339844)"/>
<path d="M0 0 C1.10522979 0.00092179 2.21045958 0.00184359 3.34918118 0.00279331 C4.61267895 0.00141865 5.87617672 0.00004398 7.1779623 -0.00137234 C8.59110951 0.00216728 10.00425648 0.00580209 11.41740322 0.00952244 C12.89536442 0.0098043 14.37332577 0.00964659 15.85128689 0.00907993 C19.87590486 0.00879193 23.9004933 0.01468912 27.92510438 0.02165389 C32.12651023 0.02788694 36.32791668 0.02849119 40.52932644 0.0296793 C48.49080915 0.03279276 56.4522782 0.04100634 64.41375488 0.05102879 C73.47527247 0.06218947 82.5367907 0.06770026 91.59831345 0.07272422 C110.24366559 0.08318894 128.88900499 0.10078867 147.53434658 0.12304783 C148.10856533 2.51440525 148.10856533 2.51440525 148.53434658 5.12304783 C147.34684658 6.86132908 147.34684658 6.86132908 145.53434658 8.43554783 C142.97978946 10.77931635 140.59689256 13.10910502 138.34684658 15.74804783 C134.6318872 20.05975408 130.7632869 24.21980107 126.88957119 28.38818455 C124.16244979 31.33120847 121.48928104 34.29867876 118.90934658 37.37304783 C116.53434658 40.12304783 116.53434658 40.12304783 114.53434658 41.12304783 C112.57047377 41.21696248 110.60333772 41.24495454 108.63722134 41.24330235 C107.38076305 41.24467701 106.12430477 41.24605167 104.829772 41.24746799 C103.42970157 41.24392862 102.02963138 41.2402938 100.62956142 41.23657322 C99.16130481 41.23629127 97.69304806 41.23644923 96.22479153 41.23701572 C92.23122339 41.2373034 88.23768511 41.23141141 84.24412394 41.22444177 C80.07342046 41.21820336 75.90271635 41.21760404 71.73200893 41.21641636 C63.83076661 41.21330449 55.92953808 41.20509303 48.02830184 41.19506687 C39.03447442 41.18390128 30.04064635 41.17839415 21.04681373 41.17337143 C2.54265019 41.1629103 -15.96150051 41.14531363 -34.46565342 41.12304783 C-35.09455967 38.80004978 -35.09455967 38.80004978 -35.46565342 36.12304783 C-33.86148978 33.92036101 -32.38125042 32.20175397 -30.46565342 30.31054783 C-29.42981485 29.23828989 -28.39465672 28.16537419 -27.36018467 27.09179783 C-26.85567783 26.57746189 -26.351171 26.06312595 -25.83137608 25.53320408 C-24.20075325 23.84952917 -22.66958847 22.09735502 -21.15315342 20.31054783 C-3.72610853 0.18595053 -3.72610853 0.18595053 0 0 Z " fill="#6672D8" transform="translate(101.46565341949463,199.87695217132568)"/>
<path d="M0 0 C49.17 0 98.34 0 149 0 C149.33 1.65 149.66 3.3 150 5 C148.0625 7.3125 148.0625 7.3125 146 9 C146.33 7.02 146.66 5.04 147 3 C98.49 2.34 49.98 1.68 0 1 C0 0.67 0 0.34 0 0 Z " fill="#1C9A8E" transform="translate(100,75)"/>
<path d="M0 0 C1.16582108 0.00666183 1.16582108 0.00666183 2.35519409 0.01345825 C3.23595612 0.01360931 4.11671814 0.01376038 5.02416992 0.01391602 C6.4523555 0.02939987 6.4523555 0.02939987 7.90939331 0.04519653 C9.37008743 0.04944138 9.37008743 0.04944138 10.86029053 0.05377197 C13.9783443 0.0649899 17.09611349 0.09009734 20.21408081 0.11550903 C22.32475375 0.12553675 24.43543119 0.13466296 26.54611206 0.14285278 C31.72719916 0.16493445 36.90811966 0.19842774 42.08908081 0.24050903 C42.08908081 0.57050903 42.08908081 0.90050903 42.08908081 1.24050903 C40.88485474 1.20272339 39.68062866 1.16493774 38.43991089 1.12600708 C33.91255061 1.00167938 29.38779084 0.96532117 24.8588562 0.9536438 C22.91026912 0.93675272 20.9617259 0.89693748 19.01412964 0.83255005 C5.47777599 0.29405782 5.47777599 0.29405782 -5.8759613 6.78782654 C-8.40351376 9.47999871 -10.67889181 12.30264095 -12.91091919 15.24050903 C-14.08828619 16.58279848 -15.27248981 17.91925862 -16.47341919 19.24050903 C-16.98130981 19.84121216 -17.48920044 20.44191528 -18.01248169 21.06082153 C-19.63930642 22.92865734 -21.30135306 24.74024019 -22.99685669 26.54519653 C-23.54785034 27.13300903 -24.09884399 27.72082153 -24.66653442 28.32644653 C-25.77411827 29.50461092 -26.88552426 30.67919561 -28.00100708 31.84988403 C-30.94318956 34.58354121 -30.94318956 34.58354121 -31.91091919 38.24050903 C-9.14091919 38.57050903 13.62908081 38.90050903 37.08908081 39.24050903 C37.08908081 39.57050903 37.08908081 39.90050903 37.08908081 40.24050903 C13.32908081 40.24050903 -10.43091919 40.24050903 -34.91091919 40.24050903 C-33.88490789 35.11045252 -33.32309291 34.13697622 -29.91091919 30.55300903 C-28.68308716 29.24203247 -28.68308716 29.24203247 -27.43045044 27.90457153 C-26.59900513 27.02543091 -25.76755981 26.14629028 -24.91091919 25.24050903 C-23.46881884 23.64047668 -22.03125277 22.03634509 -20.59841919 20.42800903 C-16.918772 16.33878981 -13.20361464 12.28355598 -9.47341919 8.24050903 C-8.95287964 7.67614136 -8.43234009 7.11177368 -7.89602661 6.53030396 C-2.10405525 0.26481721 -2.10405525 0.26481721 0 0 Z " fill="#965CFE" transform="translate(100.91091918945313,199.75949096679688)"/>
<path d="M0 0 C5.49472203 -0.29918905 10.98460631 -0.51548819 16.4855957 -0.65917969 C18.35134521 -0.71912086 20.21654064 -0.80071623 22.08032227 -0.90527344 C38.39918191 -1.79706218 38.39918191 -1.79706218 43.58935547 2.54882812 C46.44019304 5.42934689 48.70879348 8.66128671 51 12 C52.47578947 13.68814194 53.97185908 15.35909686 55.5 17 C56.2115625 17.79792969 56.923125 18.59585938 57.65625 19.41796875 C59.40437247 21.343817 61.17062377 23.23525108 62.96875 25.11328125 C63.72381836 25.91088867 63.72381836 25.91088867 64.49414062 26.72460938 C65.47442477 27.75829421 66.4623757 28.78477933 67.45898438 29.80273438 C70.22920922 32.74085164 71.76837361 34.9103465 72 39 C71 40 71 40 67.67358398 40.11352539 C66.19774444 40.11336629 64.72189931 40.10767314 63.24609375 40.09765625 C62.47064713 40.0962413 61.6952005 40.09482635 60.89625549 40.09336853 C58.40996506 40.08775345 55.9237634 40.07519846 53.4375 40.0625 C51.75586067 40.05748694 50.07421994 40.0529237 48.39257812 40.04882812 C44.26168434 40.03777913 40.13085724 40.02050445 36 40 C36 39.67 36 39.34 36 39 C46.89 38.67 57.78 38.34 69 38 C69.35305718 35.02581478 69.35305718 35.02581478 67.609375 33.60546875 C66.99578125 33.13753906 66.3821875 32.66960937 65.75 32.1875 C62.3880515 29.46432172 60.40486118 26.60729177 58 23 C56.24682645 21.40878243 54.42579621 19.92797366 52.58984375 18.43359375 C50.52460309 16.57132514 49.42583211 14.37638686 48 12 C46.23047185 10.39356201 44.40717602 8.9001163 42.5234375 7.4296875 C41 6 41 6 40 3 C36.72684491 1.36342246 33.09377769 1.7569193 29.4921875 1.68359375 C28.65156769 1.66281265 27.81094788 1.64203156 26.94485474 1.62062073 C24.25498765 1.55514561 21.56502157 1.4962498 18.875 1.4375 C17.05337511 1.39431284 15.23176029 1.35069848 13.41015625 1.30664062 C8.94020606 1.19946632 4.47015614 1.09819315 0 1 C0 0.67 0 0.34 0 0 Z " fill="#31B0B9" transform="translate(178,138)"/>
<path d="M0 0 C3.35019856 1.39771725 4.90609174 2.89260006 6.9375 5.875 C8.79372417 8.48311244 10.21018635 10.16719369 12.75 12.1875 C15.35321364 14.28453321 15.88715523 15.90932658 17 19 C17.98653564 18.99419922 18.97307129 18.98839844 19.98950195 18.98242188 C35.65305254 18.92256132 51.31187978 19.20451651 66.97259521 19.46356201 C70.70762354 19.52500796 74.44268013 19.58468524 78.17773438 19.64453125 C85.45185096 19.76133367 92.7259349 19.88002974 100 20 C100 20.33 100 20.66 100 21 C89.36880328 21.27899557 78.73848766 21.49173113 68.10436535 21.62174606 C63.16534118 21.68417486 58.22883476 21.76872228 53.29125977 21.90527344 C48.51884377 22.03641922 43.74883601 22.1075607 38.97475624 22.13852692 C37.16088264 22.16056878 35.34712967 22.20361732 33.53429222 22.26876068 C18.61273846 22.78324969 18.61273846 22.78324969 13.49307251 18.39367676 C10.63319912 15.49958788 8.32973473 12.32876098 6 9 C4.786702 7.61097744 3.56042689 6.23299638 2.3125 4.875 C0 2 0 2 0 0 Z " fill="#697FE3" transform="translate(81,157)"/>
<path d="M0 0 C0.33 0.66 0.66 1.32 1 2 C-3.87534312 7.63408857 -8.87651968 13.13663512 -13.9609375 18.58203125 C-16.17306698 20.90279849 -16.17306698 20.90279849 -17 24 C-1.49 24 14.02 24 30 24 C30 24.33 30 24.66 30 25 C14.16 25 -1.68 25 -18 25 C-18.33 23.35 -18.66 21.7 -19 20 C-17.59375 18.04296875 -17.59375 18.04296875 -15.5 16.1875 C-12.57621686 13.48351175 -9.84189688 10.77575787 -7.25 7.75 C-4.93021817 5.05331998 -2.56870444 2.46595627 0 0 Z " fill="#618CE3" transform="translate(85,91)"/>
<path d="M0 0 C0.97096619 0.00565979 1.94193237 0.01131958 2.94232178 0.01715088 C6.04017669 0.03952189 9.13687033 0.08972027 12.234375 0.140625 C14.33592078 0.16068903 16.43748472 0.17893997 18.5390625 0.1953125 C23.6879467 0.2393892 28.83596403 0.30842242 33.984375 0.390625 C33.984375 0.720625 33.984375 1.050625 33.984375 1.390625 C32.78014893 1.35283936 31.57592285 1.31505371 30.33520508 1.27612305 C25.8078448 1.15179535 21.28308503 1.11543713 16.75415039 1.10375977 C14.80556331 1.08686869 12.85702008 1.04705345 10.90942383 0.98266602 C-2.60136612 0.43983764 -2.60136612 0.43983764 -13.94404602 6.89826965 C-16.02298199 9.11237389 -17.95737847 11.3883657 -19.79878235 13.80329895 C-21.51941104 16.04779518 -23.42360413 18.11447541 -25.328125 20.203125 C-26.22914827 21.26122739 -27.12751372 22.32166197 -28.015625 23.390625 C-29.005625 23.060625 -29.995625 22.730625 -31.015625 22.390625 C-30.37496094 21.7615625 -29.73429687 21.1325 -29.07421875 20.484375 C-24.39681355 15.85576538 -19.83942366 11.20264855 -15.5859375 6.1796875 C-15.06773438 5.58929688 -14.54953125 4.99890625 -14.015625 4.390625 C-13.52980957 3.70178223 -13.04399414 3.01293945 -12.54345703 2.30322266 C-8.61311763 -0.67053424 -4.79464727 -0.10510305 0 0 Z " fill="#8269EF" transform="translate(109.015625,199.609375)"/>
<path d="M0 0 C1.08194641 0.00707474 2.16389282 0.01414948 3.27862549 0.0214386 C6.73332949 0.04942081 10.18641111 0.11216994 13.640625 0.17578125 C15.98304951 0.20085901 18.32549942 0.22367308 20.66796875 0.24414062 C26.40940744 0.29925997 32.14990032 0.38292537 37.890625 0.48828125 C37.890625 0.81828125 37.890625 1.14828125 37.890625 1.48828125 C37.32543655 1.49192688 36.76024811 1.49557251 36.17793274 1.49932861 C30.28885967 1.54117873 24.40056414 1.61054153 18.51196289 1.69580078 C16.31510194 1.72400515 14.11813961 1.74522232 11.92114258 1.75927734 C8.7607027 1.78071374 5.60148104 1.82736905 2.44140625 1.87890625 C1.46101883 1.88013489 0.48063141 1.88136353 -0.52946472 1.88262939 C-4.87603279 1.97573227 -7.40481904 2.04588959 -11.14916992 4.39697266 C-13.06104962 6.43672374 -14.94521017 8.46464952 -16.734375 10.61328125 C-18.82568066 13.12095545 -20.34936294 14.64827321 -23.109375 16.48828125 C-23.109375 13.48828125 -23.109375 13.48828125 -21.5 11.62109375 C-20.44039063 10.62722656 -20.44039063 10.62722656 -19.359375 9.61328125 C-17.02927666 7.41263282 -15.22936951 5.70525233 -13.66992188 2.88549805 C-9.60314491 -0.92187066 -5.36536348 -0.13172071 0 0 Z " fill="#3BAAC3" transform="translate(109.109375,75.51171875)"/>
<path d="M0 0 C23.76 0 47.52 0 72 0 C70.875 5.625 70.875 5.625 68 8 C68.33 6.02 68.66 4.04 69 2 C46.23 1.67 23.46 1.34 0 1 C0 0.67 0 0.34 0 0 Z " fill="#16D1AA" transform="translate(178,76)"/>
<path d="M0 0 C14.52 0 29.04 0 44 0 C44.495 2.475 44.495 2.475 45 5 C43.63671875 6.94921875 43.63671875 6.94921875 41.6875 8.6875 C41.05199219 9.26886719 40.41648438 9.85023438 39.76171875 10.44921875 C39.18035156 10.96097656 38.59898437 11.47273437 38 12 C37.34 12.66 36.68 13.32 36 14 C35.505 12.515 35.505 12.515 35 11 C35.9520721 9.99403703 36.91187346 8.99538437 37.875 8 C38.40867188 7.443125 38.94234375 6.88625 39.4921875 6.3125 C41 5 41 5 43 5 C42.505 3.515 42.505 3.515 42 2 C28.47 2 14.94 2 1 2 C0.67 1.34 0.34 0.68 0 0 Z " fill="#47A9D3" transform="translate(205,200)"/>
<path d="M0 0 C14.52 0 29.04 0 44 0 C44 0.33 44 0.66 44 1 C30.47 1.33 16.94 1.66 3 2 C3 3.32 3 4.64 3 6 C4.98260426 7.68732277 6.9832342 9.35366057 9 11 C9.69140625 13.15625 9.69140625 13.15625 10 15 C1.62224939 8.15189487 1.62224939 8.15189487 -1 4 C-0.67 2.68 -0.34 1.36 0 0 Z " fill="#6C85EE" transform="translate(67,138)"/>
<path d="M0 0 C0.66 0.33 1.32 0.66 2 1 C0.01639877 3.93731935 -2.01144516 6.07256866 -5 8 C-9.83854588 8.87269397 -14.54071042 8.66244086 -19.4375 8.4375 C-20.74138672 8.40591797 -22.04527344 8.37433594 -23.38867188 8.34179688 C-26.59477545 8.25958909 -29.79621025 8.14471601 -33 8 C-33 7.67 -33 7.34 -33 7 C-24.09 7 -15.18 7 -6 7 C-6 6.34 -6 5.68 -6 5 C-5.34 5 -4.68 5 -4 5 C-3.71125 4.360625 -3.4225 3.72125 -3.125 3.0625 C-2 1 -2 1 0 0 Z " fill="#2BCAC3" transform="translate(222,108)"/>
<path d="M0 0 C0.99 0.33 1.98 0.66 3 1 C-1.40843437 6.29012124 -6.07559794 11.18808428 -11 16 C-11.66 15.34 -12.32 14.68 -13 14 C-12.39671875 13.40832031 -11.7934375 12.81664063 -11.171875 12.20703125 C-5.26989543 6.38766162 -5.26989543 6.38766162 0 0 Z " fill="#4891C5" transform="translate(98,76)"/>
<path d="M0 0 C0.66 0.33 1.32 0.66 2 1 C1.2059375 1.83144531 0.411875 2.66289062 -0.40625 3.51953125 C-1.43788995 4.61682101 -2.46911872 5.71449746 -3.5 6.8125 C-4.02464844 7.35970703 -4.54929687 7.90691406 -5.08984375 8.47070312 C-8.28937177 11.68272298 -8.28937177 11.68272298 -9 16 C-9.99 16.33 -10.98 16.66 -12 17 C-11.52328794 12.34160316 -9.73777828 10.17067431 -6.5625 6.8125 C-5.75941406 5.95269531 -4.95632812 5.09289062 -4.12890625 4.20703125 C-2.76477768 2.79284291 -1.38938393 1.38938393 0 0 Z " fill="#974DEC" transform="translate(78,223)"/>
<path d="M0 0 C7.26 0 14.52 0 22 0 C20.875 5.625 20.875 5.625 18 8 C18.33 6.02 18.66 4.04 19 2 C12.73 1.67 6.46 1.34 0 1 C0 0.67 0 0.34 0 0 Z " fill="#05E4A0" transform="translate(228,76)"/>
<path d="M0 0 C1.32 0.33 2.64 0.66 4 1 C4 2.32 4 3.64 4 5 C5.98260426 6.68732277 7.9832342 8.35366057 10 10 C10.69140625 12.15625 10.69140625 12.15625 11 14 C6.90261949 10.65073672 2.98901176 7.4237374 0 3 C0 2.01 0 1.02 0 0 Z " fill="#6F71DF" transform="translate(66,139)"/>
<path d="M0 0 C0.33 0.66 0.66 1.32 1 2 C-0.09966775 3.29549899 -1.20491801 4.58626071 -2.3125 5.875 C-2.92738281 6.59429687 -3.54226562 7.31359375 -4.17578125 8.0546875 C-6 10 -6 10 -9 12 C-9 9 -9 9 -7.03125 6.73828125 C-5.77828125 5.53751953 -5.77828125 5.53751953 -4.5 4.3125 C-3.6646875 3.50425781 -2.829375 2.69601563 -1.96875 1.86328125 C-1.3190625 1.24839844 -0.669375 0.63351563 0 0 Z " fill="#5589D0" transform="translate(85,91)"/>
<path d="M0 0 C0.66 0.99 1.32 1.98 2 3 C-1 6 -4 9 -7 12 C-7.33 11.01 -7.66 10.02 -8 9 C-7.0479279 7.99403703 -6.08812654 6.99538437 -5.125 6 C-4.32449219 5.1646875 -4.32449219 5.1646875 -3.5078125 4.3125 C-2 3 -2 3 0 3 C0 2.01 0 1.02 0 0 Z " fill="#3C9CBB" transform="translate(248,202)"/>
<path d="M0 0 C-1.5830577 4.2742558 -4.50568404 6.26531794 -8 9 C-6.68994234 5.06982701 -4.75047804 0 0 0 Z " fill="#4899C9" transform="translate(239,215)"/>
<path d="M0 0 C-1.5830577 4.2742558 -4.50568404 6.26531794 -8 9 C-6.68994234 5.06982701 -4.75047804 0 0 0 Z " fill="#13CBA1" transform="translate(235,95)"/>
<path d="M0 0 C0.66 0.33 1.32 0.66 2 1 C-0.31 3.64 -2.62 6.28 -5 9 C-5.33 7.68 -5.66 6.36 -6 5 C-4.02 3.35 -2.04 1.7 0 0 Z " fill="#09CD96" transform="translate(243,85)"/>
<path d="M0 0 C0.66 0.33 1.32 0.66 2 1 C-0.31 3.31 -2.62 5.62 -5 8 C-5.33 7.01 -5.66 6.02 -6 5 C-5.34 5 -4.68 5 -4 5 C-3.71125 4.360625 -3.4225 3.72125 -3.125 3.0625 C-2 1 -2 1 0 0 Z " fill="#1DC1AA" transform="translate(222,108)"/>
<path d="M0 0 C0.99 0.33 1.98 0.66 3 1 C1.37660195 2.70884005 -0.29319053 4.37446717 -2 6 C-2.66 6 -3.32 6 -4 6 C-2.84826645 3.53199953 -1.95216435 1.95216435 0 0 Z " fill="#528FD0" transform="translate(225,228)"/>
<path d="M0 0 C0.75 1.75 0.75 1.75 1 4 C-0.9375 6.25 -0.9375 6.25 -3 8 C-2.74438677 5.6568787 -2.40729228 3.32156597 -2 1 C-1.34 0.67 -0.68 0.34 0 0 Z " fill="#01CA8A" transform="translate(249,76)"/>
<path d="M0 0 C0.99 0.33 1.98 0.66 3 1 C1.35 1.33 -0.3 1.66 -2 2 C-1.34 1.34 -0.68 0.68 0 0 Z " fill="#000000" transform="translate(211,308)"/>
<path d="M0 0 C0.66 0.33 1.32 0.66 2 1 C0.02 1.99 0.02 1.99 -2 3 C-1.34 2.01 -0.68 1.02 0 0 Z " fill="#000000" transform="translate(264,276)"/>
<path d="M0 0 C1.98 0.99 1.98 0.99 4 2 C3.01 2 2.02 2 1 2 C0.67 1.34 0.34 0.68 0 0 Z " fill="#000000" transform="translate(50,276)"/>
<path d="M0 0 C1.98 0.99 1.98 0.99 4 2 C3.01 2 2.02 2 1 2 C0.67 1.34 0.34 0.68 0 0 Z " fill="#000000" transform="translate(262,37)"/>
<path d="M0 0 C0.99 0.33 1.98 0.66 3 1 C1.35 1.33 -0.3 1.66 -2 2 C-1.34 1.34 -0.68 0.68 0 0 Z " fill="#000000" transform="translate(94,10)"/>
<path d="M0 0 C0.99 0.33 1.98 0.66 3 1 C1.35 1.33 -0.3 1.66 -2 2 C-1.34 1.34 -0.68 0.68 0 0 Z " fill="#000000" transform="translate(104,6)"/>
<path d="M0 0 C1.65 0 3.3 0 5 0 C5 0.33 5 0.66 5 1 C3.35 1 1.7 1 0 1 C0 0.67 0 0.34 0 0 Z " fill="#000000" transform="translate(189,314)"/>
<path d="M0 0 C1.65 0 3.3 0 5 0 C5 0.33 5 0.66 5 1 C3.35 1 1.7 1 0 1 C0 0.67 0 0.34 0 0 Z " fill="#000000" transform="translate(122,314)"/>
<path d="M0 0 C0.99 0.33 1.98 0.66 3 1 C1.68 1.33 0.36 1.66 -1 2 C-0.67 1.34 -0.34 0.68 0 0 Z " fill="#000000" transform="translate(221,304)"/>
<path d="M0 0 C1.32 0.33 2.64 0.66 4 1 C3.01 1.495 3.01 1.495 2 2 C1.34 1.34 0.68 0.68 0 0 Z " fill="#000000" transform="translate(92,304)"/>
<path d="M0 0 C0.99 0.99 1.98 1.98 3 3 C2.01 2.67 1.02 2.34 0 2 C0 1.34 0 0.68 0 0 Z " fill="#000000" transform="translate(36,261)"/>
<path d="M0 0 C0 0.99 0 1.98 0 3 C-0.66 2.67 -1.32 2.34 -2 2 C-1.34 1.34 -0.68 0.68 0 0 Z " fill="#000000" transform="translate(279,261)"/>
<path d="M0 0 C0.99 0.33 1.98 0.66 3 1 C2.67 1.66 2.34 2.32 2 3 C1.34 2.01 0.68 1.02 0 0 Z " fill="#000000" transform="translate(277,52)"/>
<path d="M0 0 C0.66 0.33 1.32 0.66 2 1 C1.01 1.66 0.02 2.32 -1 3 C-0.67 2.01 -0.34 1.02 0 0 Z " fill="#000000" transform="translate(37,52)"/>
<path d="M0 0 C1.98 0.99 1.98 0.99 4 2 C2.68 1.67 1.36 1.34 0 1 C0 0.67 0 0.34 0 0 Z " fill="#000000" transform="translate(220,10)"/>
<path d="M0 0 C1.65 0 3.3 0 5 0 C5 0.33 5 0.66 5 1 C3.35 1 1.7 1 0 1 C0 0.67 0 0.34 0 0 Z " fill="#000000" transform="translate(189,1)"/>
<path d="M0 0 C1.65 0 3.3 0 5 0 C5 0.33 5 0.66 5 1 C3.35 1 1.7 1 0 1 C0 0.67 0 0.34 0 0 Z " fill="#000000" transform="translate(122,1)"/>
<path d="M0 0 C4 1 4 1 4 1 Z " fill="#000000" transform="translate(185,315)"/>
<path d="M0 0 C4 1 4 1 4 1 Z " fill="#000000" transform="translate(127,315)"/>
<path d="M0 0 C4 1 4 1 4 1 Z " fill="#000000" transform="translate(205,310)"/>
<path d="M0 0 C4 1 4 1 4 1 Z " fill="#000000" transform="translate(107,310)"/>
<path d="M0 0 C4 1 4 1 4 1 Z " fill="#000000" transform="translate(205,5)"/>
<path d="M0 0 C4 1 4 1 4 1 Z " fill="#000000" transform="translate(107,5)"/>
<path d="M0 0 C4 1 4 1 4 1 Z " fill="#000000" transform="translate(185,0)"/>
<path d="M0 0 C4 1 4 1 4 1 Z " fill="#000000" transform="translate(127,0)"/>
<path d="M0 0 C3 1 3 1 3 1 Z " fill="#000000" transform="translate(196,313)"/>
<path d="M0 0 C3 1 3 1 3 1 Z " fill="#000000" transform="translate(117,313)"/>
<path d="M0 0 C3 1 3 1 3 1 Z " fill="#000000" transform="translate(199,312)"/>
<path d="M0 0 C3 1 3 1 3 1 Z " fill="#000000" transform="translate(114,312)"/>
<path d="M0 0 C3 1 3 1 3 1 Z " fill="#000000" transform="translate(202,311)"/>
<path d="M0 0 C3 1 3 1 3 1 Z " fill="#000000" transform="translate(111,311)"/>
<path d="M0 0 C3 1 3 1 3 1 Z " fill="#000000" transform="translate(104,309)"/>
<path d="" fill="#000000" transform="translate(0,0)"/>
<path d="" fill="#000000" transform="translate(0,0)"/>
<path d="" fill="#000000" transform="translate(0,0)"/>
<path d="" fill="#000000" transform="translate(0,0)"/>
<path d="" fill="#000000" transform="translate(0,0)"/>
<path d="" fill="#000000" transform="translate(0,0)"/>
<path d="" fill="#000000" transform="translate(0,0)"/>
<path d="" fill="#000000" transform="translate(0,0)"/>
<path d="M0 0 C3 1 3 1 3 1 Z " fill="#000000" transform="translate(209,6)"/>
<path d="M0 0 C3 1 3 1 3 1 Z " fill="#000000" transform="translate(202,4)"/>
<path d="M0 0 C3 1 3 1 3 1 Z " fill="#000000" transform="translate(111,4)"/>
<path d="M0 0 C3 1 3 1 3 1 Z " fill="#000000" transform="translate(199,3)"/>
<path d="M0 0 C3 1 3 1 3 1 Z " fill="#000000" transform="translate(114,3)"/>
<path d="M0 0 C3 1 3 1 3 1 Z " fill="#000000" transform="translate(196,2)"/>
<path d="M0 0 C3 1 3 1 3 1 Z " fill="#000000" transform="translate(117,2)"/>
<path d="M0 0 C2 1 2 1 2 1 Z " fill="#000000" transform="translate(102,308)"/>
<path d="M0 0 C2 1 2 1 2 1 Z " fill="#000000" transform="translate(214,307)"/>
<path d="M0 0 C2 1 2 1 2 1 Z " fill="#000000" transform="translate(100,307)"/>
<path d="M0 0 C2 1 2 1 2 1 Z " fill="#000000" transform="translate(217,306)"/>
<path d="M0 0 C2 1 2 1 2 1 Z " fill="#000000" transform="translate(97,306)"/>
<path d="M0 0 C2 1 2 1 2 1 Z " fill="#000000" transform="translate(226,302)"/>
<path d="M0 0 C2 1 2 1 2 1 Z " fill="#000000" transform="translate(88,302)"/>
<path d="M0 0 C2 1 2 1 2 1 Z " fill="#000000" transform="translate(228,301)"/>
<path d="M0 0 C2 1 2 1 2 1 Z " fill="#000000" transform="translate(86,301)"/>
<path d="M0 0 C2 1 2 1 2 1 Z " fill="#000000" transform="translate(230,300)"/>
<path d="M0 0 C2 1 2 1 2 1 Z " fill="#000000" transform="translate(84,300)"/>
<path d="M0 0 C2 1 2 1 2 1 Z " fill="#000000" transform="translate(234,298)"/>
<path d="M0 0 C2 1 2 1 2 1 Z " fill="#000000" transform="translate(80,298)"/>
<path d="M0 0 C2 1 2 1 2 1 Z " fill="#000000" transform="translate(237,296)"/>
<path d="M0 0 C2 1 2 1 2 1 Z " fill="#000000" transform="translate(77,296)"/>
<path d="M0 0 C2 1 2 1 2 1 Z " fill="#000000" transform="translate(242,293)"/>
<path d="M0 0 C2 1 2 1 2 1 Z " fill="#000000" transform="translate(72,293)"/>
<path d="M0 0 C2 1 2 1 2 1 Z " fill="#000000" transform="translate(245,291)"/>
<path d="M0 0 C2 1 2 1 2 1 Z " fill="#000000" transform="translate(69,291)"/>
<path d="M0 0 C2 1 2 1 2 1 Z " fill="#000000" transform="translate(248,289)"/>
<path d="M0 0 C2 1 2 1 2 1 Z " fill="#000000" transform="translate(66,289)"/>
<path d="M0 0 C2 1 2 1 2 1 Z " fill="#000000" transform="translate(256,283)"/>
<path d="M0 0 C2 1 2 1 2 1 Z " fill="#000000" transform="translate(58,283)"/>
<path d="" fill="#000000" transform="translate(0,0)"/>
<path d="" fill="#000000" transform="translate(0,0)"/>
<path d="" fill="#000000" transform="translate(0,0)"/>
<path d="" fill="#000000" transform="translate(0,0)"/>
<path d="M0 0 C2 1 2 1 2 1 Z " fill="#000000" transform="translate(256,32)"/>
<path d="M0 0 C2 1 2 1 2 1 Z " fill="#000000" transform="translate(58,32)"/>
<path d="M0 0 C2 1 2 1 2 1 Z " fill="#000000" transform="translate(248,26)"/>
<path d="M0 0 C2 1 2 1 2 1 Z " fill="#000000" transform="translate(66,26)"/>
<path d="M0 0 C2 1 2 1 2 1 Z " fill="#000000" transform="translate(245,24)"/>
<path d="M0 0 C2 1 2 1 2 1 Z " fill="#000000" transform="translate(69,24)"/>
<path d="M0 0 C2 1 2 1 2 1 Z " fill="#000000" transform="translate(242,22)"/>
<path d="M0 0 C2 1 2 1 2 1 Z " fill="#000000" transform="translate(72,22)"/>
<path d="M0 0 C2 1 2 1 2 1 Z " fill="#000000" transform="translate(237,19)"/>
<path d="M0 0 C2 1 2 1 2 1 Z " fill="#000000" transform="translate(77,19)"/>
<path d="M0 0 C2 1 2 1 2 1 Z " fill="#000000" transform="translate(234,17)"/>
<path d="M0 0 C2 1 2 1 2 1 Z " fill="#000000" transform="translate(80,17)"/>
<path d="M0 0 C2 1 2 1 2 1 Z " fill="#000000" transform="translate(230,15)"/>
<path d="M0 0 C2 1 2 1 2 1 Z " fill="#000000" transform="translate(84,15)"/>
<path d="M0 0 C2 1 2 1 2 1 Z " fill="#000000" transform="translate(228,14)"/>
<path d="M0 0 C2 1 2 1 2 1 Z " fill="#000000" transform="translate(86,14)"/>
<path d="M0 0 C2 1 2 1 2 1 Z " fill="#000000" transform="translate(226,13)"/>
<path d="M0 0 C2 1 2 1 2 1 Z " fill="#000000" transform="translate(88,13)"/>
<path d="M0 0 C2 1 2 1 2 1 Z " fill="#000000" transform="translate(217,9)"/>
<path d="M0 0 C2 1 2 1 2 1 Z " fill="#000000" transform="translate(97,9)"/>
<path d="M0 0 C2 1 2 1 2 1 Z " fill="#000000" transform="translate(214,8)"/>
<path d="M0 0 C2 1 2 1 2 1 Z " fill="#000000" transform="translate(100,8)"/>
<path d="M0 0 C2 1 2 1 2 1 Z " fill="#000000" transform="translate(212,7)"/>
<path d="" fill="#000000" transform="translate(0,0)"/>
<path d="" fill="#000000" transform="translate(0,0)"/>
<path d="" fill="#000000" transform="translate(0,0)"/>
<path d="" fill="#000000" transform="translate(0,0)"/>
<path d="" fill="#000000" transform="translate(0,0)"/>
<path d="" fill="#000000" transform="translate(0,0)"/>
<path d="" fill="#000000" transform="translate(0,0)"/>
<path d="" fill="#000000" transform="translate(0,0)"/>
<path d="" fill="#000000" transform="translate(0,0)"/>
<path d="" fill="#000000" transform="translate(0,0)"/>
<path d="" fill="#000000" transform="translate(0,0)"/>
<path d="" fill="#000000" transform="translate(0,0)"/>
<path d="" fill="#000000" transform="translate(0,0)"/>
<path d="" fill="#000000" transform="translate(0,0)"/>
<path d="" fill="#000000" transform="translate(0,0)"/>
<path d="" fill="#000000" transform="translate(0,0)"/>
<path d="" fill="#000000" transform="translate(0,0)"/>
<path d="" fill="#000000" transform="translate(0,0)"/>
<path d="" fill="#000000" transform="translate(0,0)"/>
<path d="" fill="#000000" transform="translate(0,0)"/>
<path d="" fill="#000000" transform="translate(0,0)"/>
<path d="" fill="#000000" transform="translate(0,0)"/>
<path d="" fill="#000000" transform="translate(0,0)"/>
<path d="" fill="#000000" transform="translate(0,0)"/>
<path d="" fill="#000000" transform="translate(0,0)"/>
<path d="" fill="#000000" transform="translate(0,0)"/>
<path d="" fill="#000000" transform="translate(0,0)"/>
<path d="" fill="#000000" transform="translate(0,0)"/>
<path d="" fill="#000000" transform="translate(0,0)"/>
<path d="" fill="#000000" transform="translate(0,0)"/>
<path d="" fill="#000000" transform="translate(0,0)"/>
<path d="" fill="#000000" transform="translate(0,0)"/>
<path d="" fill="#000000" transform="translate(0,0)"/>
<path d="" fill="#000000" transform="translate(0,0)"/>
<path d="" fill="#000000" transform="translate(0,0)"/>
<path d="" fill="#000000" transform="translate(0,0)"/>
<path d="" fill="#000000" transform="translate(0,0)"/>
<path d="" fill="#000000" transform="translate(0,0)"/>
<path d="" fill="#000000" transform="translate(0,0)"/>
<path d="" fill="#000000" transform="translate(0,0)"/>
<path d="" fill="#000000" transform="translate(0,0)"/>
<path d="" fill="#000000" transform="translate(0,0)"/>
<path d="" fill="#000000" transform="translate(0,0)"/>
<path d="" fill="#000000" transform="translate(0,0)"/>
<path d="" fill="#000000" transform="translate(0,0)"/>
<path d="" fill="#000000" transform="translate(0,0)"/>
<path d="" fill="#000000" transform="translate(0,0)"/>
<path d="" fill="#000000" transform="translate(0,0)"/>
<path d="" fill="#000000" transform="translate(0,0)"/>
<path d="" fill="#000000" transform="translate(0,0)"/>
<path d="" fill="#000000" transform="translate(0,0)"/>
<path d="" fill="#000000" transform="translate(0,0)"/>
<path d="" fill="#000000" transform="translate(0,0)"/>
<path d="" fill="#000000" transform="translate(0,0)"/>
<path d="" fill="#000000" transform="translate(0,0)"/>
<path d="" fill="#000000" transform="translate(0,0)"/>
<path d="" fill="#000000" transform="translate(0,0)"/>
<path d="" fill="#000000" transform="translate(0,0)"/>
<path d="" fill="#000000" transform="translate(0,0)"/>
<path d="" fill="#000000" transform="translate(0,0)"/>
<path d="" fill="#000000" transform="translate(0,0)"/>
<path d="" fill="#000000" transform="translate(0,0)"/>
<path d="" fill="#000000" transform="translate(0,0)"/>
<path d="" fill="#000000" transform="translate(0,0)"/>
<path d="" fill="#000000" transform="translate(0,0)"/>
<path d="" fill="#000000" transform="translate(0,0)"/>
<path d="" fill="#000000" transform="translate(0,0)"/>
<path d="" fill="#000000" transform="translate(0,0)"/>
<path d="" fill="#000000" transform="translate(0,0)"/>
<path d="" fill="#000000" transform="translate(0,0)"/>
<path d="" fill="#000000" transform="translate(0,0)"/>
<path d="" fill="#000000" transform="translate(0,0)"/>
<path d="" fill="#000000" transform="translate(0,0)"/>
<path d="" fill="#000000" transform="translate(0,0)"/>
<path d="" fill="#000000" transform="translate(0,0)"/>
<path d="" fill="#000000" transform="translate(0,0)"/>
<path d="" fill="#000000" transform="translate(0,0)"/>
<path d="" fill="#000000" transform="translate(0,0)"/>
<path d="" fill="#000000" transform="translate(0,0)"/>
<path d="" fill="#000000" transform="translate(0,0)"/>
<path d="" fill="#000000" transform="translate(0,0)"/>
<path d="" fill="#000000" transform="translate(0,0)"/>
<path d="" fill="#000000" transform="translate(0,0)"/>
<path d="" fill="#000000" transform="translate(0,0)"/>
<path d="" fill="#000000" transform="translate(0,0)"/>
<path d="" fill="#000000" transform="translate(0,0)"/>
<path d="" fill="#000000" transform="translate(0,0)"/>
<path d="" fill="#000000" transform="translate(0,0)"/>
<path d="" fill="#000000" transform="translate(0,0)"/>
<path d="" fill="#000000" transform="translate(0,0)"/>
<path d="" fill="#000000" transform="translate(0,0)"/>
<path d="" fill="#000000" transform="translate(0,0)"/>
<path d="" fill="#000000" transform="translate(0,0)"/>
<path d="" fill="#000000" transform="translate(0,0)"/>
<path d="" fill="#000000" transform="translate(0,0)"/>
<path d="" fill="#000000" transform="translate(0,0)"/>
<path d="" fill="#000000" transform="translate(0,0)"/>
<path d="" fill="#000000" transform="translate(0,0)"/>
<path d="" fill="#000000" transform="translate(0,0)"/>
<path d="" fill="#000000" transform="translate(0,0)"/>
<path d="" fill="#000000" transform="translate(0,0)"/>
<path d="" fill="#000000" transform="translate(0,0)"/>
<path d="" fill="#000000" transform="translate(0,0)"/>
<path d="" fill="#000000" transform="translate(0,0)"/>
</svg>
