<?xml version="1.0" encoding="UTF-8"?>
<svg version="1.1" xmlns="http://www.w3.org/2000/svg" width="400" height="400">
<path d="M0 0 C132 0 264 0 400 0 C400 132 400 264 400 400 C268 400 136 400 0 400 C0 268 0 136 0 0 Z " fill="#FEFEFE" transform="translate(0,0)"/>
<path d="M0 0 C13.86 0 27.72 0 42 0 C42.00410889 3.26938477 42.00821777 6.53876953 42.01245117 9.90722656 C42.02969056 20.73991442 42.07426246 31.57236766 42.13209057 42.40491104 C42.16630139 48.96920543 42.19146145 55.53326852 42.19555664 62.09765625 C42.19985211 68.43914967 42.22841951 74.78012184 42.27343178 81.12145233 C42.28636671 83.53416654 42.29072877 85.94694326 42.28615379 88.35968781 C42.08985075 110.05851995 42.08985075 110.05851995 52.98046875 128.25 C61.63007998 135.74521437 70.38958138 138.46678364 81.72265625 138.24609375 C91.86042428 137.48485491 100.34799201 133.15088067 107.3125 125.75 C112.26758067 119.56991328 115.09398841 111.30999507 115.15821838 103.41888428 C115.1680072 102.50465698 115.17779602 101.59042969 115.18788147 100.64849854 C115.19363693 99.65299988 115.1993924 98.65750122 115.20532227 97.63183594 C115.21522186 96.57786621 115.22512146 95.52389648 115.23532104 94.43798828 C115.26691409 90.95347339 115.29168492 87.46894486 115.31640625 83.984375 C115.33697766 81.56870163 115.35797418 79.15303185 115.37937927 76.73736572 C115.43458055 70.37848819 115.48399847 64.01957827 115.53222656 57.66064453 C115.58245572 51.1721712 115.63813442 44.6837449 115.69335938 38.1953125 C115.80091722 25.46358035 115.90186397 12.73180826 116 0 C129.86 0 143.72 0 158 0 C158.09068301 14.58740878 158.1642028 29.17463955 158.20724869 43.76226807 C158.22777677 50.53725354 158.25570767 57.31205001 158.30175781 64.08691406 C158.34624943 70.63567377 158.36919629 77.18431163 158.37950897 83.73321533 C158.3868501 86.22083611 158.40118432 88.70844724 158.42292023 91.19598389 C158.53639182 104.73111116 158.34574062 117.07850448 154 130 C153.51771942 131.44959106 153.51771942 131.44959106 153.0256958 132.9284668 C146.97405349 150.14081286 134.6120935 160.28684351 119.03515625 168.578125 C98.22725477 178.48949271 69.89280935 179.89945994 48.01318359 172.73632812 C37.57866497 168.91987067 28.12497597 163.64099726 20 156 C19.30648437 155.35933594 18.61296875 154.71867188 17.8984375 154.05859375 C13.58998001 149.67527889 10.56687926 144.85244618 7.75 139.4375 C7.43272949 138.84388672 7.11545898 138.25027344 6.78857422 137.63867188 C-0.96415234 121.84804228 -0.53919351 105.43833363 -0.390625 88.28125 C-0.38315003 85.72579393 -0.37746305 83.17033206 -0.37347412 80.61486816 C-0.35985874 74.61931083 -0.32846431 68.62411169 -0.28807616 62.62869692 C-0.24303945 55.79173914 -0.22129209 48.95476549 -0.20129442 42.11769581 C-0.15971961 28.07826898 -0.08649755 14.03921825 0 0 Z " fill="#020202" transform="translate(121,176)"/>
<path d="M0 0 C2.74438503 0.93510597 5.09702215 2.09211391 7.62036133 3.5222168 C8.60834717 4.0783667 9.59633301 4.6345166 10.61425781 5.20751953 C11.67201416 5.81281494 12.72977051 6.41811035 13.81958008 7.04174805 C14.92825439 7.66960205 16.03692871 8.29745605 17.17919922 8.94433594 C26.60430458 14.29776372 35.97015874 19.75274586 45.31958008 25.23706055 C49.78768096 27.85554175 54.26794189 30.45177582 58.75708008 33.03393555 C59.35927872 33.38043655 59.96147736 33.72693756 60.58192444 34.0839386 C63.51857014 35.77309905 66.45639593 37.46015051 69.39550781 39.14501953 C70.4416626 39.74644775 71.48781738 40.34787598 72.56567383 40.9675293 C73.96257446 41.76864136 73.96257446 41.76864136 75.38769531 42.5859375 C77.50708008 43.85424805 77.50708008 43.85424805 78.50708008 44.85424805 C78.59995268 46.2664985 78.6245478 47.68333739 78.62060547 49.09863281 C78.62052994 49.99949112 78.62045441 50.90034943 78.62037659 51.82850647 C78.6152153 52.80766525 78.61005402 53.78682404 78.60473633 54.7956543 C78.60261391 56.29176491 78.60261391 56.29176491 78.60044861 57.81809998 C78.59483122 61.01767928 78.58227579 64.21718973 78.56958008 67.41674805 C78.56456732 69.5801585 78.56000402 71.74357004 78.5559082 73.90698242 C78.54485615 79.2227613 78.52810111 84.53849976 78.50708008 89.85424805 C74.48863666 88.62123755 71.01970666 87.16489037 67.40942383 85.01831055 C66.45422852 84.45499023 65.4990332 83.89166992 64.51489258 83.3112793 C63.50168945 82.70670898 62.48848633 82.10213867 61.44458008 81.47924805 C59.27709826 80.19977696 57.10912073 78.92114533 54.94067383 77.64331055 C53.85641113 77.00296875 52.77214844 76.36262695 51.6550293 75.70288086 C47.12918797 73.04508106 42.57093475 70.44605588 38.00708008 67.85424805 C32.3292037 64.62729696 26.67013269 61.37203891 21.03833008 58.06518555 C19.40734375 57.10805664 19.40734375 57.10805664 17.7434082 56.1315918 C15.63093075 54.88985791 13.52017044 53.64519679 11.41137695 52.3972168 C10.45295898 51.83389648 9.49454102 51.27057617 8.50708008 50.69018555 C7.23864258 49.94067627 7.23864258 49.94067627 5.94458008 49.17602539 C2.35159159 47.21066075 2.35159159 47.21066075 -1.49291992 45.85424805 C-3.95283457 46.61458356 -3.95283457 46.61458356 -6.31713867 48.1940918 C-7.24961426 48.75475342 -8.18208984 49.31541504 -9.14282227 49.89306641 C-10.14522949 50.51963135 -11.14763672 51.14619629 -12.18041992 51.79174805 C-14.35295591 53.10530896 -16.52615558 54.41777269 -18.69995117 55.72924805 C-20.38338623 56.75598633 -20.38338623 56.75598633 -22.10083008 57.8034668 C-27.4739982 61.05196343 -32.92059581 64.16976878 -38.36791992 67.29174805 C-40.52191142 68.53073063 -42.67555414 69.77031976 -44.82885742 71.01049805 C-46.45065918 71.94442383 -46.45065918 71.94442383 -48.10522461 72.8972168 C-51.07138154 74.61073034 -54.03330336 76.33113 -56.9927063 78.05625916 C-59.40904247 79.46453089 -61.82717397 80.86970378 -64.24542236 82.27468872 C-65.96361972 83.27469507 -67.67922211 84.27915579 -69.39477539 85.28369141 C-70.42747559 85.88318604 -71.46017578 86.48268066 -72.52416992 87.1003418 C-73.4374707 87.63328857 -74.35077148 88.16623535 -75.29174805 88.71533203 C-77.49291992 89.85424805 -77.49291992 89.85424805 -79.49291992 89.85424805 C-80.41151774 78.44950284 -80.99572812 67.05609727 -80.71948242 55.61206055 C-80.72821381 54.1766391 -80.72821381 54.1766391 -80.73712158 52.71221924 C-80.52025838 47.20316505 -79.55533145 44.294971 -75.57543945 40.37548828 C-72.3956639 37.75309777 -69.60190567 35.92897197 -65.57104492 34.8815918 C-58.69938061 32.7495852 -52.99323892 29.25605198 -46.86791992 25.54174805 C-44.6773572 24.27405295 -42.4832931 23.01239022 -40.28588867 21.7565918 C-33.82041447 18.04334449 -27.35962895 14.322043 -20.90118408 10.59658813 C-19.21965279 9.62687308 -17.53768796 8.65790995 -15.85571289 7.68896484 C-14.8323584 7.09897705 -13.80900391 6.50898926 -12.75463867 5.90112305 C-11.85704834 5.38388672 -10.95945801 4.86665039 -10.03466797 4.33374023 C-7.45337937 2.87729893 -7.45337937 2.87729893 -4.9765625 1.10131836 C-2.49291992 -0.14575195 -2.49291992 -0.14575195 0 0 Z " fill="#A436F0" transform="translate(200.492919921875,48.145751953125)"/>
</svg>
